Kumimoji-Medium.sfdir
StartChar: uF1D98
Encoding: 990616 990616 1
Width: 1000
Flags: MW
LayerCount: 2
Fore
SplineSet
392 78 m 2
 392 60 394 48 404 41 c 0
 415 34 434 31 474 31 c 2
 526 31 l 2
 562 31 583 33 594 39 c 0
 607 46 608 59 608 78 c 2
 608 605 l 2
 608 624 607 637 594 644 c 0
 583 650 562 652 526 652 c 2
 474 652 l 2
 431 652 412 649 402 640 c 0
 394 633 392 622 392 605 c 2
 392 78 l 2
196 0 m 1
 196 31 l 1
 222 31 l 2
 258 31 279 33 290 39 c 0
 303 46 304 59 304 78 c 2
 304 605 l 2
 304 624 303 637 290 644 c 0
 279 650 258 652 222 652 c 2
 196 652 l 1
 196 683 l 1
 231 680 309 680 348 680 c 0
 386 680 613 680 652 680 c 0
 690 680 769 680 804 683 c 1
 804 652 l 1
 778 652 l 2
 735 652 716 649 706 640 c 0
 698 633 696 622 696 605 c 2
 696 78 l 2
 696 60 698 48 708 41 c 0
 719 34 738 31 778 31 c 2
 804 31 l 1
 804 0 l 1
 769 3 691 3 652 3 c 0
 614 3 387 3 348 3 c 0
 310 3 231 3 196 0 c 1
EndSplineSet
EndChar
StartChar: uF1D99
Encoding: 990617 990617 2
Width: 1000
Flags: MW
LayerCount: 2
Fore
SplineSet
544 78 m 2
 544 60 546 48 556 41 c 0
 567 34 586 31 626 31 c 2
 628 31 l 2
 664 31 685 33 696 39 c 0
 709 46 710 59 710 78 c 2
 710 605 l 2
 710 624 709 637 696 644 c 0
 685 650 664 652 628 652 c 2
 626 652 l 2
 583 652 564 649 554 640 c 0
 546 633 544 622 544 605 c 2
 544 78 l 2
290 78 m 2
 290 60 292 48 302 41 c 0
 313 34 332 31 372 31 c 2
 374 31 l 2
 410 31 431 33 442 39 c 0
 455 46 456 59 456 78 c 2
 456 605 l 2
 456 624 455 637 442 644 c 0
 431 650 410 652 374 652 c 2
 372 652 l 2
 329 652 310 649 300 640 c 0
 292 633 290 622 290 605 c 2
 290 78 l 2
94 0 m 1
 94 31 l 1
 120 31 l 2
 156 31 177 33 188 39 c 0
 201 46 202 59 202 78 c 2
 202 605 l 2
 202 624 201 637 188 644 c 0
 177 650 156 652 120 652 c 2
 94 652 l 1
 94 683 l 1
 129 680 207 680 246 680 c 0
 284 680 715 680 754 680 c 0
 792 680 871 680 906 683 c 1
 906 652 l 1
 880 652 l 2
 837 652 818 649 808 640 c 0
 800 633 798 622 798 605 c 2
 798 78 l 2
 798 60 800 48 810 41 c 0
 821 34 840 31 880 31 c 2
 906 31 l 1
 906 0 l 1
 871 3 793 3 754 3 c 0
 716 3 285 3 246 3 c 0
 208 3 129 3 94 0 c 1
EndSplineSet
EndChar
StartChar: uF1D9A
Encoding: 990618 990618 3
Width: 1000
Flags: MW
LayerCount: 2
Fore
SplineSet
66 0 m 1
 66 31 l 1
 92 31 l 2
 128 31 149 33 160 39 c 0
 173 46 174 59 174 78 c 2
 174 605 l 2
 174 624 173 637 160 644 c 0
 149 650 128 652 92 652 c 2
 66 652 l 1
 66 683 l 1
 101 680 179 680 218 680 c 0
 256 680 402 680 450 680 c 0
 488 680 556 680 592 683 c 1
 592 652 l 1
 567 652 510 652 510 623 c 0
 510 621 511 620 516 605 c 2
 658 141 l 1
 790 582 l 2
 792 588 796 594 796 602 c 0
 796 625 774 651 722 652 c 1
 722 683 l 1
 748 682 806 680 836 680 c 0
 862 680 903 681 934 683 c 1
 934 652 l 1
 927 652 920 651 914 651 c 0
 860 645 839 617 824 585 c 2
 652 -3 l 2
 648 -17 645 -22 628 -22 c 0
 615 -22 609 -19 602 0 c 2
 420 614 l 2
 412 639 376 652 344 652 c 19
 301 652 282 649 272 640 c 0
 264 633 262 622 262 605 c 2
 262 78 l 2
 262 60 264 48 274 41 c 0
 285 34 304 31 344 31 c 2
 370 31 l 1
 370 0 l 1
 335 3 257 3 218 3 c 0
 180 3 101 3 66 0 c 1
EndSplineSet
EndChar
StartChar: uF1D9B
Encoding: 990619 990619 4
Width: 1000
Flags: MW
LayerCount: 2
Fore
SplineSet
144 652 m 1
 144 683 l 1
 180 682 224 680 272 680 c 0
 310 680 378 680 414 683 c 1
 414 652 l 1
 389 652 332 652 332 623 c 0
 332 621 332 619 338 605 c 2
 530 100 l 1
 712 582 l 2
 714 588 718 594 718 602 c 0
 718 625 696 651 644 652 c 1
 644 683 l 1
 670 682 728 680 758 680 c 0
 784 680 825 681 856 683 c 1
 856 652 l 1
 849 652 842 651 836 651 c 4
 782 645 759 618 746 585 c 2
 524 -3 l 2
 519 -17 517 -22 500 -22 c 0
 487 -22 481 -19 474 0 c 2
 242 614 l 2
 228 652 209 652 144 652 c 1
EndSplineSet
EndChar
StartChar: uF1D9C
Encoding: 990620 990620 5
Width: 1000
Flags: MW
LayerCount: 2
Fore
SplineSet
64 652 m 1
 64 683 l 1
 100 682 144 680 192 680 c 0
 230 680 298 680 334 683 c 1
 334 652 l 1
 309 652 252 652 252 623 c 0
 252 621 253 620 258 605 c 2
 400 139 l 1
 532 582 l 2
 534 588 538 594 538 602 c 0
 538 625 516 651 464 652 c 1
 464 683 l 1
 490 682 548 680 578 680 c 0
 604 680 745 680 784 680 c 0
 822 680 901 680 936 683 c 1
 936 652 l 1
 910 652 l 2
 867 652 848 649 838 640 c 0
 830 633 828 622 828 605 c 2
 828 78 l 2
 828 60 830 48 840 41 c 0
 851 34 870 31 910 31 c 2
 936 31 l 1
 936 0 l 1
 901 3 823 3 784 3 c 0
 746 3 667 3 632 0 c 1
 632 31 l 1
 658 31 l 2
 694 31 715 33 726 39 c 0
 739 46 740 59 740 78 c 2
 740 605 l 2
 740 624 739 637 726 644 c 0
 715 650 694 652 658 652 c 3
 604 652 576 619 566 585 c 2
 394 -3 l 2
 390 -17 387 -22 370 -22 c 0
 357 -22 351 -19 344 0 c 2
 162 614 l 2
 154 640 129 652 64 652 c 1
EndSplineSet
EndChar
StartChar: uF1D9D
Encoding: 990621 990621 6
Width: 1000
Flags: MW
LayerCount: 2
Fore
SplineSet
631 78 m 2
 631 63 633 52 644 44 c 0
 656 35 678 31 694 31 c 3
 710 31 733 35 745 44 c 0
 756 52 758 62 758 78 c 2
 758 605 l 2
 758 621 755 632 743 640 c 0
 730 648 709 652 693 652 c 3
 676 652 654 647 642 637 c 0
 632 629 631 619 631 605 c 2
 631 78 l 2
56 657 m 1
 56 685 l 1
 77 682 121 682 145 682 c 0
 170 682 219 682 241 685 c 1
 241 657 l 1
 238 657 187 657 187 651 c 1
 187 651 187 650 188 647 c 1
 314 135 l 1
 434 623 l 2
 435 627 436 632 436 637 c 0
 436 651 396 657 386 657 c 1
 386 685 l 1
 408 682 438 682 461 682 c 0
 477 682 758 680 797 680 c 0
 835 680 909 680 944 683 c 1
 944 652 l 1
 918 652 l 2
 880 652 860 650 849 643 c 0
 837 636 836 624 836 605 c 2
 836 78 l 2
 836 57 837 45 853 38 c 0
 865 33 884 31 918 31 c 2
 944 31 l 1
 944 0 l 1
 909 3 836 3 797 3 c 0
 759 3 631 3 592 3 c 0
 554 3 480 3 445 0 c 1
 445 31 l 1
 471 31 l 2
 506 31 527 33 538 39 c 0
 552 46 553 58 553 78 c 2
 553 605 l 2
 553 620 553 630 547 637 c 0
 540 646 526 650 497 651 c 1
 485 651 482 648 476 645 c 0
 471 642 467 636 465 626 c 2
 313 12 l 2
 307 -10 301 -11 291 -11 c 0
 276 -11 274 -4 269 14 c 2
 111 649 l 1
 109 657 64 657 56 657 c 1
EndSplineSet
EndChar
StartChar: uF1D9E
Encoding: 990622 990622 7
Width: 1000
Flags: MW
LayerCount: 2
Fore
SplineSet
678 80 m 6
 678 51 680 38 721 34 c 4
 762 38 764 51 764 80 c 6
 764 607 l 6
 764 636 762 649 721 653 c 4
 680 649 678 636 678 607 c 6
 678 80 l 6
514 80 m 2
 514 51 516 38 557 34 c 0
 598 38 600 51 600 80 c 2
 600 607 l 2
 600 636 598 649 557 653 c 0
 516 649 514 636 514 607 c 2
 514 80 l 2
50 657 m 1
 50 685 l 1
 71 682 114 682 138 682 c 0
 163 682 212 682 234 685 c 1
 234 657 l 1
 231 657 180 657 180 651 c 1
 180 651 181 650 182 647 c 1
 256 171 l 1
 328 623 l 2
 329 627 330 632 330 637 c 0
 330 651 290 657 280 657 c 1
 280 685 l 1
 302 682 331 682 354 682 c 0
 370 682 765 682 804 682 c 0
 842 682 915 682 950 685 c 1
 950 654 l 1
 924 654 l 2
 845 654 842 643 842 607 c 2
 842 80 l 2
 842 44 845 33 924 33 c 2
 950 33 l 1
 950 2 l 1
 915 5 843 5 804 5 c 0
 766 5 515 5 476 5 c 0
 438 5 363 5 328 2 c 1
 328 33 l 1
 354 33 l 2
 433 33 436 44 436 80 c 2
 436 607 l 2
 436 625 436 637 425 644 c 0
 417 649 405 652 384 653 c 3
 365 653 362 639 358 626 c 2
 256 12 l 2
 252 -10 244 -11 234 -11 c 0
 219 -11 217 -4 212 14 c 2
 104 649 l 1
 102 657 58 657 50 657 c 1
EndSplineSet
EndChar
StartChar: uF1D9F
Encoding: 990623 990623 8
Width: 1000
Flags: MW
LayerCount: 2
Fore
SplineSet
281 78 m 6
 281 60 283 48 293 41 c 4
 304 34 336 28 363 31 c 28
 387 33 406 44 421 53 c 4
 447 68 461 85 467 97 c 6
 581 338 l 5
 447 617 l 6
 433 647 418 652 363 652 c 7
 320 652 301 649 291 640 c 4
 283 633 281 622 281 605 c 6
 281 78 l 6
85 0 m 1
 85 31 l 1
 111 31 l 2
 147 31 168 33 179 39 c 0
 192 46 193 59 193 78 c 2
 193 605 l 2
 193 624 192 637 179 644 c 0
 168 650 147 652 111 652 c 2
 85 652 l 1
 85 683 l 1
 120 680 198 680 237 680 c 0
 275 680 434 680 465 680 c 0
 503 680 566 680 601 683 c 1
 601 652 l 1
 558 651 537 634 537 622 c 0
 537 618 542 610 543 607 c 2
 626 433 l 1
 697 583 l 2
 703 595 705 596 705 606 c 0
 705 629 683 651 643 652 c 1
 643 683 l 1
 683 680 731 680 771 680 c 0
 796 680 844 682 883 683 c 1
 883 652 l 1
 873 652 863 651 855 650 c 0
 832 648 814 644 799 638 c 0
 768 625 746 607 737 587 c 2
 646 392 l 1
 801 67 l 2
 817 34 843 31 895 31 c 2
 915 31 l 1
 915 0 l 1
 873 2 817 3 775 3 c 0
 737 3 684 3 649 0 c 1
 649 31 l 1
 692 32 713 49 713 61 c 0
 713 64 711 68 709 72 c 2
 601 296 l 1
 509 101 l 2
 503 89 499 86 499 77 c 0
 499 59 515 32 561 31 c 1
 561 0 l 1
 525 3 470 3 433 3 c 0
 400 3 276 3 237 3 c 0
 199 3 120 3 85 0 c 1
EndSplineSet
EndChar
StartChar: uF1DA0
Encoding: 990624 990624 9
Width: 1000
Flags: MW
LayerCount: 2
Fore
SplineSet
149 0 m 1
 149 31 l 1
 163 31 176 33 187 34 c 0
 213 37 233 44 248 53 c 4
 274 68 286 86 294 97 c 2
 458 339 l 1
 274 617 l 2
 255 645 236 652 181 652 c 2
 162 652 l 1
 162 683 l 1
 199 681 261 680 292 680 c 0
 330 680 403 680 438 683 c 1
 438 652 l 1
 395 651 373 634 373 622 c 0
 373 618 378 610 380 607 c 2
 509 414 l 1
 623 583 l 2
 630 594 632 596 632 606 c 0
 632 629 610 651 570 652 c 1
 570 683 l 1
 610 680 658 680 698 680 c 0
 723 680 770 682 809 683 c 1
 809 652 l 1
 799 652 790 651 782 650 c 0
 759 648 740 644 725 638 c 0
 694 625 677 606 664 587 c 2
 527 386 l 1
 738 67 l 2
 759 36 780 31 832 31 c 2
 851 31 l 1
 851 0 l 1
 809 2 763 3 721 3 c 0
 683 3 610 3 575 0 c 1
 575 31 l 1
 618 32 640 49 640 61 c 0
 640 64 637 68 635 72 c 2
 477 311 l 1
 335 101 l 2
 328 90 325 86 325 77 c 0
 325 59 342 32 388 31 c 1
 388 0 l 1
 352 3 297 3 260 3 c 0
 227 3 185 1 149 0 c 1
EndSplineSet
EndChar
StartChar: uF1DB1
Encoding: 990641 990641 30
Width: 1000
Flags: MW
LayerCount: 2
Fore
SplineSet
524 0 m 1
 524 32 l 1
 560 32 l 1
 560 371 l 2
 560 410 556 410 524 410 c 1
 524 442 l 1
 613 450 l 1
 613 342 l 1
 630 405 660 450 705 450 c 0
 725 450 774 447 784 354 c 1
 798 400 824 450 872 450 c 0
 900 450 921 440 934 415 c 0
 947 392 952 356 952 306 c 2
 952 32 l 1
 989 32 l 1
 989 0 l 1
 974 1 943 3 923 3 c 0
 903 3 872 1 857 0 c 1
 857 32 l 1
 893 32 l 1
 893 317 l 2
 893 394 882 429 864 429 c 0
 832 429 786 365 786 256 c 2
 786 32 l 1
 822 32 l 1
 822 0 l 1
 807 1 776 3 756 3 c 0
 736 3 705 1 690 0 c 1
 690 32 l 1
 726 32 l 1
 726 317 l 2
 726 394 715 429 697 429 c 0
 665 429 619 365 619 256 c 2
 619 32 l 1
 655 32 l 1
 655 0 l 1
 640 1 609 3 589 3 c 0
 569 3 539 1 524 0 c 1
24 0 m 1
 24 32 l 1
 60 32 l 1
 60 371 l 2
 60 410 56 410 24 410 c 1
 24 442 l 1
 113 450 l 1
 113 342 l 1
 130 405 160 450 205 450 c 0
 225 450 274 447 284 354 c 1
 298 400 324 450 372 450 c 0
 400 450 421 440 434 415 c 0
 447 392 452 356 452 306 c 2
 452 32 l 1
 489 32 l 1
 489 0 l 1
 474 1 443 3 423 3 c 0
 403 3 372 1 357 0 c 1
 357 32 l 1
 393 32 l 1
 393 317 l 2
 393 394 382 429 364 429 c 0
 332 429 286 365 286 256 c 2
 286 32 l 1
 322 32 l 1
 322 0 l 1
 307 1 276 3 256 3 c 0
 236 3 205 1 190 0 c 1
 190 32 l 1
 226 32 l 1
 226 317 l 2
 226 394 215 429 197 429 c 0
 165 429 119 365 119 256 c 2
 119 32 l 1
 155 32 l 1
 155 0 l 1
 140 1 109 3 89 3 c 0
 69 3 39 1 24 0 c 1
EndSplineSet
EndChar
StartChar: uF1DB2
Encoding: 990642 990642 31
Width: 1000
Flags: MW
LayerCount: 2
Fore
SplineSet
524 0 m 1
 524 32 l 1
 560 32 l 1
 560 371 l 2
 560 410 556 410 524 410 c 1
 524 442 l 1
 613 450 l 1
 613 342 l 1
 630 405 660 450 705 450 c 0
 725 450 774 447 784 354 c 1
 798 400 824 450 872 450 c 0
 900 450 921 440 934 415 c 0
 947 392 952 356 952 306 c 2
 952 32 l 1
 989 32 l 1
 989 0 l 1
 974 1 943 3 923 3 c 0
 903 3 872 1 857 0 c 1
 857 32 l 1
 893 32 l 1
 893 317 l 2
 893 394 882 429 864 429 c 0
 832 429 786 365 786 256 c 2
 786 32 l 1
 822 32 l 1
 822 0 l 1
 807 1 776 3 756 3 c 0
 736 3 705 1 690 0 c 1
 690 32 l 1
 726 32 l 1
 726 317 l 2
 726 394 715 429 697 429 c 0
 665 429 619 365 619 256 c 2
 619 32 l 1
 655 32 l 1
 655 0 l 1
 640 1 609 3 589 3 c 0
 569 3 539 1 524 0 c 1
60 216 m 0
 60 340 151 448 276 448 c 0
 353 448 430 409 430 341 c 0
 430 311 410 294 384 294 c 0
 356 294 338 314 338 340 c 0
 338 353 343 383 384 386 c 1
 349 422 287 423 278 423 c 0
 225 423 142 381 142 218 c 0
 142 57 231 14 284 14 c 0
 321 14 385 26 414 119 c 0
 416 125 419 129 428 129 c 0
 431 129 440 129 440 119 c 0
 440 109 408 -11 274 -11 c 0
 158 -11 60 88 60 216 c 0
EndSplineSet
EndChar
StartChar: uF1DB3
Encoding: 990643 990643 32
Width: 1000
Flags: MW
LayerCount: 2
Fore
SplineSet
524 0 m 1
 524 32 l 1
 560 32 l 1
 560 371 l 2
 560 410 556 410 524 410 c 1
 524 442 l 1
 613 450 l 1
 613 342 l 1
 630 405 660 450 705 450 c 0
 725 450 774 447 784 354 c 1
 798 400 824 450 872 450 c 0
 900 450 921 440 934 415 c 0
 947 392 952 356 952 306 c 2
 952 32 l 1
 989 32 l 1
 989 0 l 1
 974 1 943 3 923 3 c 0
 903 3 872 1 857 0 c 1
 857 32 l 1
 893 32 l 1
 893 317 l 2
 893 394 882 429 864 429 c 0
 832 429 786 365 786 256 c 2
 786 32 l 1
 822 32 l 1
 822 0 l 1
 807 1 776 3 756 3 c 0
 736 3 705 1 690 0 c 1
 690 32 l 1
 726 32 l 1
 726 317 l 2
 726 394 715 429 697 429 c 0
 665 429 619 365 619 256 c 2
 619 32 l 1
 655 32 l 1
 655 0 l 1
 640 1 609 3 589 3 c 0
 569 3 539 1 524 0 c 1
28 0 m 1
 28 31 l 1
 57 31 72 31 79 38 c 0
 85 44 86 55 86 76 c 2
 86 596 l 2
 86 645 84 652 28 652 c 1
 28 683 l 1
 152 694 l 1
 152 214 l 1
 293 336 l 2
 301 343 315 355 315 375 c 0
 315 388 305 399 286 400 c 1
 286 431 l 1
 300 430 342 428 378 428 c 0
 406 428 419 428 448 431 c 1
 448 400 l 1
 427 399 405 397 342 346 c 0
 332 338 261 278 261 274 c 0
 261 271 266 265 267 263 c 2
 394 84 l 2
 425 41 426 33 452 31 c 2
 458 31 464 31 471 31 c 1
 471 0 l 1
 442 2 413 3 384 3 c 0
 363 3 324 1 296 0 c 1
 296 31 l 1
 315 31 332 35 332 54 c 0
 332 61 323 78 314 92 c 0
 276 149 260 169 213 234 c 1
 149 179 l 1
 149 76 l 2
 149 56 151 45 159 39 c 4
 169 31 189 31 227 31 c 1
 227 0 l 1
 187 2 147 3 117 3 c 0
 88 3 61 1 28 0 c 1
EndSplineSet
EndChar
StartChar: uF1DB4
Encoding: 990644 990644 33
Width: 1000
Flags: MW
LayerCount: 2
Fore
SplineSet
528 -79 m 0
 528 -39 560 4 620 21 c 1
 589 41 576 79 576 110 c 0
 576 145 594 178 607 193 c 1
 582 214 560 252 560 296 c 0
 560 373 629 442 722 442 c 0
 744 442 786 439 828 406 c 1
 870 447 914 453 934 453 c 0
 973 453 985 421 985 404 c 0
 985 381 966 374 956 374 c 0
 940 374 927 386 927 403 c 0
 927 415 932 426 943 430 c 1
 940 431 935 431 933 431 c 0
 915 431 879 426 843 392 c 1
 868 369 884 332 884 295 c 0
 884 218 815 149 722 149 c 0
 703 149 662 152 623 180 c 1
 606 160 606 137 606 133 c 0
 606 101 627 70 659 66 c 0
 666 65 709 65 734 65 c 0
 795 65 853 65 906 37 c 0
 957 9 971 -42 971 -77 c 0
 971 -155 867 -206 749 -206 c 0
 627 -206 528 -151 528 -79 c 0
580 -79 m 0
 580 -132 649 -183 750 -183 c 0
 848 -183 919 -133 919 -79 c 0
 919 7 807 7 721 7 c 2
 662 7 l 1
 618 4 580 -33 580 -79 c 0
635 295 m 0
 635 272 635 172 722 172 c 0
 762 172 785 200 793 212 c 0
 808 237 809 269 809 296 c 0
 809 319 809 419 722 419 c 0
 682 419 659 391 651 379 c 0
 636 354 635 322 635 295 c 0
24 0 m 1
 24 32 l 1
 60 32 l 1
 60 371 l 2
 60 410 56 410 24 410 c 1
 24 442 l 1
 113 450 l 1
 113 342 l 1
 130 405 160 450 205 450 c 0
 225 450 274 447 284 354 c 1
 298 400 324 450 372 450 c 0
 400 450 421 440 434 415 c 0
 447 392 452 356 452 306 c 2
 452 32 l 1
 489 32 l 1
 489 0 l 1
 474 1 443 3 423 3 c 0
 403 3 372 1 357 0 c 1
 357 32 l 1
 393 32 l 1
 393 317 l 2
 393 394 382 429 364 429 c 0
 332 429 286 365 286 256 c 2
 286 32 l 1
 322 32 l 1
 322 0 l 1
 307 1 276 3 256 3 c 0
 236 3 205 1 190 0 c 1
 190 32 l 1
 226 32 l 1
 226 317 l 2
 226 394 215 429 197 429 c 0
 165 429 119 365 119 256 c 2
 119 32 l 1
 155 32 l 1
 155 0 l 1
 140 1 109 3 89 3 c 0
 69 3 39 1 24 0 c 1
EndSplineSet
EndChar
StartChar: uF1DB5
Encoding: 990645 990645 34
Width: 1000
Flags: MW
LayerCount: 2
Fore
SplineSet
508 -79 m 0
 508 -39 540 4 600 21 c 1
 569 41 556 79 556 110 c 0
 556 145 575 178 588 193 c 1
 563 214 540 252 540 296 c 0
 540 373 609 442 702 442 c 0
 724 442 766 439 808 406 c 1
 850 447 894 453 914 453 c 0
 953 453 966 421 966 404 c 0
 966 381 946 374 936 374 c 0
 920 374 908 386 908 403 c 0
 908 415 913 426 924 430 c 1
 921 431 916 431 914 431 c 0
 896 431 860 426 824 392 c 1
 849 369 864 332 864 295 c 0
 864 218 795 149 702 149 c 0
 683 149 643 152 604 180 c 1
 587 160 586 137 586 133 c 0
 586 101 608 70 640 66 c 0
 647 65 689 65 714 65 c 0
 775 65 833 65 886 37 c 0
 937 9 952 -42 952 -77 c 0
 952 -155 848 -206 730 -206 c 0
 608 -206 508 -151 508 -79 c 0
560 -79 m 0
 560 -132 629 -183 730 -183 c 0
 828 -183 900 -133 900 -79 c 0
 900 7 788 7 702 7 c 2
 642 7 l 1
 598 4 560 -33 560 -79 c 0
616 295 m 0
 616 272 615 172 702 172 c 0
 742 172 766 200 774 212 c 0
 789 237 790 269 790 296 c 0
 790 319 789 419 702 419 c 0
 662 419 640 391 632 379 c 0
 617 354 616 322 616 295 c 0
34 0 m 1
 34 31 l 1
 69 31 89 31 100 38 c 0
 110 44 112 55 112 76 c 2
 112 596 l 2
 112 645 104 652 34 652 c 1
 34 683 l 1
 178 694 l 1
 178 214 l 1
 320 336 l 2
 328 343 342 355 342 375 c 0
 342 388 331 399 312 400 c 1
 312 431 l 1
 326 430 388 428 424 428 c 0
 452 428 465 428 494 431 c 1
 494 400 l 1
 473 399 431 397 368 346 c 0
 358 338 288 278 288 274 c 0
 288 271 293 265 294 263 c 2
 420 84 l 2
 451 41 472 33 498 31 c 2
 504 31 511 31 518 31 c 1
 518 0 l 1
 489 2 459 3 430 3 c 0
 409 3 350 1 322 0 c 1
 322 31 l 1
 341 31 358 35 358 54 c 0
 358 61 349 78 340 92 c 0
 302 149 287 169 240 234 c 1
 176 179 l 1
 176 76 l 2
 176 56 177 44 186 38 c 0
 197 31 217 31 254 31 c 1
 254 0 l 1
 214 2 174 3 144 3 c 0
 115 3 67 1 34 0 c 1
EndSplineSet
EndChar
StartChar: uF1DB6
Encoding: 990646 990646 35
Width: 1000
Flags: MW
LayerCount: 2
Fore
SplineSet
560 216 m 0
 560 340 651 448 776 448 c 0
 853 448 930 409 930 341 c 0
 930 311 910 294 884 294 c 0
 856 294 838 314 838 340 c 0
 838 353 843 383 884 386 c 1
 849 422 787 423 778 423 c 0
 725 423 642 381 642 218 c 0
 642 57 731 14 784 14 c 0
 821 14 885 26 914 119 c 0
 916 125 919 129 928 129 c 0
 931 129 940 129 940 119 c 0
 940 109 908 -11 774 -11 c 0
 658 -11 560 88 560 216 c 0
60 216 m 0
 60 340 151 448 276 448 c 0
 353 448 430 409 430 341 c 0
 430 311 410 294 384 294 c 0
 356 294 338 314 338 340 c 0
 338 353 343 383 384 386 c 1
 349 422 287 423 278 423 c 0
 225 423 142 381 142 218 c 0
 142 57 231 14 284 14 c 0
 321 14 385 26 414 119 c 0
 416 125 419 129 428 129 c 0
 431 129 440 129 440 119 c 0
 440 109 408 -11 274 -11 c 0
 158 -11 60 88 60 216 c 0
EndSplineSet
EndChar
StartChar: uF1DB7
Encoding: 990647 990647 36
Width: 1000
Flags: MW
LayerCount: 2
Fore
SplineSet
32 0 m 1
 32 31 l 1
 67 31 87 31 98 38 c 0
 108 44 110 55 110 76 c 2
 110 344 l 2
 110 393 102 400 32 400 c 1
 32 431 l 1
 172 442 l 1
 172 337 l 1
 200 399 247 442 320 442 c 0
 365 442 440 431 454 344 c 1
 471 382 514 442 598 442 c 0
 656 442 690 422 704 405 c 0
 735 369 734 338 734 252 c 2
 734 61 l 1
 735 31 760 31 812 31 c 1
 812 0 l 1
 778 1 726 3 700 3 c 0
 673 3 623 1 588 0 c 1
 588 31 l 1
 621 31 641 31 652 37 c 0
 663 43 666 53 666 76 c 2
 666 309 l 2
 666 366 655 420 592 420 c 0
 528 420 456 364 456 260 c 2
 456 76 l 2
 456 54 460 43 470 37 c 0
 481 31 500 31 534 31 c 1
 534 0 l 1
 500 1 448 3 422 3 c 0
 395 3 345 1 310 0 c 1
 310 31 l 1
 350 31 370 31 380 41 c 0
 386 47 388 58 388 76 c 2
 388 309 l 2
 388 366 377 420 314 420 c 0
 250 420 178 364 178 260 c 2
 178 76 l 2
 178 53 182 41 194 36 c 0
 205 31 224 31 256 31 c 1
 256 0 l 1
 222 1 170 3 144 3 c 0
 117 3 67 1 32 0 c 1
710 460 m 1
 710 495 l 2
 710 510 715 512 728 520 c 0
 843 594 899 620 899 677 c 0
 899 723 864 756 816 756 c 0
 790 756 771 748 755 738 c 1
 772 735 788 722 788 699 c 0
 788 677 771 660 750 660 c 0
 729 660 710 674 710 700 c 0
 710 713 713 725 720 735 c 0
 729 749 743 758 761 766 c 0
 781 774 804 779 830 779 c 0
 910 779 968 739 968 678 c 0
 968 607 885 585 832 558 c 1
 761 519 l 1
 856 519 l 2
 880 519 904 519 916 520 c 0
 927 521 933 522 937 534 c 0
 941 544 944 562 949 592 c 1
 968 592 l 1
 947 460 l 1
 710 460 l 1
EndSplineSet
EndChar
StartChar: uF1DBA
Encoding: 990650 990650 37
Width: 1000
Flags: MW
LayerCount: 2
Fore
SplineSet
854 53 m 0
 854 80 875 105 906 105 c 0
 933 105 958 84 958 53 c 0
 958 22 932 0 906 0 c 0
 875 0 854 26 854 53 c 0
592 222 m 0
 592 186 591 125 609 81 c 0
 628 35 659 14 689 14 c 0
 724 14 756 43 771 88 c 0
 786 132 786 186 786 222 c 0
 786 260 786 318 768 361 c 0
 750 404 720 426 689 426 c 0
 661 426 628 405 609 359 c 1
 592 315 592 261 592 222 c 0
533 214 m 0
 533 339 601 448 689 448 c 0
 774 448 845 342 845 214 c 0
 845 87 774 -11 689 -11 c 0
 607 -11 533 85 533 214 c 0
42 0 m 1
 42 31 l 1
 57 31 69 32 80 34 c 0
 102 37 116 44 126 52 c 0
 145 68 146 90 146 105 c 2
 146 627 l 2
 146 646 145 647 122 650 c 0
 107 651 87 652 72 652 c 2
 42 652 l 1
 42 683 l 1
 198 683 l 2
 211 683 213 682 219 670 c 2
 466 151 l 1
 466 578 l 2
 466 594 466 616 452 632 c 0
 446 640 436 646 421 649 c 0
 413 651 405 652 394 652 c 1
 394 683 l 1
 419 682 453 680 476 680 c 0
 499 680 534 682 559 683 c 1
 559 652 l 1
 548 652 539 651 531 649 c 0
 518 646 508 640 502 634 c 0
 487 618 486 594 486 578 c 2
 486 26 l 2
 486 7 486 0 476 0 c 0
 471 0 471 1 465 13 c 2
 178 613 l 2
 175 619 175 620 171 625 c 1
 171 105 l 2
 171 90 170 70 182 54 c 0
 189 45 199 37 217 33 c 0
 224 32 233 31 243 31 c 1
 243 0 l 1
 218 1 184 3 160 3 c 0
 127 3 77 1 42 0 c 1
EndSplineSet
EndChar
StartChar: uF1DBB
Encoding: 990651 990651 38
Width: 1000
Flags: MW
LayerCount: 2
Fore
SplineSet
900 53 m 0
 900 80 914 105 935 105 c 0
 953 105 970 84 970 53 c 0
 970 22 952 0 935 0 c 0
 914 0 900 26 900 53 c 0
533 0 m 1
 533 29 l 1
 534 29 l 1
 540 29 574 31 574 38 c 1
 574 647 l 1
 574 654 540 657 534 657 c 1
 533 657 l 1
 533 685 l 1
 547 682 582 682 598 682 c 0
 614 682 650 682 664 685 c 1
 664 657 l 1
 662 657 l 1
 656 657 624 654 624 647 c 1
 624 313 l 1
 760 635 l 1
 758 639 763 640 758 646 c 0
 751 652 743 657 736 657 c 1
 736 685 l 1
 749 682 776 682 790 682 c 0
 793 682 814 682 828 685 c 1
 828 657 l 1
 827 657 822 656 821 656 c 1
 807 654 791 646 784 630 c 2
 696 426 l 1
 796 54 l 2
 802 34 805 29 824 29 c 1
 825 29 833 29 834 29 c 1
 834 0 l 1
 819 3 796 3 781 3 c 0
 764 3 731 3 716 0 c 1
 716 29 l 1
 728 29 738 29 743 41 c 1
 742 48 741 52 740 59 c 2
 663 350 l 1
 624 256 l 1
 624 38 l 1
 624 31 656 29 662 29 c 1
 664 29 l 1
 664 0 l 1
 650 3 614 3 598 3 c 0
 582 3 547 3 533 0 c 1
398 53 m 0
 398 80 411 105 432 105 c 0
 450 105 467 84 467 53 c 0
 467 22 449 0 432 0 c 0
 411 0 398 26 398 53 c 0
30 0 m 1
 30 29 l 1
 32 29 l 1
 38 29 71 31 71 38 c 1
 71 647 l 1
 71 654 38 657 32 657 c 1
 30 657 l 1
 30 685 l 1
 44 682 80 682 96 682 c 0
 112 682 148 682 162 685 c 1
 162 657 l 1
 160 657 l 1
 154 657 121 654 121 647 c 1
 121 313 l 1
 258 635 l 1
 256 639 260 640 255 646 c 0
 248 652 241 657 234 657 c 1
 234 685 l 1
 247 682 274 682 288 682 c 0
 291 682 312 682 326 685 c 1
 326 657 l 1
 325 657 319 656 318 656 c 1
 304 654 288 646 281 630 c 2
 194 426 l 1
 294 54 l 2
 300 34 302 29 321 29 c 1
 322 29 331 29 332 29 c 1
 332 0 l 1
 317 3 293 3 278 3 c 0
 261 3 229 3 214 0 c 1
 214 29 l 1
 226 29 235 29 240 41 c 1
 239 48 238 52 237 59 c 2
 160 350 l 1
 121 256 l 1
 121 38 l 1
 121 31 154 29 160 29 c 1
 162 29 l 1
 162 0 l 1
 148 3 112 3 96 3 c 0
 80 3 44 3 30 0 c 1
EndSplineSet
EndChar
StartChar: uF1DBC
Encoding: 990652 990652 39
Width: 1000
VWidth: 500
Flags: MW
LayerCount: 2
Fore
SplineSet
684 0 m 1
 684 27 l 1
 691 27 l 1
 714 27 738 34 738 56 c 1
 738 629 l 1
 738 651 714 657 691 657 c 1
 684 657 l 1
 684 684 l 1
 703 681 747 681 768 681 c 0
 791 681 838 681 858 684 c 1
 858 657 l 1
 848 657 l 1
 819 657 791 648 791 628 c 1
 791 51 l 1
 791 31 791 27 806 27 c 1
 855 27 l 2
 946 27 954 175 959 264 c 1
 977 264 l 1
 961 0 l 1
 684 0 l 1
350 0 m 1
 350 32 l 1
 356 32 l 1
 378 32 399 39 399 61 c 1
 399 619 l 1
 399 641 378 648 356 648 c 1
 350 648 l 1
 350 680 l 1
 625 680 l 1
 639 449 l 1
 623 449 l 1
 616 581 603 648 530 648 c 2
 464 648 l 1
 451 648 451 644 451 624 c 1
 451 372 l 1
 486 372 l 2
 531 372 537 408 537 489 c 1
 553 489 l 1
 553 222 l 1
 537 222 l 1
 537 303 531 339 486 339 c 2
 451 339 l 1
 451 56 l 1
 451 36 451 32 464 32 c 1
 531 32 l 2
 614 32 626 116 637 264 c 1
 653 264 l 1
 632 0 l 1
 350 0 l 1
17 438 m 1
 26 675 l 1
 307 675 l 1
 316 438 l 1
 298 438 l 1
 293 561 288 647 227 647 c 1
 226 647 194 646 193 646 c 5
 192 645 191 643 191 639 c 5
 191 38 l 5
 191 31 247 29 256 29 c 1
 259 29 l 1
 259 0 l 1
 237 3 191 3 167 3 c 0
 143 3 97 3 75 0 c 1
 75 29 l 1
 78 29 l 1
 87 29 142 31 142 38 c 1
 142 639 l 1
 142 644 143 645 141 646 c 1
 140 646 108 647 107 647 c 1
 45 647 39 561 35 438 c 1
 17 438 l 1
EndSplineSet
EndChar
StartChar: uF1F54
Encoding: 991060 991060 40
Width: 1000
Flags: MW
LayerCount: 2
Fore
SplineSet
367 0 m 1
 367 31 l 1
 394 31 401 31 411 38 c 0
 420 44 422 55 422 76 c 2
 422 344 l 2
 422 393 422 400 367 400 c 1
 367 431 l 1
 482 442 l 1
 482 337 l 5
 493 399 536 442 593 442 c 0
 628 442 689 431 702 344 c 5
 708 382 745 442 811 442 c 0
 856 442 881 422 894 405 c 4
 923 369 924 338 924 252 c 6
 924 61 l 5
 925 31 937 31 978 31 c 1
 978 0 l 1
 951 1 916 3 892 3 c 4
 867 3 829 1 802 0 c 1
 802 31 l 1
 828 31 836 31 846 37 c 4
 856 43 859 53 859 76 c 6
 859 309 l 6
 859 366 854 420 805 420 c 0
 755 420 705 364 705 260 c 2
 705 76 l 2
 705 54 708 43 717 37 c 0
 727 31 734 31 761 31 c 1
 761 0 l 1
 734 1 697 3 673 3 c 0
 648 3 612 1 585 0 c 1
 585 31 l 1
 616 31 623 31 632 41 c 0
 638 47 640 58 640 76 c 2
 640 309 l 2
 640 366 637 420 588 420 c 0
 538 420 487 364 487 260 c 2
 487 76 l 2
 487 53 490 41 501 36 c 0
 511 31 518 31 543 31 c 1
 543 0 l 1
 516 1 479 3 455 3 c 0
 430 3 394 1 367 0 c 1
22 216 m 0
 22 340 94 448 192 448 c 0
 233 448 274 430 296 396 c 0
 306 381 311 362 311 341 c 0
 311 311 295 294 275 294 c 0
 253 294 235 314 235 340 c 0
 235 353 239 383 268 386 c 1
 243 422 199 423 193 423 c 0
 156 423 97 381 97 218 c 0
 97 57 160 14 197 14 c 0
 223 14 269 26 289 119 c 0
 290 125 299 129 306 129 c 0
 308 129 320 129 320 119 c 0
 320 109 295 -11 190 -11 c 0
 99 -11 22 88 22 216 c 0
710 460 m 5
 710 495 l 6
 710 510 715 512 728 520 c 4
 843 594 899 620 899 677 c 4
 899 723 864 756 816 756 c 4
 790 756 771 748 755 738 c 5
 772 735 788 722 788 699 c 4
 788 677 771 660 750 660 c 4
 729 660 710 674 710 700 c 4
 710 713 713 725 720 735 c 4
 729 749 743 758 761 766 c 4
 781 774 804 779 830 779 c 4
 910 779 968 739 968 678 c 4
 968 607 885 585 832 558 c 5
 761 519 l 5
 856 519 l 6
 880 519 904 519 916 520 c 4
 927 521 933 522 937 534 c 4
 941 544 944 562 949 592 c 5
 968 592 l 5
 947 460 l 5
 710 460 l 5
EndSplineSet
EndChar
StartChar: uF1F55
Encoding: 991061 991061 41
Width: 1000
Flags: MW
LayerCount: 2
Fore
SplineSet
524 0 m 1
 524 32 l 1
 560 32 l 1
 560 371 l 2
 560 410 556 410 524 410 c 1
 524 442 l 1
 613 450 l 1
 613 342 l 1
 630 405 660 450 705 450 c 0
 725 450 774 447 784 354 c 1
 798 400 824 450 872 450 c 0
 900 450 921 440 934 415 c 0
 947 392 952 356 952 306 c 2
 952 32 l 1
 989 32 l 1
 989 0 l 1
 974 1 943 3 923 3 c 0
 903 3 872 1 857 0 c 1
 857 32 l 1
 893 32 l 1
 893 317 l 2
 893 394 882 429 864 429 c 0
 832 429 786 365 786 256 c 2
 786 32 l 1
 822 32 l 1
 822 0 l 1
 807 1 776 3 756 3 c 0
 736 3 705 1 690 0 c 1
 690 32 l 1
 726 32 l 1
 726 317 l 2
 726 394 715 429 697 429 c 0
 665 429 619 365 619 256 c 2
 619 32 l 1
 655 32 l 1
 655 0 l 1
 640 1 609 3 589 3 c 0
 569 3 539 1 524 0 c 1
28 0 m 1
 28 31 l 1
 57 31 72 31 79 38 c 0
 85 44 86 55 86 76 c 2
 86 596 l 2
 86 645 84 652 28 652 c 1
 28 683 l 1
 152 694 l 1
 152 214 l 1
 293 336 l 2
 301 343 315 355 315 375 c 0
 315 388 305 399 286 400 c 1
 286 431 l 1
 300 430 342 428 378 428 c 0
 406 428 419 428 448 431 c 1
 448 400 l 1
 427 399 405 397 342 346 c 0
 332 338 261 278 261 274 c 0
 261 271 266 265 267 263 c 2
 394 84 l 2
 425 41 426 33 452 31 c 2
 458 31 464 31 471 31 c 1
 471 0 l 1
 442 2 413 3 384 3 c 0
 363 3 324 1 296 0 c 1
 296 31 l 1
 315 31 332 35 332 54 c 0
 332 61 323 78 314 92 c 0
 276 149 260 169 213 234 c 1
 149 179 l 1
 149 76 l 2
 149 56 151 45 159 39 c 4
 169 31 189 31 227 31 c 1
 227 0 l 1
 187 2 147 3 117 3 c 0
 88 3 61 1 28 0 c 1
710 460 m 5
 710 495 l 6
 710 510 715 512 728 520 c 4
 843 594 899 620 899 677 c 4
 899 723 864 756 816 756 c 4
 790 756 771 748 755 738 c 5
 772 735 788 722 788 699 c 4
 788 677 771 660 750 660 c 4
 729 660 710 674 710 700 c 4
 710 713 713 725 720 735 c 4
 729 749 743 758 761 766 c 4
 781 774 804 779 830 779 c 4
 910 779 968 739 968 678 c 4
 968 607 885 585 832 558 c 5
 761 519 l 5
 856 519 l 6
 880 519 904 519 916 520 c 4
 927 521 933 522 937 534 c 4
 941 544 944 562 949 592 c 5
 968 592 l 5
 947 460 l 5
 710 460 l 5
EndSplineSet
EndChar
StartChar: uF1F56
Encoding: 991062 991062 42
Width: 1000
Flags: MW
LayerCount: 2
Fore
SplineSet
367 0 m 1
 367 31 l 1
 394 31 401 31 411 38 c 0
 420 44 422 55 422 76 c 2
 422 344 l 2
 422 393 422 400 367 400 c 1
 367 431 l 1
 482 442 l 1
 482 337 l 5
 493 399 536 442 593 442 c 0
 628 442 689 431 702 344 c 5
 708 382 745 442 811 442 c 0
 856 442 881 422 894 405 c 4
 923 369 924 338 924 252 c 6
 924 61 l 5
 925 31 937 31 978 31 c 1
 978 0 l 1
 951 1 916 3 892 3 c 4
 867 3 829 1 802 0 c 1
 802 31 l 1
 828 31 836 31 846 37 c 4
 856 43 859 53 859 76 c 6
 859 309 l 6
 859 366 854 420 805 420 c 0
 755 420 705 364 705 260 c 2
 705 76 l 2
 705 54 708 43 717 37 c 0
 727 31 734 31 761 31 c 1
 761 0 l 1
 734 1 697 3 673 3 c 0
 648 3 612 1 585 0 c 1
 585 31 l 1
 616 31 623 31 632 41 c 0
 638 47 640 58 640 76 c 2
 640 309 l 2
 640 366 637 420 588 420 c 0
 538 420 487 364 487 260 c 2
 487 76 l 2
 487 53 490 41 501 36 c 0
 511 31 518 31 543 31 c 1
 543 0 l 1
 516 1 479 3 455 3 c 0
 430 3 394 1 367 0 c 1
22 216 m 0
 22 340 94 448 192 448 c 0
 233 448 274 430 296 396 c 0
 306 381 311 362 311 341 c 0
 311 311 295 294 275 294 c 0
 253 294 235 314 235 340 c 0
 235 353 239 383 268 386 c 1
 243 422 199 423 193 423 c 0
 156 423 97 381 97 218 c 0
 97 57 160 14 197 14 c 0
 223 14 269 26 289 119 c 0
 290 125 299 129 306 129 c 0
 308 129 320 129 320 119 c 0
 320 109 295 -11 190 -11 c 0
 99 -11 22 88 22 216 c 0
681 534 m 4xf2
 681 561 701 577 723 577 c 4
 745 577 765 560 765 535 c 4
 765 511 749 500 736 495 c 5
 743 493 764 484 807 484 c 4
 860 484 874 518 874 550 c 4xf2
 874 607 839 621 807 621 c 6
 791 621 l 6
 783 621 775 623 775 630 c 4
 775 634 777 636 781 637 c 4
 791 641 810 639 822 644 c 4
 845 654 861 684 861 718 c 4
 861 759 833 770 810 770 c 4
 790 770 751 761 729 715 c 5
 735 716 736 716 739 716 c 4
 760 716 778 700 778 678 c 4
 778 656 761 640 740 640 c 4
 726 640 702 648 702 680 c 4
 702 689 703 699 706 708 c 4
 718 750 756 789 814 789 c 4
 874 789 930 760 930 716 c 4xec
 930 682 907 652 853 632 c 5
 892 625 951 600 951 552 c 4
 951 511 902 462 811 462 c 4
 702 462 681 506 681 534 c 4xf2
EndSplineSet
EndChar
StartChar: uF1F57
Encoding: 991063 991063 43
Width: 1000
Flags: MW
LayerCount: 2
Fore
SplineSet
32 0 m 1
 32 31 l 1
 67 31 87 31 98 38 c 0
 108 44 110 55 110 76 c 2
 110 344 l 2
 110 393 102 400 32 400 c 1
 32 431 l 1
 172 442 l 1
 172 337 l 1
 200 399 247 442 320 442 c 0
 365 442 440 431 454 344 c 1
 471 382 514 442 598 442 c 0
 656 442 690 422 704 405 c 0
 735 369 734 338 734 252 c 2
 734 61 l 1
 735 31 760 31 812 31 c 1
 812 0 l 1
 778 1 726 3 700 3 c 0
 673 3 623 1 588 0 c 1
 588 31 l 1
 621 31 641 31 652 37 c 0
 663 43 666 53 666 76 c 2
 666 309 l 2
 666 366 655 420 592 420 c 0
 528 420 456 364 456 260 c 2
 456 76 l 2
 456 54 460 43 470 37 c 0
 481 31 500 31 534 31 c 1
 534 0 l 1
 500 1 448 3 422 3 c 0
 395 3 345 1 310 0 c 1
 310 31 l 1
 350 31 370 31 380 41 c 0
 386 47 388 58 388 76 c 2
 388 309 l 2
 388 366 377 420 314 420 c 0
 250 420 178 364 178 260 c 2
 178 76 l 2
 178 53 182 41 194 36 c 0
 205 31 224 31 256 31 c 1
 256 0 l 1
 222 1 170 3 144 3 c 0
 117 3 67 1 32 0 c 1
681 534 m 4xf2
 681 561 701 577 723 577 c 4
 745 577 765 560 765 535 c 4
 765 511 749 500 736 495 c 5
 743 493 764 484 807 484 c 4
 860 484 874 518 874 550 c 4xf2
 874 607 839 621 807 621 c 6
 791 621 l 6
 783 621 775 623 775 630 c 4
 775 634 777 636 781 637 c 4
 791 641 810 639 822 644 c 4
 845 654 861 684 861 718 c 4
 861 759 833 770 810 770 c 4
 790 770 751 761 729 715 c 5
 735 716 736 716 739 716 c 4
 760 716 778 700 778 678 c 4
 778 656 761 640 740 640 c 4
 726 640 702 648 702 680 c 4
 702 689 703 699 706 708 c 4
 718 750 756 789 814 789 c 4
 874 789 930 760 930 716 c 4xec
 930 682 907 652 853 632 c 5
 892 625 951 600 951 552 c 4
 951 511 902 462 811 462 c 4
 702 462 681 506 681 534 c 4xf2
EndSplineSet
EndChar
StartChar: uF1F58
Encoding: 991064 991064 44
Width: 1000
Flags: MW
LayerCount: 2
Fore
SplineSet
681 79 m 0
 681 94 686 114 687 118 c 2
 812 618 l 2
 812 619 815 632 815 635 c 0
 815 645 813 652 765 652 c 0
 751 652 741 652 741 663 c 0
 741 682 752 683 764 684 c 2
 863 692 l 2
 866 693 876 694 879 694 c 0
 887 694 893 691 893 682 c 0
 893 680 891 672 890 669 c 2
 747 98 l 2
 741 74 741 59 741 52 c 0
 741 38 741 11 767 11 c 0
 795 11 814 53 831 123 c 1
 838 148 l 1
 841 153 847 153 852 153 c 0
 859 153 867 153 867 143 c 0
 867 143 867 141 866 138 c 0
 863 122 850 71 836 41 c 0
 823 16 803 -11 765 -11 c 0
 717 -11 681 26 681 79 c 0
107 215 m 0
 107 344 212 442 330 442 c 0
 384 442 427 416 456 380 c 1
 456 596 l 2
 456 645 448 652 378 652 c 1
 378 683 l 1
 522 694 l 1
 522 87 l 2
 522 38 530 31 600 31 c 1
 600 0 l 1
 453 -11 l 1
 453 55 l 1
 428 23 383 -11 319 -11 c 0
 205 -11 107 88 107 215 c 0
190 214 m 0
 190 173 193 116 219 75 c 0
 243 37 279 11 324 11 c 0
 367 11 412 33 442 81 c 0
 453 98 453 100 453 118 c 2
 453 323 l 2
 453 341 453 343 442 360 c 0
 411 405 369 420 334 420 c 0
 280 420 242 387 221 356 c 0
 192 311 190 251 190 214 c 0
EndSplineSet
EndChar
StartChar: uF1F59
Encoding: 991065 991065 45
Width: 1000
Flags: MW
LayerCount: 2
Fore
SplineSet
394 79 m 0
 394 94 399 114 400 118 c 2
 525 618 l 2
 525 619 528 632 528 635 c 0
 528 645 526 652 478 652 c 0
 464 652 454 652 454 663 c 0
 454 682 465 683 477 684 c 2
 576 692 l 2
 579 693 589 694 592 694 c 0
 600 694 606 691 606 682 c 0
 606 680 604 672 603 669 c 2
 460 98 l 2
 454 74 454 59 454 52 c 0
 454 38 454 11 480 11 c 0
 508 11 527 53 544 123 c 1
 551 148 l 1
 554 153 560 153 565 153 c 0
 572 153 580 153 580 143 c 0
 580 143 580 141 579 138 c 4
 576 122 563 71 549 41 c 0
 536 16 516 -11 478 -11 c 0
 430 -11 394 26 394 79 c 0
EndSplineSet
EndChar
StartChar: uF1F5A
Encoding: 991066 991066 46
Width: 1000
Flags: MW
LayerCount: 2
Fore
SplineSet
644 79 m 0
 644 94 649 114 650 118 c 2
 775 618 l 2
 775 619 778 632 778 635 c 0
 778 645 776 652 728 652 c 0
 714 652 704 652 704 663 c 0
 704 682 715 683 727 684 c 2
 826 692 l 2
 829 693 839 694 842 694 c 0
 850 694 856 691 856 682 c 0
 856 680 854 672 853 669 c 2
 710 98 l 2
 704 74 704 59 704 52 c 0
 704 38 704 11 730 11 c 0
 758 11 777 53 794 123 c 1
 801 148 l 1
 804 153 810 153 815 153 c 0
 822 153 830 153 830 143 c 0
 830 143 830 141 829 138 c 4
 826 122 813 71 799 41 c 0
 786 16 766 -11 728 -11 c 0
 680 -11 644 26 644 79 c 0
28 0 m 1
 28 31 l 1
 57 31 72 31 79 38 c 0
 85 44 86 55 86 76 c 2
 86 596 l 2
 86 645 84 652 28 652 c 1
 28 683 l 1
 152 694 l 1
 152 214 l 1
 293 336 l 2
 301 343 315 355 315 375 c 0
 315 388 305 399 286 400 c 1
 286 431 l 1
 300 430 342 428 378 428 c 0
 406 428 419 428 448 431 c 1
 448 400 l 1
 427 399 405 397 342 346 c 0
 332 338 261 278 261 274 c 0
 261 271 266 265 267 263 c 2
 394 84 l 2
 425 41 426 33 452 31 c 2
 458 31 464 31 471 31 c 1
 471 0 l 1
 442 2 413 3 384 3 c 0
 363 3 324 1 296 0 c 1
 296 31 l 1
 315 31 332 35 332 54 c 0
 332 61 323 78 314 92 c 0
 276 149 260 169 213 234 c 1
 149 179 l 1
 149 76 l 2
 149 56 151 45 159 39 c 4
 169 31 189 31 227 31 c 1
 227 0 l 1
 187 2 147 3 117 3 c 0
 88 3 61 1 28 0 c 1
EndSplineSet
EndChar
StartChar: uF1F5B
Encoding: 991067 991067 47
Width: 1000
Flags: MW
LayerCount: 2
Fore
SplineSet
586 13 m 2
 586 145 l 2
 586 163 587 170 600 170 c 0
 610 170 611 166 614 153 c 0
 633 68 668 11 752 11 c 0
 830 11 866 51 866 102 c 0
 866 174 784 190 762 194 c 0
 690 208 662 214 630 240 c 0
 603 262 586 290 586 325 c 0
 586 381 624 448 746 448 c 0
 761 448 802 448 840 420 c 1
 844 423 855 432 858 436 c 0
 871 448 873 448 878 448 c 0
 889 448 888 441 888 424 c 2
 888 323 l 2
 888 304 889 299 876 299 c 0
 874 299 865 299 864 308 c 0
 862 339 856 429 746 429 c 0
 660 429 634 388 634 353 c 0
 634 295 702 282 758 271 c 0
 800 263 839 255 872 223 c 0
 884 211 914 181 914 128 c 0
 914 56 867 -11 752 -11 c 0
 731 -11 686 -10 642 32 c 1
 624 13 624 11 622 9 c 0
 603 -10 603 -11 598 -11 c 0
 587 -11 586 -4 586 13 c 2
24 0 m 1
 24 32 l 1
 60 32 l 1
 60 371 l 2
 60 410 56 410 24 410 c 1
 24 442 l 1
 113 450 l 1
 113 342 l 1
 130 405 160 450 205 450 c 0
 225 450 274 447 284 354 c 1
 298 400 324 450 372 450 c 0
 400 450 421 440 434 415 c 0
 447 392 452 356 452 306 c 2
 452 32 l 1
 489 32 l 1
 489 0 l 1
 474 1 443 3 423 3 c 0
 403 3 372 1 357 0 c 1
 357 32 l 1
 393 32 l 1
 393 317 l 2
 393 394 382 429 364 429 c 0
 332 429 286 365 286 256 c 2
 286 32 l 1
 322 32 l 1
 322 0 l 1
 307 1 276 3 256 3 c 0
 236 3 205 1 190 0 c 1
 190 32 l 1
 226 32 l 1
 226 317 l 2
 226 394 215 429 197 429 c 0
 165 429 119 365 119 256 c 2
 119 32 l 1
 155 32 l 1
 155 0 l 1
 140 1 109 3 89 3 c 0
 69 3 39 1 24 0 c 1
EndSplineSet
EndChar
StartChar: uF1F5C
Encoding: 991068 991068 48
Width: 1000
Flags: MW
LayerCount: 2
Fore
SplineSet
615 13 m 2
 615 145 l 2
 615 163 615 170 628 170 c 0
 638 170 639 166 642 153 c 0
 661 68 697 11 781 11 c 0
 859 11 894 51 894 102 c 0
 894 174 812 190 790 194 c 0
 718 208 690 214 658 240 c 0
 631 262 615 290 615 325 c 0
 615 381 653 448 775 448 c 0
 790 448 831 448 869 420 c 1
 873 423 883 432 886 436 c 0
 899 448 901 448 906 448 c 0
 917 448 917 441 917 424 c 2
 917 323 l 2
 917 304 917 299 904 299 c 0
 902 299 893 299 892 308 c 0
 891 327 889 369 861 398 c 4
 844 416 817 429 775 429 c 0
 689 429 663 388 663 353 c 0
 663 295 730 282 786 271 c 0
 828 263 867 255 900 223 c 0
 912 211 942 181 942 128 c 0
 942 56 896 -11 781 -11 c 0
 760 -11 715 -10 671 32 c 1
 653 13 653 11 651 9 c 0
 632 -10 631 -11 626 -11 c 0
 615 -11 615 -4 615 13 c 2
58 -164 m 1
 68 -164 l 2
 101 -164 118 -162 127 -154 c 0
 136 -146 136 -133 136 -113 c 2
 136 340 l 2
 136 396 120 397 72 400 c 1
 58 400 l 1
 58 430 l 1
 206 441 l 1
 206 118 l 2
 206 104 206 90 208 77 c 0
 213 40 230 12 293 12 c 0
 341 12 414 48 414 174 c 0
 414 182 413 190 413 199 c 2
 413 350 l 1
 412 393 396 400 341 400 c 2
 336 400 l 1
 336 430 l 1
 483 441 l 1
 483 83 l 2
 483 39 499 31 556 31 c 2
 561 31 l 1
 561 0 l 1
 416 -11 l 1
 416 32 l 1
 416 77 l 1
 387 12 342 -6 302 -10 c 0
 297 -10 292 -11 287 -11 c 0
 246 -11 221 -3 206 2 c 1
 206 -119 l 2
 206 -138 207 -149 217 -156 c 4
 227 -163 245 -164 278 -164 c 2
 283 -164 l 1
 283 -195 l 1
 245 -193 206 -192 167 -192 c 2
 163 -192 l 2
 149 -192 116 -192 58 -195 c 1
 58 -164 l 1
EndSplineSet
EndChar
StartChar: uF1F5D
Encoding: 991069 991069 49
Width: 1000
Flags: MW
LayerCount: 2
Fore
SplineSet
586 13 m 2
 586 145 l 2
 586 163 587 170 600 170 c 0
 610 170 611 166 614 153 c 0
 633 68 668 11 752 11 c 0
 830 11 866 51 866 102 c 0
 866 174 784 190 762 194 c 0
 690 208 662 214 630 240 c 0
 603 262 586 290 586 325 c 0
 586 381 624 448 746 448 c 0
 761 448 802 448 840 420 c 1
 844 423 855 432 858 436 c 0
 871 448 873 448 878 448 c 0
 889 448 888 441 888 424 c 2
 888 323 l 2
 888 304 889 299 876 299 c 0
 874 299 865 299 864 308 c 0
 862 339 856 429 746 429 c 0
 660 429 634 388 634 353 c 0
 634 295 702 282 758 271 c 0
 800 263 839 255 872 223 c 0
 884 211 914 181 914 128 c 0
 914 56 867 -11 752 -11 c 0
 731 -11 686 -10 642 32 c 1
 624 13 624 11 622 9 c 0
 603 -10 603 -11 598 -11 c 0
 587 -11 586 -4 586 13 c 2
28 0 m 1
 28 31 l 1
 57 31 72 31 79 39 c 0
 85 45 86 57 86 76 c 2
 86 344 l 2
 86 393 85 400 28 400 c 1
 28 431 l 1
 150 442 l 1
 150 337 l 1
 164 394 205 442 278 442 c 0
 336 442 368 422 382 405 c 0
 413 369 414 338 414 252 c 2
 414 61 l 1
 414 48 416 40 421 36 c 4
 428 31 442 31 472 31 c 1
 472 0 l 1
 438 1 406 3 380 3 c 0
 353 3 321 1 286 0 c 1
 286 31 l 1
 313 31 328 31 336 38 c 0
 342 44 344 56 344 76 c 2
 344 309 l 2
 344 366 333 420 270 420 c 0
 206 420 156 364 156 260 c 2
 156 76 l 2
 156 58 158 46 163 40 c 0
 171 31 186 31 214 31 c 1
 214 0 l 1
 180 1 148 3 122 3 c 0
 95 3 63 1 28 0 c 1
EndSplineSet
EndChar
StartChar: uF1F5E
Encoding: 991070 991070 50
Width: 1000
Flags: MW
LayerCount: 2
Fore
SplineSet
616 13 m 2
 616 145 l 2
 616 163 616 170 629 170 c 0
 639 170 640 166 643 153 c 0
 662 68 698 11 782 11 c 0
 860 11 895 51 895 102 c 0
 895 174 813 190 791 194 c 0
 719 208 691 214 659 240 c 0
 632 262 616 290 616 325 c 0
 616 381 654 448 776 448 c 0
 791 448 832 448 870 420 c 1
 874 423 884 432 887 436 c 0
 900 448 902 448 907 448 c 0
 918 448 918 441 918 424 c 2
 918 323 l 2
 918 304 918 299 905 299 c 0
 903 299 894 299 893 308 c 0
 892 327 890 369 862 398 c 4
 845 416 818 429 776 429 c 0
 690 429 664 388 664 353 c 0
 664 295 731 282 787 271 c 0
 829 263 868 255 901 223 c 0
 913 211 943 181 943 128 c 0
 943 56 897 -11 782 -11 c 0
 761 -11 716 -10 672 32 c 1
 654 13 654 11 652 9 c 0
 633 -10 632 -11 627 -11 c 0
 616 -11 616 -4 616 13 c 2
57 -163 m 1
 97 -163 117 -163 127 -153 c 0
 133 -147 135 -136 135 -118 c 2
 135 350 l 2
 135 394 128 400 57 400 c 1
 57 431 l 1
 201 442 l 1
 201 376 l 1
 221 398 263 442 341 442 c 0
 453 442 550 343 550 216 c 0
 550 87 446 -11 327 -11 c 0
 251 -11 209 43 204 59 c 1
 204 50 l 1
 204 -118 l 2
 204 -138 206 -150 215 -156 c 4
 226 -163 245 -163 282 -163 c 1
 282 -194 l 1
 247 -193 196 -191 169 -191 c 0
 143 -191 91 -193 57 -194 c 1
 57 -163 l 1
204 114 m 2
 204 94 204 93 218 72 c 0
 245 31 283 11 323 11 c 0
 397 11 467 95 467 216 c 0
 467 329 406 417 333 417 c 0
 282 417 233 388 204 337 c 1
 204 337 l 1
 204 114 l 2
EndSplineSet
EndChar
StartChar: uF1F5F
Encoding: 991071 991071 51
Width: 1000
Flags: MW
LayerCount: 2
Fore
SplineSet
524 0 m 1
 524 29 l 1
 527 29 l 1
 537 29 591 31 591 38 c 1
 591 647 l 1
 591 654 537 657 527 657 c 1
 524 657 l 1
 524 685 l 1
 789 685 l 2
 886 685 941 605 941 514 c 0
 941 438 900 377 833 358 c 1
 907 348 961 279 961 185 c 0
 961 88 907 0 807 0 c 2
 524 0 l 1
668 37 m 1
 668 30 668 29 674 29 c 1
 782 29 l 2
 867 29 874 162 874 186 c 0
 874 203 872 260 850 300 c 0
 830 338 803 348 789 348 c 2
 668 348 l 1
 668 37 l 1
668 366 m 1
 765 366 l 2
 828 366 858 440 858 514 c 0
 858 561 844 657 781 657 c 2
 674 657 l 1
 668 657 668 656 668 649 c 1
 668 366 l 1
22 0 m 1
 22 29 l 1
 24 29 l 1
 33 29 83 31 83 38 c 1
 83 647 l 1
 83 654 33 657 24 657 c 1
 22 657 l 1
 22 685 l 1
 43 682 96 682 120 682 c 0
 144 682 198 682 219 685 c 1
 219 657 l 1
 216 657 l 1
 207 657 158 654 158 647 c 1
 158 313 l 1
 363 635 l 1
 360 639 366 640 359 646 c 0
 348 652 338 657 327 657 c 1
 327 685 l 1
 347 682 387 682 408 682 c 0
 413 682 444 682 465 685 c 1
 465 657 l 1
 464 657 455 656 454 656 c 1
 433 654 408 646 398 630 c 2
 267 426 l 1
 417 54 l 2
 426 34 429 29 458 29 c 1
 459 29 473 29 474 29 c 1
 474 0 l 1
 452 3 416 3 394 3 c 0
 369 3 320 3 297 0 c 1
 297 29 l 1
 315 29 329 29 337 41 c 1
 336 48 334 52 332 59 c 2
 217 350 l 1
 158 256 l 1
 158 38 l 1
 158 31 207 29 216 29 c 1
 219 29 l 1
 219 0 l 1
 198 3 144 3 120 3 c 0
 96 3 43 3 22 0 c 1
EndSplineSet
EndChar
StartChar: uF1F60
Encoding: 991072 991072 52
Width: 1000
Flags: MW
LayerCount: 2
Fore
SplineSet
524 0 m 1
 524 29 l 1
 527 29 l 1
 537 29 591 31 591 38 c 1
 591 647 l 1
 591 654 537 657 527 657 c 1
 524 657 l 1
 524 685 l 1
 789 685 l 2
 886 685 941 605 941 514 c 0
 941 438 900 377 833 358 c 1
 907 348 961 279 961 185 c 0
 961 88 907 0 807 0 c 2
 524 0 l 1
668 37 m 1
 668 30 668 29 674 29 c 1
 782 29 l 2
 867 29 874 162 874 186 c 0
 874 203 872 260 850 300 c 0
 830 338 803 348 789 348 c 2
 668 348 l 1
 668 37 l 1
668 366 m 1
 765 366 l 2
 828 366 858 440 858 514 c 0
 858 561 844 657 781 657 c 2
 674 657 l 1
 668 657 668 656 668 649 c 1
 668 366 l 1
18 0 m 1
 18 32 l 1
 30 32 l 2
 43 32 44 32 55 35 c 0
 68 38 68 39 68 61 c 2
 68 654 l 1
 18 654 l 1
 18 686 l 1
 120 686 l 2
 130 686 150 686 155 661 c 2
 255 182 l 1
 346 661 l 2
 350 686 356 686 366 686 c 2
 482 686 l 1
 482 654 l 1
 438 654 l 1
 438 32 l 1
 482 32 l 1
 482 0 l 1
 465 3 423 3 404 3 c 0
 385 3 343 3 326 0 c 1
 326 32 l 1
 365 32 l 1
 365 654 l 1
 365 654 l 1
 247 24 l 2
 245 15 241 0 232 0 c 0
 227 0 221 5 217 25 c 2
 93 641 l 1
 92 641 l 1
 92 61 l 2
 92 39 93 38 106 35 c 0
 114 33 122 32 130 32 c 2
 142 32 l 1
 142 0 l 1
 123 3 99 3 80 3 c 0
 62 3 35 3 18 0 c 1
EndSplineSet
EndChar
StartChar: uF1F61
Encoding: 991073 991073 53
Width: 1000
Flags: MW
LayerCount: 2
Fore
SplineSet
524 0 m 1
 524 29 l 1
 527 29 l 1
 537 29 591 31 591 38 c 1
 591 647 l 1
 591 654 537 657 527 657 c 1
 524 657 l 1
 524 685 l 1
 789 685 l 2
 886 685 941 605 941 514 c 0
 941 438 900 377 833 358 c 1
 907 348 961 279 961 185 c 0
 961 88 907 0 807 0 c 2
 524 0 l 1
668 37 m 1
 668 30 668 29 674 29 c 1
 782 29 l 2
 867 29 874 162 874 186 c 0
 874 203 872 260 850 300 c 0
 830 338 803 348 789 348 c 2
 668 348 l 1
 668 37 l 1
668 366 m 1
 765 366 l 2
 828 366 858 440 858 514 c 0
 858 561 844 657 781 657 c 2
 674 657 l 1
 668 657 668 656 668 649 c 1
 668 366 l 1
35 343 m 0
 35 550 125 699 258 699 c 0
 293 699 331 680 368 627 c 1
 404 689 l 2
 409 697 409 699 414 699 c 0
 423 699 424 690 424 671 c 2
 424 452 l 2
 424 427 424 425 410 425 c 0
 398 425 398 427 396 445 c 0
 384 576 330 670 269 670 c 0
 221 670 176 623 151 568 c 1
 129 519 117 457 117 344 c 0
 117 250 125 179 149 125 c 0
 179 57 229 16 273 16 c 0
 290 16 313 37 329 59 c 0
 348 81 349 108 349 128 c 2
 349 237 l 1
 349 244 283 247 273 247 c 1
 269 247 l 1
 269 275 l 1
 298 272 350 272 381 272 c 0
 402 272 448 272 468 275 c 1
 468 247 l 1
 461 247 424 246 424 238 c 1
 424 27 l 2
 424 12 423 0 416 0 c 0
 412 0 381 29 365 55 c 1
 338 -6 282 -13 259 -13 c 0
 120 -13 35 143 35 343 c 0
EndSplineSet
EndChar
StartChar: uF1F62
Encoding: 991074 991074 54
Width: 1000
Flags: MW
LayerCount: 2
Fore
SplineSet
52 0 m 1xbc
 52 31 l 1
 76 31 l 2
 113 31 133 33 144 40 c 4
 155 47 156 60 156 78 c 2
 156 605 l 2
 156 625 155 637 142 644 c 0
 131 650 111 652 76 652 c 2
 52 652 l 1
 52 683 l 1
 87 680 162 680 200 680 c 0
 238 680 313 680 348 683 c 1
 348 652 l 1
 324 652 l 2
 291 652 271 650 260 645 c 0
 245 638 244 625 244 605 c 2
 244 371 l 1
 512 371 l 1
 512 605 l 2
 512 623 511 636 500 643 c 0
 489 650 469 652 432 652 c 2
 408 652 l 1
 408 683 l 1
 712 683 l 2
 849 683 948 595 948 497 c 0
 948 397 840 316 720 316 c 2
 600 316 l 1
 600 78 l 2
 600 57 601 44 618 37 c 0
 630 32 649 31 680 31 c 2
 704 31 l 1
 704 0 l 1xbc
 669 3 594 3 556 3 c 0x7c
 518 3 443 3 408 0 c 1xbc
 408 31 l 1
 432 31 l 2
 462 31 480 33 492 37 c 0
 511 43 512 56 512 78 c 2
 512 340 l 1
 244 340 l 1
 244 78 l 2
 244 58 245 46 258 39 c 0
 269 33 289 31 324 31 c 2
 348 31 l 1
 348 0 l 1xbc
 313 3 238 3 200 3 c 0x7c
 162 3 87 3 52 0 c 1xbc
598 342 m 1
 686 342 l 2
 845 342 844 450 844 497 c 0
 844 546 845 652 686 652 c 2
 646 652 l 2
 599 652 598 645 598 612 c 2
 598 342 l 1
EndSplineSet
EndChar
StartChar: uF1F63
Encoding: 991075 991075 55
Width: 1000
Flags: MW
LayerCount: 2
Fore
SplineSet
628 14 m 0
 628 19 628 21 636 32 c 2
 895 409 l 1
 789 409 l 2
 687 409 670 372 664 270 c 1
 641 270 l 1
 651 431 l 1
 948 431 l 2
 965 431 972 431 972 418 c 0
 972 414 971 412 963 401 c 2
 706 25 l 1
 815 25 l 2
 923 25 942 69 950 187 c 1
 974 187 l 1
 958 0 l 1
 652 0 l 2
 634 0 628 0 628 14 c 0
26 0 m 1
 26 31 l 1
 46 31 l 2
 77 31 93 33 102 40 c 0
 111 47 112 59 112 78 c 2
 112 605 l 2
 112 625 112 637 101 644 c 0
 92 650 75 652 46 652 c 2
 26 652 l 1
 26 683 l 1
 55 680 118 680 150 680 c 0
 182 680 244 680 273 683 c 1
 273 652 l 1
 253 652 l 2
 219 652 202 649 194 641 c 0
 186 634 187 622 187 605 c 2
 187 371 l 1
 436 371 l 1
 436 605 l 2
 436 626 436 638 423 645 c 0
 414 650 398 652 370 652 c 2
 350 652 l 1
 350 683 l 1
 379 680 442 680 474 680 c 0
 506 680 568 680 597 683 c 1
 597 652 l 1
 576 652 l 2
 544 652 528 649 520 642 c 0
 512 635 511 623 511 605 c 2
 511 78 l 2
 511 61 510 49 518 42 c 0
 526 34 542 31 576 31 c 2
 597 31 l 1
 597 0 l 1
 568 3 505 3 473 3 c 0
 441 3 379 3 350 0 c 1
 350 31 l 1
 370 31 l 2
 403 31 420 33 428 41 c 0
 436 48 436 60 436 78 c 2
 436 340 l 1
 187 340 l 1
 187 78 l 2
 187 59 187 46 197 39 c 0
 206 33 223 31 253 31 c 2
 273 31 l 1
 273 0 l 1
 244 3 181 3 149 3 c 0
 117 3 55 3 26 0 c 1
EndSplineSet
EndChar
StartChar: uF1F64
Encoding: 991076 991076 56
Width: 1000
Flags: MW
LayerCount: 2
Fore
SplineSet
514 652 m 1
 514 683 l 1
 638 694 l 1
 638 377 l 1
 654 395 676 442 754 442 c 0
 868 442 966 343 966 216 c 0
 966 87 863 -11 744 -11 c 0
 670 -11 647 39 632 62 c 1
 605 15 597 1 596 0 c 1
 572 0 l 1
 572 596 l 2
 572 645 564 652 514 652 c 1
640 114 m 2
 640 96 640 93 654 72 c 0
 678 35 695 11 740 11 c 0
 794 11 831 44 852 75 c 0
 881 120 884 180 884 217 c 0
 884 258 880 315 854 356 c 0
 830 394 795 420 750 420 c 0
 726 420 691 412 652 356 c 0
 641 340 640 339 640 320 c 2
 640 114 l 2
24 0 m 1
 24 32 l 1
 60 32 l 1
 60 371 l 2
 60 410 56 410 24 410 c 1
 24 442 l 1
 113 450 l 1
 113 342 l 1
 130 405 160 450 205 450 c 0
 225 450 274 447 284 354 c 1
 298 400 324 450 372 450 c 0
 400 450 421 440 434 415 c 0
 447 392 452 356 452 306 c 2
 452 32 l 1
 489 32 l 1
 489 0 l 1
 474 1 443 3 423 3 c 0
 403 3 372 1 357 0 c 1
 357 32 l 1
 393 32 l 1
 393 317 l 2
 393 394 382 429 364 429 c 0
 332 429 286 365 286 256 c 2
 286 32 l 1
 322 32 l 1
 322 0 l 1
 307 1 276 3 256 3 c 0
 236 3 205 1 190 0 c 1
 190 32 l 1
 226 32 l 1
 226 317 l 2
 226 394 215 429 197 429 c 0
 165 429 119 365 119 256 c 2
 119 32 l 1
 155 32 l 1
 155 0 l 1
 140 1 109 3 89 3 c 0
 69 3 39 1 24 0 c 1
EndSplineSet
EndChar
StartChar: uF1F65
Encoding: 991077 991077 57
Width: 1000
Flags: MW
LayerCount: 2
Fore
SplineSet
776 79 m 0
 776 94 781 114 782 118 c 2
 900 618 l 2
 900 619 903 632 903 635 c 0
 903 645 902 652 856 652 c 0
 843 652 833 652 833 663 c 0
 833 682 844 683 855 684 c 2
 949 692 l 2
 952 693 961 694 964 694 c 0
 972 694 977 691 977 682 c 0
 977 680 976 672 975 669 c 2
 839 98 l 2
 833 74 833 59 833 52 c 0
 833 38 833 11 858 11 c 0
 885 11 902 53 918 123 c 1
 925 148 l 1
 928 153 933 153 938 153 c 0
 945 153 953 153 953 143 c 0
 953 143 953 141 952 138 c 0
 949 122 936 71 923 41 c 0
 911 16 892 -11 856 -11 c 0
 810 -11 776 26 776 79 c 0
23 0 m 1
 23 31 l 1
 56 31 75 31 85 38 c 0
 95 44 97 55 97 76 c 2
 97 344 l 2
 97 393 89 400 23 400 c 1
 23 431 l 1
 157 442 l 1
 157 337 l 1
 184 399 228 442 297 442 c 0
 340 442 411 431 424 344 c 1
 440 382 481 442 561 442 c 0
 616 442 648 422 661 405 c 0
 690 369 690 338 690 252 c 2
 690 61 l 1
 691 31 716 31 765 31 c 1
 765 0 l 1
 733 1 683 3 658 3 c 0
 632 3 584 1 551 0 c 1
 551 31 l 1
 582 31 602 31 612 37 c 0
 622 43 625 53 625 76 c 2
 625 309 l 2
 625 366 615 420 555 420 c 0
 494 420 426 364 426 260 c 2
 426 76 l 2
 426 54 429 43 439 37 c 0
 449 31 468 31 500 31 c 1
 500 0 l 1
 468 1 419 3 394 3 c 0
 368 3 320 1 287 0 c 1
 287 31 l 1
 325 31 343 31 353 41 c 0
 359 47 361 58 361 76 c 2
 361 309 l 2
 361 366 351 420 291 420 c 0
 230 420 162 364 162 260 c 2
 162 76 l 2
 162 53 166 41 177 36 c 0
 187 31 206 31 236 31 c 1
 236 0 l 1
 204 1 155 3 130 3 c 0
 104 3 56 1 23 0 c 1
EndSplineSet
EndChar
StartChar: uF1F75
Encoding: 991093 991093 58
Width: 1000
Flags: MW
LayerCount: 2
Fore
SplineSet
871 53 m 0
 871 80 889 105 915 105 c 0
 938 105 959 84 959 53 c 0
 959 22 937 0 915 0 c 0
 889 0 871 26 871 53 c 0
466 0 m 1
 466 29 l 1
 468 29 l 1
 476 29 518 31 518 38 c 1
 518 647 l 1
 518 654 476 657 468 657 c 1
 466 657 l 1
 466 685 l 1
 484 682 529 682 549 682 c 0
 569 682 615 682 633 685 c 1
 633 657 l 1
 631 657 l 1
 623 657 582 654 582 647 c 1
 582 313 l 1
 756 635 l 1
 753 639 758 640 752 646 c 0
 743 652 734 657 725 657 c 1
 725 685 l 1
 742 682 776 682 794 682 c 0
 798 682 825 682 843 685 c 1
 843 657 l 1
 842 657 834 656 833 656 c 1
 815 654 794 646 786 630 c 2
 674 426 l 1
 802 54 l 2
 810 34 812 29 837 29 c 1
 838 29 849 29 850 29 c 1
 850 0 l 1
 831 3 801 3 782 3 c 0
 761 3 720 3 700 0 c 1
 700 29 l 1
 715 29 727 29 734 41 c 1
 733 48 732 52 730 59 c 2
 632 350 l 1
 582 256 l 1
 582 38 l 1
 582 31 623 29 631 29 c 1
 633 29 l 1
 633 0 l 1
 615 3 569 3 549 3 c 0
 529 3 484 3 466 0 c 1
41 0 m 1
 41 29 l 1
 43 29 l 1
 51 29 93 31 93 38 c 1
 93 647 l 1
 93 654 51 657 43 657 c 1
 41 657 l 1
 41 685 l 1
 59 682 104 682 124 682 c 0
 144 682 190 682 208 685 c 1
 208 657 l 1
 206 657 l 1
 198 657 157 654 157 647 c 1
 157 313 l 1
 331 635 l 1
 328 639 333 640 327 646 c 0
 318 652 309 657 300 657 c 1
 300 685 l 1
 317 682 351 682 369 682 c 0
 373 682 400 682 418 685 c 1
 418 657 l 1
 417 657 409 656 408 656 c 1
 390 654 369 646 361 630 c 2
 249 426 l 1
 377 54 l 2
 385 34 387 29 412 29 c 1
 413 29 424 29 425 29 c 1
 425 0 l 1
 406 3 376 3 357 3 c 0
 336 3 295 3 275 0 c 1
 275 29 l 1
 290 29 302 29 309 41 c 1
 308 48 306 52 304 59 c 2
 207 350 l 1
 157 256 l 1
 157 38 l 1
 157 31 198 29 206 29 c 1
 208 29 l 1
 208 0 l 1
 190 3 144 3 124 3 c 0
 104 3 59 3 41 0 c 1
EndSplineSet
EndChar
StartChar: uF1F77
Encoding: 991095 991095 59
Width: 1000
Flags: MW
LayerCount: 2
Fore
SplineSet
681 0 m 1
 681 18 l 1
 688 18 l 1
 711 18 735 22 735 37 c 1
 735 419 l 1
 735 434 711 438 688 438 c 1
 681 438 l 1
 681 456 l 1
 700 454 744 454 765 454 c 0
 788 454 835 454 855 456 c 1
 855 438 l 1
 845 438 l 1
 816 438 788 432 788 419 c 1
 788 34 l 1
 788 21 788 18 803 18 c 1
 852 18 l 2
 943 18 951 117 956 176 c 1
 974 176 l 1
 958 0 l 1
 681 0 l 1
354 0 m 1
 354 21 l 1
 361 21 l 1
 383 21 403 26 403 41 c 1
 403 413 l 1
 403 428 383 432 361 432 c 1
 354 432 l 1
 354 453 l 1
 629 453 l 1
 643 299 l 1
 627 299 l 1
 620 387 607 432 534 432 c 2
 469 432 l 1
 456 432 455 429 455 416 c 1
 455 248 l 1
 491 248 l 2
 536 248 541 272 541 326 c 1
 557 326 l 1
 557 148 l 1
 541 148 l 1
 541 202 536 226 491 226 c 2
 455 226 l 1
 455 37 l 1
 455 24 456 21 469 21 c 1
 535 21 l 2
 618 21 630 77 641 176 c 1
 657 176 l 1
 637 0 l 1
 354 0 l 1
26 498 m 1
 37 675 l 1
 374 675 l 1
 385 498 l 1
 363 498 l 1
 357 621 352 647 278 647 c 1
 276 647 239 646 238 646 c 1
 236 645 235 643 235 639 c 1
 235 38 l 1
 235 31 303 29 313 29 c 1
 317 29 l 1
 317 0 l 1
 291 3 235 3 206 3 c 0
 177 3 121 3 95 0 c 1
 95 29 l 1
 99 29 l 1
 109 29 176 31 176 38 c 1
 176 639 l 1
 176 644 176 645 174 646 c 1
 173 646 136 647 134 647 c 1
 60 647 53 621 48 498 c 1
 26 498 l 1
EndSplineSet
EndChar
StartChar: uF1F7D
Encoding: 991101 991101 69
Width: 1000
Flags: MW
LayerCount: 2
Fore
SplineSet
244 320 m 0
 244 400 249 478 281 547 c 1
 322 640 411 666 501 666 c 0
 564 666 670 650 716 554 c 0
 751 480 756 400 756 320 c 0
 756 241 751 163 719 94 c 0
 675 -1 580 -22 499 -22 c 0
 425 -22 332 -2 289 79 c 0
 248 155 244 245 244 320 c 0
327 332 m 0
 327 273 327 181 338 121 c 0
 356 25 441 0 499 0 c 0
 567 0 647 30 662 125 c 0
 673 189 673 257 673 332 c 0
 673 395 673 471 663 527 c 0
 644 626 549 644 499 644 c 0
 461 644 354 635 335 516 c 0
 327 462 327 396 327 332 c 0
835 53 m 4
 835 80 857 105 888 105 c 4
 915 105 940 84 940 53 c 4
 940 22 914 0 888 0 c 4
 857 0 835 26 835 53 c 4
EndSplineSet
EndChar
StartChar: uF1F7F
Encoding: 991103 991103 71
Width: 1000
Flags: MW
LayerCount: 2
Fore
SplineSet
261 0 m 1
 261 7 261 12 261 16 c 2
 261 26 263 30 272 37 c 2
 535 251 l 2
 617 313 648 392 648 472 c 0
 648 554 598 635 462 635 c 0
 402 635 358 617 329 584 c 0
 317 570 307 552 300 533 c 1
 303 534 305 534 313 534 c 0
 348 534 366 508 366 482 c 0
 366 441 331 429 314 429 c 0
 311 429 261 429 261 485 c 0
 261 500 263 516 267 531 c 4
 274 554 287 576 304 596 c 0
 340 637 399 666 481 666 c 0
 649 666 739 586 739 472 c 0
 739 372 709 318 505 180 c 1
 368 77 l 1
 586 77 l 2
 618 77 685 77 692 85 c 1
 702 100 709 144 714 174 c 1
 739 174 l 1
 711 0 l 1
 261 0 l 1
835 53 m 4
 835 80 857 105 888 105 c 4
 915 105 940 84 940 53 c 4
 940 22 914 0 888 0 c 4
 857 0 835 26 835 53 c 4
EndSplineSet
EndChar
StartChar: uF1F80
Encoding: 991104 991104 72
Width: 1000
Flags: MW
LayerCount: 2
Fore
SplineSet
242 135 m 0
 242 179 274 193 298 193 c 0
 327 193 354 173 354 137 c 0
 354 99 323 77 288 82 c 1
 323 23 421 6 485 6 c 0
 551 6 654 35 654 171 c 0
 654 269 599 337 476 337 c 2
 410 337 l 2
 384 337 374 337 374 348 c 0
 374 358 384 359 396 360 c 0
 406 360 443 362 455 363 c 0
 493 364 543 367 588 415 c 1
 627 459 630 517 630 529 c 0
 630 619 548 641 486 641 c 0
 441 641 368 632 328 600 c 4
 320 594 315 587 310 579 c 1
 325 579 380 579 380 529 c 0
 380 500 351 478 320 478 c 0
 291 478 270 497 270 530 c 0
 270 561 283 589 308 612 c 0
 344 645 405 666 492 666 c 0
 636 666 730 610 730 528 c 0
 730 449 672 379 558 352 c 1
 694 331 758 253 758 171 c 0
 758 69 667 -22 490 -22 c 0
 393 -22 321 4 280 46 c 0
 256 71 242 101 242 135 c 0
835 53 m 4
 835 80 857 105 888 105 c 4
 915 105 940 84 940 53 c 4
 940 22 914 0 888 0 c 4
 857 0 835 26 835 53 c 4
EndSplineSet
EndChar
StartChar: uF1F82
Encoding: 991106 991106 74
Width: 1000
Flags: MW
LayerCount: 2
Fore
SplineSet
248 161 m 0
 248 207 283 214 297 214 c 0
 330 214 347 189 347 165 c 0
 347 141 330 116 297 116 c 0
 286 116 283 117 280 118 c 1
 284 103 291 89 301 76 c 0
 330 36 385 6 467 6 c 0
 536 6 591 32 627 71 c 1
 663 113 663 173 663 208 c 0
 663 258 660 297 636 334 c 0
 624 352 587 398 509 398 c 0
 387 398 337 344 326 328 c 0
 322 322 320 319 313 319 c 0
 299 319 299 327 299 345 c 2
 299 641 l 2
 299 657 299 665 309 665 c 0
 311 665 313 665 321 662 c 0
 379 641 447 634 507 634 c 0
 607 634 675 654 695 663 c 0
 700 666 702 666 703 666 c 0
 710 666 713 661 713 655 c 0
 713 642 633 551 449 551 c 0
 401 551 352 558 330 564 c 1
 330 369 l 1
 376 404 440 420 512 420 c 0
 670 420 752 320 752 201 c 0
 752 74 644 -22 470 -22 c 0
 377 -22 315 14 281 61 c 0
 268 79 258 99 253 119 c 4
 249 133 248 147 248 161 c 0
835 53 m 4
 835 80 857 105 888 105 c 4
 915 105 940 84 940 53 c 4
 940 22 914 0 888 0 c 4
 857 0 835 26 835 53 c 4
EndSplineSet
EndChar
StartChar: uF1F85
Encoding: 991109 991109 77
Width: 1000
Flags: MW
LayerCount: 2
Fore
SplineSet
214 151 m 0
 214 250 318 306 405 335 c 1
 367 352 311 377 295 389 c 0
 243 436 241 481 241 499 c 0
 241 592 351 666 501 666 c 0
 637 666 759 609 759 517 c 0
 759 451 697 399 589 362 c 1
 685 322 709 312 737 291 c 0
 775 249 786 204 786 168 c 0
 786 61 669 -22 499 -22 c 0
 341 -22 214 45 214 151 c 0
264 151 m 0
 264 68 372 6 501 6 c 0
 624 6 736 58 736 132 c 0
 736 193 666 223 624 242 c 1
 439 320 l 1
 311 273 264 209 264 151 c 0
295 538 m 0
 295 521 301 487 370 457 c 2
 556 377 l 1
 646 412 705 460 705 517 c 0
 705 589 609 641 499 641 c 0
 393 641 295 599 295 538 c 0
835 53 m 4
 835 80 857 105 888 105 c 4
 915 105 940 84 940 53 c 4
 940 22 914 0 888 0 c 4
 857 0 835 26 835 53 c 4
EndSplineSet
EndChar
StartChar: uF1F9D
Encoding: 991133 991133 16
Width: 1000
Flags: MW
LayerCount: 2
Fore
SplineSet
273 0 m 1
 273 31 l 1
 311 31 331 31 341 39 c 0
 349 45 351 56 351 76 c 2
 351 345 l 2
 351 394 342 400 277 400 c 1
 277 431 l 1
 417 442 l 1
 417 75 l 2
 417 57 418 46 425 40 c 4
 434 32 451 31 487 31 c 1
 487 0 l 1
 453 1 418 3 383 3 c 0
 359 3 305 1 273 0 c 1
315 616 m 0
 315 642 337 669 368 669 c 0
 396 669 421 648 421 616 c 0
 421 584 396 563 368 563 c 0
 337 563 315 589 315 616 c 0
513 0 m 1
 513 31 l 1
 551 31 571 31 581 39 c 0
 589 45 591 56 591 76 c 2
 591 345 l 2
 591 394 582 400 517 400 c 1
 517 431 l 1
 657 442 l 1
 657 75 l 2
 657 57 658 46 665 40 c 4
 674 32 691 31 727 31 c 1
 727 0 l 1
 693 1 658 3 623 3 c 0
 599 3 545 1 513 0 c 1
555 616 m 0
 555 642 577 669 608 669 c 0
 636 669 661 648 661 616 c 0
 661 584 636 563 608 563 c 0
 577 563 555 589 555 616 c 0
EndSplineSet
EndChar
StartChar: uF1F9E
Encoding: 991134 991134 17
Width: 1000
Flags: MW
LayerCount: 2
Fore
SplineSet
153 0 m 1
 153 31 l 1
 191 31 211 31 221 39 c 0
 229 45 231 56 231 76 c 2
 231 345 l 2
 231 394 222 400 157 400 c 1
 157 431 l 1
 297 442 l 1
 297 75 l 2
 297 57 298 46 305 40 c 4
 314 32 331 31 367 31 c 1
 367 0 l 1
 333 1 298 3 263 3 c 0
 239 3 185 1 153 0 c 1
195 616 m 0
 195 642 217 669 248 669 c 0
 276 669 301 648 301 616 c 0
 301 584 276 563 248 563 c 0
 217 563 195 589 195 616 c 0
393 0 m 1
 393 31 l 1
 431 31 451 31 461 39 c 0
 469 45 471 56 471 76 c 2
 471 345 l 2
 471 394 462 400 397 400 c 1
 397 431 l 1
 537 442 l 1
 537 75 l 2
 537 57 538 46 545 40 c 4
 554 32 571 31 607 31 c 1
 607 0 l 1
 573 1 538 3 503 3 c 0
 479 3 425 1 393 0 c 1
435 616 m 0
 435 642 457 669 488 669 c 0
 516 669 541 648 541 616 c 0
 541 584 516 563 488 563 c 0
 457 563 435 589 435 616 c 0
633 0 m 1
 633 31 l 1
 671 31 691 31 701 39 c 0
 709 45 711 56 711 76 c 2
 711 345 l 2
 711 394 702 400 637 400 c 1
 637 431 l 1
 777 442 l 1
 777 75 l 2
 777 57 778 46 785 40 c 4
 794 32 811 31 847 31 c 1
 847 0 l 1
 813 1 778 3 743 3 c 0
 719 3 665 1 633 0 c 1
675 616 m 0
 675 642 697 669 728 669 c 0
 756 669 781 648 781 616 c 0
 781 584 756 563 728 563 c 0
 697 563 675 589 675 616 c 0
EndSplineSet
EndChar
StartChar: uF1F9F
Encoding: 991135 991135 18
Width: 1000
Flags: MW
LayerCount: 2
Fore
SplineSet
184 0 m 1
 184 31 l 1
 222 31 242 31 252 39 c 0
 260 45 262 56 262 76 c 2
 262 345 l 2
 262 394 253 400 188 400 c 1
 188 431 l 1
 328 442 l 1
 328 75 l 2
 328 57 329 46 336 40 c 0
 345 32 362 31 398 31 c 1
 398 0 l 1
 364 1 329 3 294 3 c 0
 270 3 216 1 184 0 c 1
226 616 m 0
 226 642 249 669 280 669 c 0
 308 669 332 648 332 616 c 0
 332 584 308 563 280 563 c 0
 249 563 226 589 226 616 c 0
408 400 m 1
 408 431 l 1
 438 429 477 428 504 428 c 0
 527 428 584 430 614 431 c 1
 614 400 l 1
 596 400 556 400 556 374 c 0
 556 372 558 371 562 357 c 2
 631 99 l 1
 696 333 l 2
 699 344 702 348 702 357 c 0
 702 376 691 399 654 400 c 1
 654 431 l 1
 671 430 718 428 742 428 c 0
 765 428 793 429 816 431 c 1
 816 400 l 1
 750 399 730 357 724 333 c 2
 634 8 l 2
 630 -3 625 -11 612 -11 c 0
 599 -11 598 -6 592 8 c 2
 488 363 l 2
 484 379 476 388 466 393 c 0
 456 398 440 400 408 400 c 1
EndSplineSet
EndChar
StartChar: uF1FA1
Encoding: 991137 991137 20
Width: 1000
Flags: MW
LayerCount: 2
Fore
SplineSet
174 400 m 5
 174 431 l 5
 204 429 243 428 270 428 c 4
 293 428 350 430 380 431 c 5
 380 400 l 5
 362 400 322 400 322 374 c 4
 322 372 324 371 328 357 c 6
 398 99 l 5
 462 333 l 6
 465 344 468 348 468 357 c 4
 468 376 457 399 420 400 c 5
 420 431 l 5
 437 430 484 428 508 428 c 4
 531 428 559 429 582 431 c 5
 582 400 l 5
 516 399 496 357 490 333 c 6
 400 8 l 6
 396 -3 391 -11 378 -11 c 4
 365 -11 364 -6 358 8 c 6
 254 363 l 6
 250 379 242 388 232 393 c 4
 222 398 206 400 174 400 c 5
612 0 m 1
 612 31 l 1
 650 31 670 31 680 39 c 0
 688 45 690 56 690 76 c 2
 690 345 l 2
 690 394 681 400 616 400 c 1
 616 431 l 1
 756 442 l 1
 756 75 l 2
 756 57 757 46 764 40 c 4
 773 32 790 31 826 31 c 1
 826 0 l 1
 792 1 757 3 722 3 c 0
 698 3 644 1 612 0 c 1
654 616 m 0
 654 642 675 669 706 669 c 0
 734 669 760 648 760 616 c 0
 760 584 734 563 706 563 c 0
 675 563 654 589 654 616 c 0
EndSplineSet
EndChar
StartChar: uF1FA2
Encoding: 991138 991138 21
Width: 1000
Flags: MW
LayerCount: 2
Fore
SplineSet
54 400 m 5
 54 431 l 5
 84 429 123 428 150 428 c 4
 173 428 230 430 260 431 c 5
 260 400 l 5
 242 400 202 400 202 374 c 4
 202 372 204 371 208 357 c 6
 278 99 l 5
 342 333 l 6
 345 344 348 348 348 357 c 4
 348 376 337 399 300 400 c 5
 300 431 l 5
 317 430 364 428 388 428 c 4
 411 428 439 429 462 431 c 5
 462 400 l 5
 396 399 376 357 370 333 c 6
 280 8 l 6
 276 -3 271 -11 258 -11 c 4
 245 -11 244 -6 238 8 c 6
 134 363 l 6
 130 379 122 388 112 393 c 4
 102 398 86 400 54 400 c 5
492 0 m 1
 492 31 l 1
 530 31 550 31 560 39 c 0
 568 45 570 56 570 76 c 2
 570 345 l 2
 570 394 561 400 496 400 c 1
 496 431 l 1
 636 442 l 1
 636 75 l 2
 636 57 637 46 644 40 c 4
 653 32 670 31 706 31 c 1
 706 0 l 1
 672 1 637 3 602 3 c 0
 578 3 524 1 492 0 c 1
534 616 m 0
 534 642 555 669 586 669 c 0
 614 669 640 648 640 616 c 0
 640 584 614 563 586 563 c 0
 555 563 534 589 534 616 c 0
732 0 m 1
 732 31 l 1
 770 31 790 31 800 39 c 0
 808 45 810 56 810 76 c 2
 810 345 l 2
 810 394 801 400 736 400 c 1
 736 431 l 1
 876 442 l 1
 876 75 l 2
 876 57 877 46 884 40 c 4
 893 32 910 31 946 31 c 1
 946 0 l 1
 912 1 877 3 842 3 c 0
 818 3 764 1 732 0 c 1
774 616 m 0
 774 642 795 669 826 669 c 0
 854 669 880 648 880 616 c 0
 880 584 854 563 826 563 c 0
 795 563 774 589 774 616 c 0
EndSplineSet
EndChar
StartChar: uF1FA3
Encoding: 991139 991139 22
Width: 1000
Flags: MW
LayerCount: 2
Fore
SplineSet
14 400 m 1
 14 431 l 1
 44 429 63 428 90 428 c 0
 113 428 170 430 200 431 c 1
 200 400 l 1
 182 400 142 400 142 374 c 0
 142 372 144 371 148 357 c 2
 218 99 l 1
 282 333 l 2
 285 344 288 348 288 357 c 0
 288 376 277 399 240 400 c 1
 240 431 l 1
 257 430 304 428 328 428 c 0
 351 428 359 429 382 431 c 1
 382 400 l 1
 316 399 316 357 310 333 c 2
 220 8 l 2
 216 -3 211 -11 198 -11 c 0
 185 -11 184 -6 178 8 c 2
 74 363 l 2
 70 379 62 388 52 393 c 0
 42 398 46 400 14 400 c 1
412 0 m 1
 412 31 l 1
 450 31 450 31 460 39 c 0
 468 45 470 56 470 76 c 2
 470 345 l 2
 470 394 481 400 416 400 c 1
 416 431 l 1
 536 442 l 1
 536 75 l 2
 536 57 537 46 544 40 c 0
 553 32 550 31 586 31 c 1
 586 0 l 1
 552 1 537 3 502 3 c 0
 478 3 444 1 412 0 c 1
434 616 m 0
 434 642 455 669 486 669 c 0
 514 669 540 648 540 616 c 0
 540 584 514 563 486 563 c 0
 455 563 434 589 434 616 c 0
612 0 m 1
 612 31 l 1
 650 31 650 31 660 39 c 0
 668 45 670 56 670 76 c 2
 670 345 l 2
 670 394 681 400 616 400 c 1
 616 431 l 1
 736 442 l 1
 736 75 l 2
 736 57 737 46 744 40 c 0
 753 32 750 31 786 31 c 1
 786 0 l 1
 752 1 737 3 702 3 c 0
 678 3 644 1 612 0 c 1
634 616 m 0
 634 642 655 669 686 669 c 0
 714 669 740 648 740 616 c 0
 740 584 714 563 686 563 c 0
 655 563 634 589 634 616 c 0
812 0 m 1
 812 31 l 1
 850 31 850 31 860 39 c 0
 868 45 870 56 870 76 c 2
 870 345 l 2
 870 394 881 400 816 400 c 1
 816 431 l 1
 936 442 l 1
 936 75 l 2
 936 57 937 46 944 40 c 0
 953 32 950 31 986 31 c 1
 986 0 l 1
 952 1 937 3 902 3 c 0
 878 3 844 1 812 0 c 1
834 616 m 0
 834 642 855 669 886 669 c 0
 914 669 940 648 940 616 c 0
 940 584 914 563 886 563 c 0
 855 563 834 589 834 616 c 0
EndSplineSet
EndChar
StartChar: uF1FA4
Encoding: 991140 991140 23
Width: 1000
Flags: MW
LayerCount: 2
Fore
SplineSet
150 0 m 1
 150 31 l 1
 188 31 208 31 218 39 c 0
 226 45 228 56 228 76 c 2
 228 345 l 2
 228 394 219 400 154 400 c 1
 154 431 l 1
 294 442 l 1
 294 75 l 2
 294 57 295 46 302 40 c 0
 311 32 328 31 364 31 c 1
 364 0 l 1
 330 1 295 3 260 3 c 0
 236 3 182 1 150 0 c 1
192 616 m 0
 192 642 215 669 246 669 c 0
 274 669 298 648 298 616 c 0
 298 584 274 563 246 563 c 0
 215 563 192 589 192 616 c 0
386 0 m 1
 386 31 l 1
 407 31 466 33 514 91 c 1
 586 211 l 1
 508 339 l 2
 489 369 475 382 462 390 c 0
 446 400 428 400 390 400 c 1
 390 431 l 1
 417 429 465 428 486 428 c 0
 502 428 568 430 594 431 c 1
 594 400 l 1
 574 399 558 390 558 375 c 0
 558 369 559 367 568 357 c 1
 622 270 l 1
 666 342 l 2
 670 348 682 363 682 379 c 0
 682 395 675 398 654 400 c 1
 654 431 l 1
 667 430 720 428 750 428 c 0
 776 428 806 429 832 431 c 1
 832 400 l 1
 785 399 743 384 712 348 c 1
 688 322 642 239 642 239 c 1
 754 62 l 2
 779 34 796 31 850 31 c 1
 850 0 l 1
 820 2 781 3 754 3 c 0
 732 3 676 1 646 0 c 1
 646 31 l 1
 673 32 682 47 682 56 c 0
 682 62 669 79 660 89 c 2
 604 181 l 1
 604 181 554 106 542 84 c 1
 537 75 534 68 534 62 c 0
 534 47 542 34 564 31 c 1
 564 0 l 1
 540 1 497 3 468 3 c 0
 442 3 412 2 386 0 c 1
EndSplineSet
EndChar
StartChar: uF1FF6
Encoding: 991222 991222 60
Width: 1000
Flags: MW
LayerCount: 2
Fore
SplineSet
386 0 m 1
 386 31 l 1
 424 31 444 31 454 39 c 0
 462 45 464 56 464 76 c 2
 464 344 l 2
 464 393 456 400 386 400 c 1
 386 431 l 1
 527 442 l 1
 527 337 l 1
 555 399 602 442 675 442 c 0
 733 442 766 422 780 405 c 0
 811 369 811 338 811 252 c 2
 811 61 l 1
 812 31 837 31 889 31 c 1
 889 0 l 1
 855 1 803 3 777 3 c 0
 750 3 699 1 664 0 c 1
 664 31 l 1
 704 31 724 31 734 41 c 4
 740 47 742 58 742 76 c 2
 742 309 l 2
 742 366 731 420 668 420 c 0
 604 420 533 364 533 260 c 2
 533 76 l 2
 533 56 535 44 544 38 c 0
 555 31 574 31 611 31 c 1
 611 0 l 1
 577 1 525 3 499 3 c 0
 472 3 421 1 386 0 c 1
111 0 m 1
 111 31 l 1
 149 31 169 31 179 39 c 0
 187 45 189 56 189 76 c 2
 189 345 l 2
 189 394 180 400 115 400 c 1
 115 431 l 1
 255 442 l 1
 255 75 l 2
 255 57 256 46 263 40 c 4
 272 32 289 31 325 31 c 1
 325 0 l 1
 291 1 256 3 221 3 c 0
 197 3 143 1 111 0 c 1
153 616 m 0
 153 642 175 669 206 669 c 0
 234 669 259 648 259 616 c 0
 259 584 234 563 206 563 c 0
 175 563 153 589 153 616 c 0
EndSplineSet
EndChar
StartChar: uF1FFA
Encoding: 991226 991226 61
Width: 1000
Flags: MW
LayerCount: 2
Fore
SplineSet
524 0 m 1
 524 32 l 1
 560 32 l 1
 560 371 l 2
 560 410 556 410 524 410 c 1
 524 442 l 1
 613 450 l 1
 613 342 l 1
 630 405 660 450 705 450 c 0
 725 450 774 447 784 354 c 1
 798 400 824 450 872 450 c 0
 900 450 921 440 934 415 c 0
 947 392 952 356 952 306 c 2
 952 32 l 1
 989 32 l 1
 989 0 l 1
 974 1 943 3 923 3 c 0
 903 3 872 1 857 0 c 1
 857 32 l 1
 893 32 l 1
 893 317 l 2
 893 394 882 429 864 429 c 0
 832 429 786 365 786 256 c 2
 786 32 l 1
 822 32 l 1
 822 0 l 1
 807 1 776 3 756 3 c 0
 736 3 705 1 690 0 c 1
 690 32 l 1
 726 32 l 1
 726 317 l 2
 726 394 715 429 697 429 c 0
 665 429 619 365 619 256 c 2
 619 32 l 1
 655 32 l 1
 655 0 l 1
 640 1 609 3 589 3 c 0
 569 3 539 1 524 0 c 1
24 0 m 1
 24 32 l 1
 60 32 l 1
 60 371 l 2
 60 410 56 410 24 410 c 1
 24 442 l 1
 113 450 l 1
 113 342 l 1
 130 405 160 450 205 450 c 0
 225 450 274 447 284 354 c 1
 298 400 324 450 372 450 c 0
 400 450 421 440 434 415 c 0
 447 392 452 356 452 306 c 2
 452 32 l 1
 489 32 l 1
 489 0 l 1
 474 1 443 3 423 3 c 0
 403 3 372 1 357 0 c 1
 357 32 l 1
 393 32 l 1
 393 317 l 2
 393 394 382 429 364 429 c 0
 332 429 286 365 286 256 c 2
 286 32 l 1
 322 32 l 1
 322 0 l 1
 307 1 276 3 256 3 c 0
 236 3 205 1 190 0 c 1
 190 32 l 1
 226 32 l 1
 226 317 l 2
 226 394 215 429 197 429 c 0
 165 429 119 365 119 256 c 2
 119 32 l 1
 155 32 l 1
 155 0 l 1
 140 1 109 3 89 3 c 0
 69 3 39 1 24 0 c 1
710 460 m 5
 710 495 l 6
 710 510 715 512 728 520 c 4
 843 594 899 620 899 677 c 4
 899 723 864 756 816 756 c 4
 790 756 771 748 755 738 c 5
 772 735 788 722 788 699 c 4
 788 677 771 660 750 660 c 4
 729 660 710 674 710 700 c 4
 710 713 713 725 720 735 c 4
 729 749 743 758 761 766 c 4
 781 774 804 779 830 779 c 4
 910 779 968 739 968 678 c 4
 968 607 885 585 832 558 c 5
 761 519 l 5
 856 519 l 6
 880 519 904 519 916 520 c 4
 927 521 933 522 937 534 c 4
 941 544 944 562 949 592 c 5
 968 592 l 5
 947 460 l 5
 710 460 l 5
EndSplineSet
EndChar
StartChar: uF1FFB
Encoding: 991227 991227 62
Width: 1000
Flags: MW
LayerCount: 2
Fore
SplineSet
524 0 m 1
 524 32 l 1
 560 32 l 1
 560 371 l 2
 560 410 556 410 524 410 c 1
 524 442 l 1
 613 450 l 1
 613 342 l 1
 630 405 660 450 705 450 c 0
 725 450 774 447 784 354 c 1
 798 400 824 450 872 450 c 0
 900 450 921 440 934 415 c 0
 947 392 952 356 952 306 c 2
 952 32 l 1
 989 32 l 1
 989 0 l 1
 974 1 943 3 923 3 c 0
 903 3 872 1 857 0 c 1
 857 32 l 1
 893 32 l 1
 893 317 l 2
 893 394 882 429 864 429 c 0
 832 429 786 365 786 256 c 2
 786 32 l 1
 822 32 l 1
 822 0 l 1
 807 1 776 3 756 3 c 0
 736 3 705 1 690 0 c 1
 690 32 l 1
 726 32 l 1
 726 317 l 2
 726 394 715 429 697 429 c 0
 665 429 619 365 619 256 c 2
 619 32 l 1
 655 32 l 1
 655 0 l 1
 640 1 609 3 589 3 c 0
 569 3 539 1 524 0 c 1
24 0 m 1
 24 32 l 1
 60 32 l 1
 60 371 l 2
 60 410 56 410 24 410 c 1
 24 442 l 1
 113 450 l 1
 113 342 l 1
 130 405 160 450 205 450 c 0
 225 450 274 447 284 354 c 1
 298 400 324 450 372 450 c 0
 400 450 421 440 434 415 c 0
 447 392 452 356 452 306 c 2
 452 32 l 1
 489 32 l 1
 489 0 l 1
 474 1 443 3 423 3 c 0
 403 3 372 1 357 0 c 1
 357 32 l 1
 393 32 l 1
 393 317 l 2
 393 394 382 429 364 429 c 0
 332 429 286 365 286 256 c 2
 286 32 l 1
 322 32 l 1
 322 0 l 1
 307 1 276 3 256 3 c 0
 236 3 205 1 190 0 c 1
 190 32 l 1
 226 32 l 1
 226 317 l 2
 226 394 215 429 197 429 c 0
 165 429 119 365 119 256 c 2
 119 32 l 1
 155 32 l 1
 155 0 l 1
 140 1 109 3 89 3 c 0
 69 3 39 1 24 0 c 1
681 534 m 4xf2
 681 561 701 577 723 577 c 4
 745 577 765 560 765 535 c 4
 765 511 749 500 736 495 c 5
 743 493 764 484 807 484 c 4
 860 484 874 518 874 550 c 4xf2
 874 607 839 621 807 621 c 6
 791 621 l 6
 783 621 775 623 775 630 c 4
 775 634 777 636 781 637 c 4
 791 641 810 639 822 644 c 4
 845 654 861 684 861 718 c 4
 861 759 833 770 810 770 c 4
 790 770 751 761 729 715 c 5
 735 716 736 716 739 716 c 4
 760 716 778 700 778 678 c 4
 778 656 761 640 740 640 c 4
 726 640 702 648 702 680 c 4
 702 689 703 699 706 708 c 4
 718 750 756 789 814 789 c 4
 874 789 930 760 930 716 c 4xec
 930 682 907 652 853 632 c 5
 892 625 951 600 951 552 c 4
 951 511 902 462 811 462 c 4
 702 462 681 506 681 534 c 4xf2
EndSplineSet
EndChar
StartChar: uF1FFC
Encoding: 991228 991228 63
Width: 1000
Flags: MW
LayerCount: 2
Fore
SplineSet
407 0 m 1
 407 31 l 1
 433 31 439 31 449 38 c 0
 458 44 460 55 460 76 c 2
 460 344 l 2
 460 393 459 400 407 400 c 1
 407 431 l 1
 515 442 l 1
 515 337 l 1
 526 399 567 442 621 442 c 0
 654 442 711 431 723 344 c 1
 730 388 764 442 826 442 c 0
 869 442 893 422 905 405 c 0
 932 369 932 338 932 252 c 2
 932 61 l 1
 933 31 945 31 983 31 c 1
 983 0 l 1
 958 1 925 3 902 3 c 0
 878 3 843 1 817 0 c 1
 817 31 l 1
 841 31 849 31 859 37 c 0
 869 43 871 53 871 76 c 2
 871 309 l 2
 871 366 866 420 820 420 c 0
 773 420 726 364 726 260 c 2
 726 76 l 2
 726 54 728 43 737 37 c 0
 747 31 753 31 778 31 c 1
 778 0 l 1
 753 1 719 3 696 3 c 0
 672 3 638 1 612 0 c 1
 612 31 l 1
 642 31 648 31 657 41 c 0
 662 47 665 58 665 76 c 2
 665 309 l 2
 665 366 661 420 615 420 c 0
 568 420 521 364 521 260 c 2
 521 76 l 2
 521 53 523 41 534 36 c 0
 544 31 549 31 573 31 c 1
 573 0 l 1
 548 1 514 3 491 3 c 0
 467 3 433 1 407 0 c 1
17 0 m 1
 17 31 l 1
 43 31 57 31 65 38 c 0
 72 44 69 55 69 76 c 2
 69 596 l 2
 69 645 69 652 17 652 c 1
 17 683 l 1
 127 694 l 1
 127 214 l 1
 227 336 l 2
 233 343 243 355 243 375 c 0
 243 388 236 399 222 400 c 1
 222 431 l 1
 232 430 277 428 304 428 c 0
 325 428 335 428 356 431 c 1
 356 400 l 1
 341 399 309 397 263 346 c 0
 256 338 203 278 203 274 c 0
 203 271 207 265 208 263 c 2
 301 84 l 2
 324 41 340 33 359 31 c 2
 363 31 368 31 373 31 c 1
 373 0 l 1
 352 2 330 3 309 3 c 0
 294 3 250 1 229 0 c 1
 229 31 l 1
 243 31 256 35 256 54 c 0
 256 61 249 78 242 92 c 0
 214 149 203 169 168 234 c 1
 124 179 l 1
 124 76 l 2
 124 56 126 44 134 38 c 0
 144 31 151 31 178 31 c 1
 178 0 l 1
 148 2 123 3 96 3 c 0
 70 3 41 1 17 0 c 1
681 534 m 4xf2
 681 561 701 577 723 577 c 4
 745 577 765 560 765 535 c 4
 765 511 749 500 736 495 c 5
 743 493 764 484 807 484 c 4
 860 484 874 518 874 550 c 4xf2
 874 607 839 621 807 621 c 6
 791 621 l 6
 783 621 775 623 775 630 c 4
 775 634 777 636 781 637 c 4
 791 641 810 639 822 644 c 4
 845 654 861 684 861 718 c 4
 861 759 833 770 810 770 c 4
 790 770 751 761 729 715 c 5
 735 716 736 716 739 716 c 4
 760 716 778 700 778 678 c 4
 778 656 761 640 740 640 c 4
 726 640 702 648 702 680 c 4
 702 689 703 699 706 708 c 4
 718 750 756 789 814 789 c 4
 874 789 930 760 930 716 c 4xec
 930 682 907 652 853 632 c 5
 892 625 951 600 951 552 c 4
 951 511 902 462 811 462 c 4
 702 462 681 506 681 534 c 4xf2
EndSplineSet
EndChar
StartChar: uF1FFD
Encoding: 991229 991229 64
Width: 1000
Flags: MW
LayerCount: 2
Fore
SplineSet
676 216 m 0
 676 340 747 448 844 448 c 0
 885 448 926 430 948 396 c 0
 958 381 963 362 963 341 c 0
 963 311 947 294 927 294 c 0
 905 294 892 314 892 340 c 0
 892 353 896 383 928 386 c 1
 901 422 852 423 845 423 c 0
 804 423 741 381 741 218 c 0
 741 57 809 14 850 14 c 0
 879 14 929 26 951 119 c 0
 953 125 954 129 961 129 c 0
 963 129 972 129 972 119 c 0
 972 109 947 -11 843 -11 c 0
 753 -11 676 88 676 216 c 0
328 220 m 0
 328 345 399 448 489 448 c 0
 527 448 557 433 579 409 c 0
 613 371 628 312 628 252 c 0
 628 231 626 231 609 231 c 2
 393 231 l 1
 393 195 393 129 416 81 c 0
 434 44 464 14 503 14 c 0
 511 14 581 14 608 117 c 0
 610 125 611 131 618 131 c 0
 622 131 628 129 628 119 c 0
 628 100 594 -11 499 -11 c 0
 410 -11 328 86 328 220 c 0
393 252 m 1
 577 252 l 1
 577 291 569 426 489 426 c 0
 473 426 440 416 418 371 c 0
 405 345 395 307 393 252 c 1
28 13 m 2
 28 145 l 2
 28 163 28 170 38 170 c 0
 46 170 46 166 48 153 c 0
 63 68 91 11 156 11 c 0
 216 11 244 51 244 102 c 0
 244 174 180 190 163 194 c 0
 107 208 86 214 61 240 c 0
 40 262 28 290 28 325 c 0
 28 381 57 448 152 448 c 0
 164 448 195 448 224 420 c 1
 227 423 236 432 238 436 c 0
 248 448 249 448 253 448 c 0
 262 448 262 441 262 424 c 2
 262 323 l 2
 262 304 262 299 252 299 c 0
 250 299 243 299 242 308 c 0
 241 327 240 369 218 398 c 0
 205 416 185 429 152 429 c 0
 85 429 65 388 65 353 c 0
 65 295 117 282 160 271 c 0
 193 263 222 255 248 223 c 0
 257 211 281 181 281 128 c 0
 281 56 245 -11 156 -11 c 0
 140 -11 105 -10 71 32 c 1
 57 13 57 11 55 9 c 0
 40 -10 40 -11 36 -11 c 0
 27 -11 28 -4 28 13 c 2
EndSplineSet
EndChar
StartChar: uF1FFE
Encoding: 991230 991230 65
Width: 1000
Flags: MW
LayerCount: 2
Fore
SplineSet
680 0 m 1
 680 31 l 1
 703 31 704 31 712 39 c 0
 718 45 720 56 720 76 c 2
 720 344 l 2
 720 393 714 400 680 400 c 1
 680 431 l 1
 768 442 l 1
 768 337 l 1
 777 399 809 442 852 442 c 0
 887 442 905 422 916 405 c 0
 940 369 940 338 940 252 c 2
 940 61 l 1
 941 31 949 31 980 31 c 1
 980 0 l 1
 960 1 934 3 914 3 c 0
 893 3 867 1 846 0 c 1
 846 31 l 1
 870 31 872 31 880 41 c 0
 885 47 886 58 886 76 c 2
 886 309 l 2
 886 366 885 420 848 420 c 0
 810 420 774 364 774 260 c 2
 774 76 l 2
 774 56 775 44 782 38 c 0
 791 31 792 31 814 31 c 1
 814 0 l 1
 794 1 768 3 748 3 c 0
 727 3 701 1 680 0 c 1
516 0 m 1
 516 31 l 1
 539 31 544 31 552 39 c 0
 558 45 560 56 560 76 c 2
 560 345 l 2
 560 394 557 400 518 400 c 1
 518 431 l 1
 610 442 l 1
 610 75 l 2
 610 57 611 46 616 40 c 0
 623 32 623 31 644 31 c 1
 644 0 l 1
 624 1 611 3 584 3 c 0
 565 3 535 1 516 0 c 1
532 616 m 0
 532 642 548 669 572 669 c 0
 594 669 614 648 614 616 c 0
 614 584 594 563 572 563 c 0
 548 563 532 589 532 616 c 0
20 0 m 1
 20 31 l 1
 41 31 43 31 52 38 c 0
 60 44 60 55 60 76 c 2
 60 344 l 2
 60 393 56 400 20 400 c 1
 20 431 l 1
 110 442 l 1
 110 337 l 1
 119 400 149 442 192 442 c 0
 219 442 265 431 276 344 c 1
 281 396 308 442 358 442 c 0
 393 442 411 422 422 405 c 0
 446 369 446 338 446 252 c 2
 446 61 l 1
 447 31 455 31 486 31 c 1
 486 0 l 1
 466 1 440 3 420 3 c 0
 399 3 373 1 352 0 c 1
 352 31 l 1
 372 31 373 31 382 37 c 0
 391 43 392 53 392 76 c 2
 392 309 l 2
 392 366 391 420 354 420 c 0
 316 420 280 364 280 260 c 2
 280 76 l 2
 280 54 282 43 290 37 c 0
 299 31 300 31 320 31 c 1
 320 0 l 1
 300 1 272 3 252 3 c 0
 231 3 207 1 186 0 c 1
 186 31 l 1
 210 31 212 31 220 41 c 0
 225 47 226 58 226 76 c 2
 226 309 l 2
 226 366 213 420 188 420 c 0
 150 420 114 364 114 260 c 2
 114 76 l 2
 114 53 117 41 126 36 c 0
 135 31 135 31 154 31 c 1
 154 0 l 1
 134 1 108 3 88 3 c 0
 67 3 41 1 20 0 c 1
EndSplineSet
EndChar
StartChar: uF2000
Encoding: 991232 991232 66
Width: 1000
Flags: MW
LayerCount: 2
Fore
SplineSet
763 79 m 0
 763 94 768 114 769 118 c 2
 894 618 l 2
 894 619 897 632 897 635 c 0
 897 645 896 652 853 652 c 0
 840 652 832 652 832 663 c 0
 832 682 842 683 853 684 c 2
 942 692 l 2
 945 693 954 694 957 694 c 0
 964 694 969 691 969 682 c 0
 969 680 967 672 966 669 c 2
 823 98 l 2
 817 74 816 59 816 52 c 0
 816 38 816 11 839 11 c 0
 864 11 882 53 899 123 c 1
 906 148 l 1
 909 153 915 153 919 153 c 0
 925 153 932 153 932 143 c 0
 932 143 932 141 931 138 c 0
 928 122 915 71 902 41 c 0
 890 16 870 -11 836 -11 c 0
 793 -11 762 26 763 79 c 0
378 144 m 0
 382 290 491 442 591 442 c 0
 620 442 648 426 664 383 c 1
 665 388 672 422 701 422 c 0
 710 422 726 417 725 396 c 0
 725 391 725 389 721 375 c 2
 653 103 l 2
 646 75 645 59 645 52 c 0
 645 38 645 11 668 11 c 0
 699 11 717 74 731 130 c 0
 737 152 738 153 749 153 c 0
 751 153 752 153 754 153 c 0
 758 152 762 150 762 143 c 0
 762 141 749 83 732 45 c 0
 723 27 714 10 700 0 c 0
 691 -7 679 -11 665 -11 c 0
 633 -11 601 10 592 59 c 1
 555 10 515 -11 483 -11 c 0
 415 -11 376 59 378 144 c 0
438 100 m 0
 437 70 443 11 485 11 c 0
 517 11 553 44 576 77 c 0
 589 95 597 113 600 124 c 2
 647 313 l 2
 649 319 650 324 650 326 c 0
 651 368 631 420 591 420 c 0
 554 420 511 370 487 309 c 0
 470 267 439 150 438 100 c 0
32 154 m 0
 36 300 155 442 267 442 c 0
 325 442 362 405 361 356 c 0
 360 318 338 296 314 296 c 0
 293 296 284 312 284 328 c 0
 284 330 285 371 330 377 c 1
 318 418 278 420 268 420 c 0
 243 420 215 407 190 381 c 0
 174 365 160 345 147 320 c 0
 122 272 95 167 94 114 c 0
 93 56 114 11 163 11 c 0
 178 11 258 15 327 109 c 0
 334 119 335 120 339 120 c 0
 346 120 353 109 353 104 c 0
 353 89 275 -11 160 -11 c 0
 81 -11 30 55 32 154 c 0
EndSplineSet
EndChar
StartChar: uF2001
Encoding: 991233 991233 67
Width: 1000
Flags: MW
LayerCount: 2
Fore
SplineSet
839 79 m 0
 839 94 842 114 843 118 c 2
 927 618 l 2
 927 619 929 632 929 635 c 0
 929 645 927 652 903 652 c 0
 894 652 888 652 888 663 c 0
 888 682 895 683 903 684 c 2
 966 692 l 2
 968 693 974 694 976 694 c 0
 981 694 985 691 985 682 c 0
 985 680 984 672 983 669 c 2
 886 98 l 2
 882 74 882 59 882 52 c 0
 882 38 884 11 893 11 c 0
 911 11 923 53 935 123 c 1
 940 148 l 1
 942 153 946 153 949 153 c 0
 953 153 959 153 959 143 c 0
 959 143 959 141 958 138 c 0
 956 122 946 71 937 41 c 0
 929 16 915 -11 891 -11 c 0
 861 -11 838 26 839 79 c 0
567 144 m 0
 570 290 646 442 717 442 c 0
 738 442 759 426 763 383 c 1
 764 388 774 422 795 422 c 0
 801 422 813 417 812 396 c 0
 812 391 812 389 809 375 c 2
 761 103 l 2
 756 75 756 59 756 52 c 0
 756 38 756 11 772 11 c 0
 794 11 806 74 816 130 c 0
 820 152 821 153 829 153 c 0
 830 153 832 153 833 153 c 0
 836 152 838 150 838 143 c 0
 838 141 829 83 817 45 c 0
 811 27 804 10 794 0 c 0
 788 -7 780 -11 770 -11 c 0
 747 -11 719 8 713 57 c 1
 692 8 664 -11 641 -11 c 0
 593 -11 566 59 567 144 c 0
616 100 m 0
 615 70 619 11 646 11 c 0
 667 11 691 44 705 77 c 0
 713 95 718 113 720 124 c 2
 750 313 l 2
 751 319 752 324 752 326 c 0
 753 368 739 420 714 420 c 0
 691 420 663 370 648 309 c 0
 637 267 617 150 616 100 c 0
322 154 m 0
 325 300 409 442 488 442 c 0
 529 442 556 405 555 356 c 0
 554 318 529 296 514 296 c 0
 500 296 495 312 495 328 c 0
 495 330 496 371 525 377 c 1
 518 418 491 420 485 420 c 0
 469 420 452 407 436 381 c 0
 426 365 416 345 408 320 c 0
 392 272 375 167 374 114 c 0
 373 56 386 11 418 11 c 0
 428 11 479 15 523 109 c 0
 527 119 536 120 539 120 c 0
 544 120 549 109 549 104 c 0
 549 89 493 -11 412 -11 c 0
 356 -11 321 55 322 154 c 0
15 0 m 1
 15 31 l 1
 36 31 46 31 51 38 c 0
 55 44 56 55 56 76 c 2
 56 596 l 2
 56 645 55 652 15 652 c 1
 15 683 l 1
 103 694 l 1
 103 214 l 1
 202 336 l 2
 208 343 218 355 218 375 c 0
 218 388 210 399 197 400 c 1
 197 431 l 1
 207 430 237 428 262 428 c 0
 282 428 291 428 312 431 c 1
 312 400 l 1
 297 399 282 397 237 346 c 0
 230 338 180 278 180 274 c 0
 180 271 183 265 184 263 c 2
 274 84 l 2
 296 41 297 33 315 31 c 2
 319 31 323 31 328 31 c 1
 328 0 l 1
 307 2 288 3 267 3 c 0
 252 3 224 1 204 0 c 1
 204 31 l 1
 217 31 230 35 230 54 c 0
 230 61 223 78 217 92 c 0
 190 149 179 169 146 234 c 1
 100 179 l 1
 100 76 l 2
 100 56 101 45 107 39 c 0
 114 31 129 31 156 31 c 1
 156 0 l 1
 128 2 99 3 78 3 c 0
 57 3 38 1 15 0 c 1
EndSplineSet
EndChar
StartChar: uF2002
Encoding: 991234 991234 68
Width: 1000
Flags: MW
LayerCount: 2
Fore
SplineSet
526 0 m 1
 526 29 l 1
 530 29 l 1
 540 29 594 31 594 38 c 1
 594 647 l 1
 594 654 540 657 530 657 c 1
 526 657 l 1
 526 685 l 1
 792 685 l 2
 889 685 944 605 944 514 c 0
 944 438 903 377 836 358 c 1
 910 348 964 279 964 185 c 0
 964 88 910 0 810 0 c 2
 526 0 l 1
670 37 m 1
 670 30 670 29 676 29 c 1
 784 29 l 2
 869 29 876 162 876 186 c 0
 876 203 874 260 852 300 c 0
 832 338 806 348 792 348 c 2
 670 348 l 1
 670 37 l 1
670 366 m 1
 768 366 l 2
 831 366 860 440 860 514 c 0
 860 561 847 657 784 657 c 2
 676 657 l 1
 670 657 670 656 670 649 c 1
 670 366 l 1
36 215 m 0
 36 344 142 442 260 442 c 0
 314 442 337 416 366 380 c 1
 366 596 l 2
 366 645 359 652 308 652 c 1
 308 683 l 1
 432 694 l 1
 432 87 l 2
 432 38 436 31 490 31 c 1
 490 0 l 1
 362 -11 l 1
 362 55 l 1
 337 23 312 -11 248 -11 c 0
 134 -11 36 88 36 215 c 0
120 214 m 0
 120 173 122 116 148 75 c 0
 172 37 209 11 254 11 c 0
 297 11 322 33 352 81 c 0
 363 98 362 100 362 118 c 2
 362 323 l 2
 362 341 363 343 352 360 c 0
 321 405 299 420 264 420 c 0
 210 420 171 387 150 356 c 0
 121 311 120 251 120 214 c 0
EndSplineSet
EndChar
StartChar: uF2021
Encoding: 991265 991265 10
Width: 1000
Flags: MW
LayerCount: 2
Fore
SplineSet
424 404 m 1
 584 67 l 2
 597 40 617 33 652 31 c 0
 673 32 687 35 695 39 c 0
 708 46 709 59 709 78 c 2
 709 605 l 2
 709 624 708 637 695 644 c 0
 684 650 653 652 627 652 c 27
 604 652 586 644 571 638 c 0
 540 626 520 608 510 587 c 2
 424 404 l 1
95 0 m 1
 95 31 l 1
 109 31 122 33 133 34 c 0
 159 37 179 44 194 53 c 0
 220 68 234 85 240 97 c 2
 354 338 l 1
 220 617 l 2
 206 647 182 652 127 652 c 2
 108 652 l 1
 108 683 l 1
 145 681 207 680 238 680 c 0
 276 680 349 680 384 683 c 1
 384 652 l 1
 341 651 319 634 319 622 c 0
 319 618 324 610 326 607 c 2
 404 444 l 1
 469 583 l 2
 475 595 478 596 478 606 c 0
 478 629 456 651 416 652 c 1
 416 683 l 1
 456 680 504 680 544 680 c 0
 569 680 714 680 753 680 c 0
 791 680 870 680 905 683 c 1
 905 652 l 1
 879 652 l 2
 836 652 817 649 807 640 c 0
 799 633 797 622 797 605 c 2
 797 78 l 2
 797 60 799 48 809 41 c 0
 820 34 839 31 879 31 c 2
 905 31 l 1
 905 0 l 1
 870 3 792 3 753 3 c 0
 715 3 609 3 567 3 c 0
 529 3 456 3 421 0 c 1
 421 31 l 1
 464 32 486 49 486 61 c 0
 486 64 483 68 481 72 c 2
 374 297 l 1
 281 101 l 2
 276 89 271 86 271 77 c 0
 271 59 288 32 334 31 c 1
 334 0 l 1
 298 3 243 3 206 3 c 0
 173 3 131 1 95 0 c 1
EndSplineSet
EndChar
StartChar: uF2022
Encoding: 991266 991266 11
Width: 1000
Flags: MW
LayerCount: 2
Fore
SplineSet
682 78 m 2
 682 60 684 48 694 41 c 0
 701 37 710 32 726 32 c 3
 739 32 748 36 754 39 c 0
 767 46 768 59 768 78 c 2
 768 605 l 2
 768 624 767 637 754 644 c 0
 748 647 739 651 726 651 c 3
 709 651 698 646 692 640 c 0
 684 633 682 622 682 605 c 2
 682 78 l 2
364 403 m 1
 524 67 l 2
 533 47 546 34 566 34 c 3
 572 34 576 37 580 39 c 0
 593 46 594 59 594 78 c 2
 594 605 l 2
 594 624 593 637 580 644 c 0
 576 646 570 649 562 649 c 3
 542 649 526 643 512 638 c 0
 481 625 460 608 450 587 c 2
 364 403 l 1
36 0 m 1
 36 31 l 1
 50 31 63 33 74 34 c 0
 100 37 119 44 134 53 c 0
 160 68 171 87 180 97 c 2
 294 339 l 1
 160 617 l 2
 141 645 123 652 68 652 c 2
 48 652 l 1
 48 683 l 1
 85 681 147 680 178 680 c 0
 216 680 289 680 324 683 c 1
 324 652 l 1
 281 651 260 634 260 622 c 0
 260 618 264 610 266 607 c 2
 344 444 l 1
 410 583 l 2
 416 595 418 596 418 606 c 0
 418 629 396 651 356 652 c 1
 356 683 l 1
 396 680 444 680 484 680 c 0
 509 680 773 680 812 680 c 0
 850 680 929 680 964 683 c 1
 964 652 l 1
 938 652 l 2
 895 652 876 649 866 640 c 0
 858 633 856 622 856 605 c 2
 856 78 l 2
 856 60 858 48 868 41 c 0
 879 34 898 31 938 31 c 2
 964 31 l 1
 964 0 l 1
 929 3 851 3 812 3 c 0
 774 3 550 3 508 3 c 0
 470 3 397 3 362 0 c 1
 362 31 l 1
 405 32 426 49 426 61 c 0
 426 64 424 68 422 72 c 2
 314 296 l 1
 222 101 l 2
 217 89 212 86 212 77 c 0
 212 59 228 32 274 31 c 1
 274 0 l 1
 238 3 183 3 146 3 c 0
 113 3 72 1 36 0 c 1
EndSplineSet
EndChar
StartChar: uF2067
Encoding: 991335 991335 12
Width: 1000
Flags: MW
LayerCount: 2
Fore
SplineSet
724 78 m 2
 724 60 726 48 736 41 c 0
 747 34 778 33 789 39 c 0
 802 46 803 59 803 78 c 2
 803 605 l 2
 803 624 802 637 789 644 c 0
 778 650 744 649 734 640 c 0
 726 633 724 622 724 605 c 2
 724 78 l 2
567 78 m 2
 567 60 569 48 579 41 c 0
 590 34 621 33 632 39 c 0
 645 46 646 59 646 78 c 2
 646 605 l 2
 646 624 645 637 632 644 c 0
 621 650 587 649 577 640 c 0
 569 633 567 622 567 605 c 2
 567 78 l 2
315 403 m 1
 450 67 l 2
 464 33 475 39 475 39 c 0
 486 48 489 59 489 78 c 2
 489 605 l 2
 489 624 487 636 475 644 c 0
 475 644 454 644 438 640 c 0
 430 638 421 633 415 628 c 0
 404 618 392 603 386 587 c 2
 315 403 l 1
31 0 m 1
 31 31 l 1
 45 31 58 33 69 34 c 0
 80 35 109 44 118 49 c 0
 128 55 146 72 156 97 c 2
 250 337 l 1
 136 617 l 2
 123 649 118 652 63 652 c 2
 44 652 l 1
 44 683 l 1
 81 681 123 680 154 680 c 0
 192 680 235 680 270 683 c 1
 270 652 l 1
 227 651 225 642 225 630 c 0
 225 626 231 610 232 607 c 2
 294 453 l 1
 345 583 l 2
 350 595 354 607 354 617 c 0
 354 640 352 651 312 652 c 1
 312 683 l 1
 352 680 380 680 420 680 c 0
 445 680 798 680 837 680 c 0
 875 680 934 680 969 683 c 1
 969 652 l 1
 943 652 l 2
 900 652 901 649 891 640 c 0
 883 633 881 622 881 605 c 2
 881 78 l 2
 881 60 883 48 893 41 c 0
 904 34 903 31 943 31 c 2
 969 31 l 1
 969 0 l 1
 934 3 876 3 837 3 c 0
 799 3 485 3 443 3 c 0
 405 3 352 3 317 0 c 1
 317 31 l 1
 360 32 362 40 362 52 c 0
 362 55 359 68 357 72 c 2
 270 288 l 1
 197 101 l 2
 192 89 187 76 187 67 c 0
 187 49 193 31 230 31 c 1
 230 0 l 1
 194 3 159 3 122 3 c 0
 89 3 67 1 31 0 c 1
EndSplineSet
EndChar
StartChar: uF2068
Encoding: 991336 991336 13
Width: 1000
Flags: MW
LayerCount: 2
Fore
SplineSet
263 423 m 5
 388 67 l 6
 396 44 410 33 434 33 c 7
 445 33 453 36 458 39 c 4
 471 46 472 59 472 78 c 6
 472 605 l 6
 472 624 471 637 458 644 c 4
 453 647 444 649 433 650 c 4
 432 650 433 650 432 650 c 4
 409 648 379 647 364 641 c 4
 333 628 321 609 314 587 c 6
 263 423 l 5
18 0 m 1
 18 31 l 1
 32 31 35 32 46 33 c 0
 72 36 70 36 85 45 c 0
 111 60 120 84 124 97 c 2
 198 343 l 1
 104 617 l 2
 92 649 87 652 50 652 c 2
 32 652 l 1
 32 683 l 1
 69 681 91 680 122 680 c 0
 160 680 193 680 228 683 c 1
 228 652 l 1
 195 651 192 641 192 629 c 0
 192 625 199 611 200 607 c 2
 242 484 l 1
 272 583 l 2
 276 596 282 607 282 617 c 0
 282 640 281 651 250 652 c 1
 250 683 l 1
 290 680 308 680 348 680 c 0
 373 680 610 680 658 680 c 0
 696 680 744 680 780 683 c 1
 780 652 l 1
 755 652 718 650 718 632 c 0
 718 626 721 620 724 605 c 2
 802 176 l 1
 878 582 l 2
 879 588 884 610 884 618 c 0
 884 641 882 651 830 652 c 1
 830 683 l 1
 856 682 894 680 924 680 c 0
 950 680 951 681 982 683 c 1
 982 652 l 1
 975 652 968 652 962 651 c 0
 920 646 918 620 912 585 c 2
 800 -3 l 2
 798 -17 793 -22 776 -22 c 0
 763 -22 757 -19 750 0 c 2
 628 614 l 2
 624 637 614 649 594 649 c 3
 582 649 575 645 570 640 c 0
 562 633 560 622 560 605 c 2
 560 78 l 2
 560 60 562 48 572 41 c 0
 583 34 602 31 642 31 c 2
 668 31 l 1
 668 0 l 1
 633 3 555 3 516 3 c 0
 478 3 412 3 370 3 c 0
 332 3 289 3 254 0 c 1
 254 31 l 1
 297 32 300 42 300 54 c 0
 300 57 296 68 294 72 c 2
 220 282 l 1
 164 101 l 2
 160 88 154 73 154 64 c 0
 154 46 162 31 198 31 c 1
 198 0 l 1
 162 3 127 3 90 3 c 0
 57 3 54 1 18 0 c 1
EndSplineSet
EndChar
StartChar: uF2069
Encoding: 991337 991337 14
Width: 1000
Flags: MW
LayerCount: 2
Fore
SplineSet
18 0 m 1
 18 31 l 1
 32 31 35 33 46 34 c 0
 72 37 81 44 96 53 c 0
 122 68 137 85 142 97 c 2
 251 338 l 1
 122 617 l 2
 108 647 105 652 50 652 c 2
 30 652 l 1
 30 683 l 1
 67 681 109 680 140 680 c 0
 178 680 241 680 276 683 c 1
 276 652 l 1
 233 651 212 638 212 626 c 0
 212 622 217 610 218 607 c 2
 298 441 l 1
 362 583 l 2
 367 595 370 606 370 616 c 0
 370 639 348 651 308 652 c 1
 308 683 l 1
 348 680 396 680 436 680 c 0
 461 680 510 680 558 680 c 0
 596 680 664 680 700 683 c 1
 700 652 l 1
 675 652 618 652 618 623 c 0
 618 621 620 620 624 605 c 2
 742 135 l 1
 858 582 l 2
 860 589 864 594 864 602 c 0
 864 625 842 651 790 652 c 1
 790 683 l 1
 816 682 874 680 904 680 c 0
 930 680 951 681 982 683 c 1
 982 652 l 1
 975 652 968 651 962 651 c 0
 908 645 901 619 892 585 c 2
 740 -3 l 2
 737 -17 733 -22 716 -22 c 0
 703 -22 697 -19 690 0 c 2
 528 614 l 2
 523 633 516 648 500 648 c 3
 486 648 464 642 454 638 c 0
 423 625 411 608 402 587 c 2
 318 399 l 1
 476 67 l 2
 492 34 498 31 550 31 c 2
 570 31 l 1
 570 0 l 1
 528 2 502 3 460 3 c 0
 422 3 349 3 314 0 c 1
 314 31 l 1
 357 32 378 40 378 52 c 0
 378 55 376 68 374 72 c 2
 271 295 l 1
 184 101 l 2
 179 89 174 78 174 69 c 0
 174 51 190 32 236 31 c 1
 236 0 l 1
 200 3 145 3 108 3 c 0
 75 3 54 1 18 0 c 1
EndSplineSet
EndChar
StartChar: uF206A
Encoding: 991338 991338 25
Width: 1000
Flags: MW
LayerCount: 2
Fore
SplineSet
150 0 m 5
 150 31 l 5
 171 31 230 33 278 91 c 5
 352 211 l 5
 274 339 l 6
 255 369 239 382 226 390 c 4
 210 400 194 400 156 400 c 5
 156 431 l 5
 183 429 229 428 250 428 c 4
 266 428 332 430 358 431 c 5
 358 400 l 5
 338 399 324 390 324 375 c 4
 324 369 323 367 332 357 c 5
 388 270 l 5
 432 342 l 6
 436 348 448 363 448 379 c 4
 448 395 439 398 418 400 c 5
 418 431 l 5
 431 430 484 428 514 428 c 4
 540 428 570 429 596 431 c 5
 596 400 l 5
 549 399 509 384 478 348 c 5
 454 322 408 239 408 239 c 5
 520 62 l 6
 545 34 560 31 614 31 c 5
 614 0 l 5
 584 2 545 3 518 3 c 4
 496 3 440 1 410 0 c 5
 410 31 l 5
 437 32 446 47 446 56 c 4
 446 62 435 79 426 89 c 6
 370 181 l 5
 370 181 318 106 306 84 c 5
 301 75 300 68 300 62 c 4
 300 47 306 34 328 31 c 5
 328 0 l 5
 304 1 263 3 234 3 c 4
 208 3 176 2 150 0 c 5
636 0 m 1
 636 31 l 1
 674 31 694 31 704 39 c 0
 712 45 714 56 714 76 c 2
 714 345 l 2
 714 394 705 400 640 400 c 1
 640 431 l 1
 780 442 l 1
 780 75 l 2
 780 57 781 46 788 40 c 4
 797 32 814 31 850 31 c 1
 850 0 l 1
 816 1 781 3 746 3 c 0
 722 3 668 1 636 0 c 1
678 616 m 0
 678 642 699 669 730 669 c 0
 758 669 784 648 784 616 c 0
 784 584 758 563 730 563 c 0
 699 563 678 589 678 616 c 0
EndSplineSet
EndChar
StartChar: uF206B
Encoding: 991339 991339 26
Width: 1000
Flags: MW
LayerCount: 2
Fore
SplineSet
30 0 m 1
 30 31 l 1
 51 31 110 33 158 91 c 1
 232 211 l 1
 154 339 l 2
 135 369 119 382 106 390 c 0
 90 400 74 400 36 400 c 1
 36 431 l 1
 63 429 109 428 130 428 c 0
 146 428 212 430 238 431 c 1
 238 400 l 1
 218 399 204 390 204 375 c 0
 204 369 203 367 212 357 c 1
 268 270 l 1
 312 342 l 2
 316 348 328 363 328 379 c 0
 328 395 319 398 298 400 c 1
 298 431 l 1
 311 430 364 428 394 428 c 0
 420 428 450 429 476 431 c 1
 476 400 l 1
 429 399 389 384 358 348 c 1
 334 322 288 239 288 239 c 1
 400 62 l 2
 425 34 440 31 494 31 c 1
 494 0 l 1
 464 2 425 3 398 3 c 0
 376 3 320 1 290 0 c 1
 290 31 l 1
 317 32 326 47 326 56 c 0
 326 62 315 79 306 89 c 2
 250 181 l 1
 250 181 198 106 186 84 c 1
 181 75 180 68 180 62 c 0
 180 47 186 34 208 31 c 1
 208 0 l 1
 184 1 143 3 114 3 c 0
 88 3 56 2 30 0 c 1
516 0 m 1
 516 31 l 1
 554 31 574 31 584 39 c 0
 592 45 594 56 594 76 c 2
 594 345 l 2
 594 394 585 400 520 400 c 1
 520 431 l 1
 660 442 l 1
 660 75 l 2
 660 57 661 46 668 40 c 0
 677 32 694 31 730 31 c 1
 730 0 l 1
 696 1 661 3 626 3 c 0
 602 3 548 1 516 0 c 1
558 616 m 0
 558 642 579 669 610 669 c 0
 638 669 664 648 664 616 c 0
 664 584 638 563 610 563 c 0
 579 563 558 589 558 616 c 0
756 0 m 1
 756 31 l 1
 794 31 814 31 824 39 c 0
 832 45 834 56 834 76 c 2
 834 345 l 2
 834 394 825 400 760 400 c 1
 760 431 l 1
 900 442 l 1
 900 75 l 2
 900 57 901 46 908 40 c 0
 917 32 934 31 970 31 c 1
 970 0 l 1
 936 1 901 3 866 3 c 0
 842 3 788 1 756 0 c 1
798 616 m 0
 798 642 819 669 850 669 c 0
 878 669 904 648 904 616 c 0
 904 584 878 563 850 563 c 0
 819 563 798 589 798 616 c 0
EndSplineSet
EndChar
StartChar: uF206C
Encoding: 991340 991340 27
Width: 1000
Flags: MW
LayerCount: 2
Fore
SplineSet
10 0 m 1
 10 31 l 1
 31 31 50 33 98 91 c 1
 172 211 l 1
 94 339 l 2
 75 369 59 382 46 390 c 0
 30 400 54 400 16 400 c 1
 16 431 l 1
 43 429 49 428 70 428 c 0
 86 428 152 430 178 431 c 1
 178 400 l 1
 158 399 144 390 144 375 c 0
 144 369 143 367 152 357 c 1
 208 270 l 1
 252 342 l 2
 256 348 268 363 268 379 c 0
 268 395 259 398 238 400 c 1
 238 431 l 1
 251 430 304 428 334 428 c 0
 360 428 350 429 376 431 c 1
 376 400 l 1
 329 399 329 384 298 348 c 1
 274 322 228 239 228 239 c 1
 340 62 l 2
 365 34 340 31 394 31 c 1
 394 0 l 1
 364 2 365 3 338 3 c 0
 316 3 260 1 230 0 c 1
 230 31 l 1
 257 32 266 47 266 56 c 0
 266 62 255 79 246 89 c 2
 190 181 l 1
 190 181 138 106 126 84 c 1
 121 75 120 68 120 62 c 0
 120 47 126 34 148 31 c 1
 148 0 l 1
 124 1 83 3 54 3 c 0
 28 3 36 2 10 0 c 1
416 0 m 1
 416 31 l 1
 454 31 454 31 464 39 c 0
 472 45 474 56 474 76 c 2
 474 345 l 2
 474 394 485 400 420 400 c 1
 420 431 l 1
 540 442 l 1
 540 75 l 2
 540 57 541 46 548 40 c 0
 557 32 554 31 590 31 c 1
 590 0 l 1
 556 1 541 3 506 3 c 0
 482 3 448 1 416 0 c 1
438 616 m 0
 438 642 459 669 490 669 c 0
 518 669 544 648 544 616 c 0
 544 584 518 563 490 563 c 0
 459 563 438 589 438 616 c 0
616 0 m 1
 616 31 l 1
 654 31 654 31 664 39 c 0
 672 45 674 56 674 76 c 2
 674 345 l 2
 674 394 685 400 620 400 c 1
 620 431 l 1
 740 442 l 1
 740 75 l 2
 740 57 741 46 748 40 c 0
 757 32 754 31 790 31 c 1
 790 0 l 1
 756 1 741 3 706 3 c 0
 682 3 648 1 616 0 c 1
638 616 m 0
 638 642 659 669 690 669 c 0
 718 669 744 648 744 616 c 0
 744 584 718 563 690 563 c 0
 659 563 638 589 638 616 c 0
816 0 m 1
 816 31 l 1
 854 31 854 31 864 39 c 0
 872 45 874 56 874 76 c 2
 874 345 l 2
 874 394 885 400 820 400 c 1
 820 431 l 1
 940 442 l 1
 940 75 l 2
 940 57 941 46 948 40 c 0
 957 32 954 31 990 31 c 1
 990 0 l 1
 956 1 941 3 906 3 c 0
 882 3 848 1 816 0 c 1
838 616 m 0
 838 642 859 669 890 669 c 0
 918 669 944 648 944 616 c 0
 944 584 918 563 890 563 c 0
 859 563 838 589 838 616 c 0
EndSplineSet
EndChar
StartChar: uF206D
Encoding: 991341 991341 28
Width: 1000
Flags: MW
LayerCount: 2
Fore
SplineSet
22 0 m 1
 22 31 l 1
 43 31 62 33 110 91 c 1
 184 211 l 1
 106 339 l 2
 87 369 71 382 58 390 c 0
 42 400 66 400 28 400 c 1
 28 431 l 1
 55 429 61 428 82 428 c 0
 98 428 164 430 190 431 c 1
 190 400 l 1
 170 399 156 390 156 375 c 0
 156 369 155 367 164 357 c 1
 220 270 l 1
 264 342 l 2
 268 348 280 363 280 379 c 0
 280 395 271 398 250 400 c 1
 250 431 l 1
 263 430 316 428 346 428 c 0
 372 428 362 429 388 431 c 1
 388 400 l 1
 341 399 341 384 310 348 c 1
 286 322 240 239 240 239 c 1
 352 62 l 2
 377 34 352 31 406 31 c 1
 406 0 l 1
 376 2 377 3 350 3 c 0
 328 3 272 1 242 0 c 1
 242 31 l 1
 269 32 278 47 278 56 c 0
 278 62 267 79 258 89 c 2
 202 181 l 1
 202 181 150 106 138 84 c 1
 133 75 132 68 132 62 c 0
 132 47 138 34 160 31 c 1
 160 0 l 1
 136 1 95 3 66 3 c 0
 40 3 48 2 22 0 c 1
436 0 m 1
 436 31 l 1
 474 31 474 31 484 39 c 0
 492 45 494 56 494 76 c 2
 494 345 l 2
 494 394 505 400 440 400 c 1
 440 431 l 1
 560 442 l 1
 560 75 l 2
 560 57 561 46 568 40 c 0
 577 32 574 31 610 31 c 1
 610 0 l 1
 576 1 561 3 526 3 c 0
 502 3 468 1 436 0 c 1
458 616 m 0
 458 642 481 669 512 669 c 0
 540 669 564 648 564 616 c 0
 564 584 540 563 512 563 c 0
 481 563 458 589 458 616 c 0
610 400 m 1
 610 431 l 1
 640 429 659 428 686 428 c 0
 709 428 766 430 796 431 c 1
 796 400 l 1
 778 400 738 400 738 374 c 0
 738 372 740 371 744 357 c 2
 813 99 l 1
 878 333 l 2
 881 344 884 348 884 357 c 0
 884 376 873 399 836 400 c 1
 836 431 l 1
 853 430 900 428 924 428 c 0
 947 428 955 429 978 431 c 1
 978 400 l 1
 912 399 912 357 906 333 c 2
 816 8 l 2
 812 -3 807 -11 794 -11 c 0
 781 -11 780 -6 774 8 c 2
 670 363 l 2
 666 379 658 388 648 393 c 0
 638 398 642 400 610 400 c 1
EndSplineSet
EndChar
StartChar: uF206E
Encoding: 991342 991342 29
Width: 1000
Flags: MW
LayerCount: 2
Fore
SplineSet
98 0 m 1
 98 31 l 1
 119 31 138 33 186 91 c 1
 258 211 l 1
 180 339 l 2
 161 369 147 382 134 390 c 0
 118 400 140 400 102 400 c 1
 102 431 l 1
 129 429 137 428 158 428 c 0
 174 428 240 430 266 431 c 1
 266 400 l 1
 246 399 230 390 230 375 c 0
 230 369 231 367 240 357 c 1
 294 270 l 1
 338 342 l 2
 342 348 354 363 354 379 c 0
 354 395 347 398 326 400 c 1
 326 431 l 1
 339 430 392 428 422 428 c 0
 448 428 438 429 464 431 c 1
 464 400 l 1
 417 399 415 384 384 348 c 1
 360 322 314 239 314 239 c 1
 426 62 l 2
 451 34 428 31 482 31 c 1
 482 0 l 1
 452 2 453 3 426 3 c 0
 404 3 348 1 318 0 c 1
 318 31 l 1
 345 32 354 47 354 56 c 0
 354 62 341 79 332 89 c 2
 276 181 l 1
 276 181 226 106 214 84 c 1
 209 75 206 68 206 62 c 0
 206 47 214 34 236 31 c 1
 236 0 l 1
 212 1 169 3 140 3 c 0
 114 3 124 2 98 0 c 1
494 400 m 1
 494 431 l 1
 524 429 563 428 590 428 c 0
 613 428 670 430 700 431 c 1
 700 400 l 1
 682 400 642 400 642 374 c 0
 642 372 644 371 648 357 c 2
 718 99 l 1
 782 333 l 2
 785 344 788 348 788 357 c 0
 788 376 777 399 740 400 c 1
 740 431 l 1
 757 430 804 428 828 428 c 0
 851 428 879 429 902 431 c 1
 902 400 l 1
 836 399 816 357 810 333 c 2
 720 8 l 2
 716 -3 711 -11 698 -11 c 0
 685 -11 684 -6 678 8 c 2
 574 363 l 2
 570 379 562 388 552 393 c 0
 542 398 526 400 494 400 c 1
EndSplineSet
EndChar
StartChar: uF2071
Encoding: 991345 991345 81
Width: 1000
Flags: MW
LayerCount: 2
Fore
SplineSet
335 0 m 1
 335 31 l 1
 359 31 l 2
 398 31 417 33 427 41 c 0
 437 48 437 60 437 78 c 2
 437 602 l 2
 437 621 436 633 425 640 c 0
 414 647 396 649 359 649 c 2
 335 649 l 1
 335 680 l 1
 883 680 l 1
 911 455 l 1
 887 455 l 1
 871 593 845 649 695 649 c 2
 575 649 l 2
 528 649 527 642 527 609 c 2
 527 356 l 1
 613 356 l 2
 709 356 719 389 719 473 c 1
 743 473 l 1
 743 208 l 1
 719 208 l 1
 719 293 709 325 613 325 c 2
 527 325 l 1
 527 79 l 2
 527 63 526 52 535 44 c 0
 546 35 569 31 621 31 c 2
 655 31 l 1
 655 0 l 1
 619 3 528 3 487 3 c 0
 448 3 370 3 335 0 c 1
89 572 m 0
 89 633 139 683 200 683 c 0
 265 683 311 629 311 573 c 0
 311 511 261 462 200 462 c 0
 136 462 89 513 89 572 c 0
129 572 m 0
 129 533 162 502 200 502 c 0
 238 502 270 532 270 572 c 0
 270 611 238 643 200 643 c 0
 162 643 129 612 129 572 c 0
EndSplineSet
EndChar
StartChar: uF2072
Encoding: 991346 991346 82
Width: 1000
Flags: MW
LayerCount: 2
Fore
SplineSet
524 0 m 1
 524 29 l 1
 527 29 l 1
 537 29 591 31 591 38 c 1
 591 647 l 1
 591 654 537 657 527 657 c 1
 524 657 l 1
 524 685 l 1
 789 685 l 2
 886 685 941 605 941 514 c 0
 941 438 900 377 833 358 c 1
 907 348 961 279 961 185 c 0
 961 88 907 0 807 0 c 2
 524 0 l 1
668 37 m 1
 668 30 668 29 674 29 c 1
 782 29 l 2
 867 29 874 162 874 186 c 0
 874 203 872 260 850 300 c 0
 830 338 803 348 789 348 c 2
 668 348 l 1
 668 37 l 1
668 366 m 1
 765 366 l 2
 828 366 858 440 858 514 c 0
 858 561 844 657 781 657 c 2
 674 657 l 1
 668 657 668 656 668 649 c 1
 668 366 l 1
26 438 m 1
 39 675 l 1
 461 675 l 1
 474 438 l 1
 447 438 l 1
 440 561 433 647 341 647 c 1
 339 647 291 646 290 646 c 5
 288 645 287 643 287 639 c 5
 287 38 l 5
 287 31 371 29 384 29 c 1
 389 29 l 1
 389 0 l 1
 356 3 286 3 250 3 c 0
 214 3 145 3 112 0 c 1
 112 29 l 1
 117 29 l 1
 130 29 213 31 213 38 c 1
 213 639 l 1
 213 644 214 645 211 646 c 1
 210 646 162 647 160 647 c 1
 67 647 59 561 53 438 c 1
 26 438 l 1
EndSplineSet
EndChar
StartChar: uF2073
Encoding: 991347 991347 83
Width: 1000
Flags: MW
LayerCount: 2
Fore
SplineSet
679 0 m 1
 679 29 l 1
 680 29 690 29 691 29 c 1
 700 30 708 33 715 36 c 0
 727 41 729 46 732 58 c 2
 805 343 l 1
 724 650 l 1
 723 656 691 657 686 657 c 1
 685 657 l 1
 685 685 l 1
 699 682 731 682 746 682 c 0
 763 682 792 682 808 685 c 1
 808 657 l 1
 805 657 777 653 777 651 c 1
 777 650 777 649 777 648 c 1
 833 436 l 1
 883 625 l 2
 884 630 887 635 887 639 c 1
 876 652 862 657 853 657 c 1
 853 685 l 1
 868 682 896 682 911 682 c 0
 926 682 945 682 962 685 c 1
 962 657 l 1
 961 657 952 656 951 656 c 1
 940 656 936 655 927 651 c 0
 914 646 913 642 908 627 c 2
 844 395 l 1
 941 36 l 1
 942 30 975 29 979 29 c 1
 981 29 l 1
 981 0 l 1
 966 3 935 3 919 3 c 0
 902 3 873 3 857 0 c 1
 857 29 l 1
 860 29 889 33 889 35 c 1
 889 36 888 36 888 37 c 1
 817 303 l 1
 757 60 l 2
 756 55 754 50 754 47 c 1
 765 35 779 29 788 29 c 1
 788 0 l 1
 774 3 745 3 730 3 c 0
 714 3 695 3 679 0 c 1
348 0 m 1
 348 29 l 1
 349 29 357 29 358 29 c 1
 385 30 388 41 391 61 c 2
 486 677 l 2
 489 694 490 702 500 702 c 0
 507 702 510 700 514 677 c 2
 612 37 l 1
 613 30 645 29 650 29 c 1
 651 29 l 1
 651 0 l 1
 636 3 605 3 589 3 c 0
 572 3 537 3 522 0 c 1
 522 29 l 1
 524 29 558 29 558 35 c 1
 558 36 558 37 558 38 c 1
 534 208 l 1
 432 208 l 1
 412 62 l 2
 412 61 410 50 410 49 c 0
 410 33 439 29 444 29 c 1
 444 0 l 1
 430 3 409 3 394 3 c 0
 381 3 362 1 348 0 c 1
437 237 m 1
 529 237 l 1
 483 531 l 1
 437 237 l 1
17 0 m 1
 17 32 l 1
 25 32 l 1
 48 32 69 39 69 61 c 1
 69 619 l 1
 69 641 48 648 25 648 c 1
 17 648 l 1
 17 680 l 1
 298 680 l 1
 312 449 l 1
 295 449 l 1
 288 579 276 648 200 648 c 2
 137 648 l 1
 123 648 123 644 123 624 c 1
 123 359 l 1
 158 359 l 2
 205 359 210 396 210 476 c 1
 227 476 l 1
 227 210 l 1
 210 210 l 1
 210 291 205 327 158 327 c 2
 123 327 l 1
 123 61 l 1
 123 40 149 32 177 32 c 1
 187 32 l 1
 187 0 l 1
 168 3 120 3 98 3 c 0
 78 3 35 3 17 0 c 1
EndSplineSet
EndChar
StartChar: uF2690
Encoding: 992912 992912 84
Width: 1000
Flags: MW
LayerCount: 2
Fore
SplineSet
289 320 m 0
 289 400 294 478 326 547 c 1
 367 640 440 666 500 666 c 0
 542 666 624 650 670 554 c 0
 705 480 710 400 710 320 c 0
 710 241 705 163 673 94 c 0
 629 -1 553 -22 499 -22 c 0
 450 -22 377 -2 334 79 c 0
 293 155 289 245 289 320 c 0
372 332 m 0
 372 273 372 181 383 121 c 0
 401 25 460 0 499 0 c 0
 544 0 601 30 616 125 c 0
 627 189 627 257 627 332 c 0
 627 395 627 471 617 527 c 0
 598 626 532 644 499 644 c 0
 474 644 399 635 380 516 c 0
 372 462 372 396 372 332 c 0
EndSplineSet
EndChar
StartChar: uF2691
Encoding: 992913 992913 85
Width: 1000
Flags: MW
LayerCount: 2
Fore
SplineSet
339 571 m 1
 339 602 l 5
 339 602 l 1
 375 602 457 606 514 659 c 0
 516 661 519 664 521 666 c 1
 544 666 544 664 544 640 c 2
 544 79 l 2
 544 42 547 31 637 31 c 2
 669 31 l 1
 669 0 l 1
 634 3 547 3 507 3 c 0
 467 3 380 3 345 0 c 1
 345 31 l 1
 377 31 l 2
 467 31 470 43 470 79 c 2
 470 597 l 1
 423 574 363 571 339 571 c 1
 339 571 l 1
EndSplineSet
EndChar
StartChar: uF2692
Encoding: 992914 992914 86
Width: 1000
Flags: MW
LayerCount: 2
Fore
SplineSet
300 0 m 1
 300 7 300 12 300 16 c 6
 300 26 303 29 311 37 c 2
 503 251 l 2
 558 313 608 392 608 472 c 0
 608 554 565 635 474 635 c 0
 416 635 362 598 339 533 c 1
 342 534 344 534 352 534 c 0
 387 534 405 508 405 482 c 0
 405 441 370 429 353 429 c 0
 350 429 300 429 300 485 c 0
 300 574 374 666 487 666 c 0
 609 666 699 586 699 472 c 0
 699 372 639 318 483 180 c 1
 377 77 l 1
 557 77 l 2
 579 77 645 77 652 85 c 1
 662 100 669 144 674 174 c 1
 699 174 l 1
 671 0 l 1
 300 0 l 1
EndSplineSet
EndChar
StartChar: uF2693
Encoding: 992915 992915 87
Width: 1000
Flags: MW
LayerCount: 2
Fore
SplineSet
292 135 m 0
 292 179 324 193 348 193 c 0
 377 193 404 173 404 137 c 0
 404 99 373 77 338 82 c 1
 373 23 448 6 491 6 c 0
 535 6 604 35 604 171 c 0
 604 269 567 337 485 337 c 2
 441 337 l 2
 424 337 417 337 417 348 c 0
 417 358 424 359 432 360 c 0
 439 360 463 362 471 363 c 0
 496 364 530 367 560 415 c 1
 586 459 588 517 588 529 c 0
 588 619 533 641 492 641 c 0
 456 641 390 628 359 579 c 1
 374 579 421 579 421 529 c 0
 421 500 401 478 370 478 c 0
 341 478 319 497 319 530 c 0
 319 606 395 666 496 666 c 0
 592 666 680 610 680 528 c 0
 680 449 622 379 540 352 c 1
 644 331 707 253 707 171 c 0
 707 69 616 -22 494 -22 c 0
 385 -22 292 44 292 135 c 0
EndSplineSet
EndChar
StartChar: uF2694
Encoding: 992916 992916 88
Width: 1000
Flags: MW
LayerCount: 2
Fore
SplineSet
278 165 m 1
 278 196 l 1
 585 665 l 2
 593 677 596 677 605 677 c 0
 621 677 621 671 621 651 c 2
 621 196 l 1
 721 196 l 1
 721 165 l 1
 621 165 l 1
 621 78 l 2
 621 42 623 31 697 31 c 2
 718 31 l 1
 718 0 l 1
 677 3 624 3 582 3 c 0
 540 3 488 3 447 0 c 1
 447 31 l 1
 468 31 l 2
 542 31 544 42 544 78 c 2
 544 165 l 1
 278 165 l 1
306 196 m 1
 550 196 l 1
 550 569 l 1
 306 196 l 1
EndSplineSet
EndChar
StartChar: uF2695
Encoding: 992917 992917 89
Width: 1000
Flags: MW
LayerCount: 2
Fore
SplineSet
300 161 m 0
 300 207 335 214 349 214 c 0
 382 214 399 189 399 165 c 0
 399 141 382 116 349 116 c 0
 338 116 335 117 332 118 c 1
 349 59 406 6 479 6 c 0
 525 6 562 32 586 71 c 1
 610 113 610 173 610 208 c 0
 610 258 608 297 592 334 c 0
 584 352 559 398 507 398 c 0
 426 398 389 344 378 328 c 0
 374 322 372 319 365 319 c 0
 351 319 351 327 351 345 c 2
 351 641 l 2
 351 657 351 665 361 665 c 0
 363 665 365 665 373 662 c 0
 420 641 466 634 506 634 c 0
 573 634 622 654 642 663 c 0
 647 666 649 666 650 666 c 0
 657 666 660 661 660 655 c 0
 660 642 590 551 467 551 c 0
 435 551 402 558 382 564 c 1
 382 369 l 1
 418 404 461 420 509 420 c 0
 617 420 699 320 699 201 c 0
 699 74 597 -22 481 -22 c 0
 369 -22 300 75 300 161 c 0
EndSplineSet
EndChar
StartChar: uF2696
Encoding: 992918 992918 90
Width: 1000
Flags: MW
LayerCount: 2
Fore
SplineSet
292 316 m 0
 292 537 427 666 555 666 c 0
 638 666 682 618 682 558 c 0
 682 519 652 510 636 510 c 0
 614 510 590 525 590 556 c 0
 590 601 630 601 645 601 c 1
 623 635 581 641 557 641 c 0
 527 641 471 628 430 565 c 0
 402 522 382 455 382 352 c 2
 382 328 l 1
 402 376 439 427 507 427 c 0
 618 427 707 331 707 204 c 0
 707 72 612 -22 501 -22 c 0
 444 -22 379 4 337 85 c 5
 310 137 292 212 292 316 c 0
384 226 m 0
 384 208 384 128 402 81 c 0
 408 66 438 6 501 6 c 0
 524 6 570 11 600 71 c 0
 617 107 617 157 617 205 c 0
 617 254 617 305 599 342 c 0
 568 404 522 404 506 404 c 0
 416 404 384 304 384 226 c 0
EndSplineSet
EndChar
StartChar: uF2697
Encoding: 992919 992919 91
Width: 1000
Flags: MW
LayerCount: 2
Fore
SplineSet
306 470 m 1
 339 676 l 1
 364 676 l 1
 366 664 368 654 398 649 c 5
 417 646 446 644 492 644 c 2
 735 644 l 1
 735 623 735 621 726 609 c 2
 591 419 l 2
 547 357 533 271 529 248 c 0
 521 194 518 139 518 84 c 2
 518 33 l 2
 518 23 518 -22 472 -22 c 0
 426 -22 426 23 426 33 c 0
 426 135 459 274 549 409 c 0
 571 442 650 551 661 567 c 1
 454 567 l 2
 441 567 363 567 356 561 c 0
 343 549 334 486 331 470 c 1
 306 470 l 1
EndSplineSet
EndChar
StartChar: uF2698
Encoding: 992920 992920 92
Width: 1000
Flags: MW
LayerCount: 2
Fore
SplineSet
292 151 m 0
 292 250 378 306 436 335 c 1
 411 352 374 377 363 389 c 0
 321 436 319 481 319 499 c 0
 319 592 400 666 500 666 c 0
 591 666 680 609 680 517 c 0
 680 451 631 399 559 362 c 1
 623 322 639 312 658 291 c 0
 696 249 707 204 707 168 c 0
 707 61 612 -22 499 -22 c 0
 394 -22 292 45 292 151 c 0
342 151 m 0
 342 68 414 6 500 6 c 0
 582 6 657 58 657 132 c 0
 657 193 610 223 582 242 c 1
 459 320 l 1
 374 273 342 209 342 151 c 0
363 538 m 0
 363 521 367 487 413 457 c 2
 537 377 l 1
 597 412 636 460 636 517 c 0
 636 589 572 641 499 641 c 0
 428 641 363 599 363 538 c 0
EndSplineSet
EndChar
StartChar: uF2699
Encoding: 992921 992921 93
Width: 1000
Flags: MW
LayerCount: 2
Fore
SplineSet
292 441 m 0
 292 516 315 558 356 603 c 1
 399 648 448 666 503 666 c 0
 592 666 707 598 707 329 c 0
 707 114 585 -22 456 -22 c 0
 371 -22 317 19 317 86 c 0
 317 125 347 134 363 134 c 0
 385 134 409 119 409 88 c 0
 409 71 401 42 357 42 c 1
 384 8 438 6 455 6 c 0
 489 6 539 22 575 83 c 4
 600 125 617 190 617 286 c 2
 617 318 l 1
 594 260 553 218 492 218 c 0
 380 218 292 316 292 441 c 0
382 440 m 0
 382 391 382 341 400 304 c 0
 431 241 477 241 493 241 c 0
 581 241 615 338 615 421 c 0
 615 467 611 530 599 562 c 0
 582 607 549 641 503 641 c 0
 468 641 430 628 403 578 c 0
 382 541 382 494 382 440 c 0
EndSplineSet
EndChar
StartChar: uF269A
Encoding: 992922 992922 94
Width: 1000
Flags: MW
LayerCount: 2
Fore
SplineSet
605 568 m 1
 410 50 l 1
 436 12 472 0 499 0 c 0
 544 0 601 30 616 125 c 0
 627 189 627 257 627 332 c 0
 627 395 627 471 617 527 c 0
 614 543 610 556 605 568 c 1
372 332 m 0
 372 273 372 181 383 121 c 0
 386 104 391 90 396 77 c 1
 590 595 l 1
 562 635 522 644 499 644 c 0
 474 644 399 635 380 516 c 0
 372 462 372 396 372 332 c 0
289 320 m 0
 289 400 294 478 326 547 c 1
 367 640 440 666 500 666 c 0
 542 666 624 650 670 554 c 0
 705 480 710 400 710 320 c 0
 710 241 705 163 673 94 c 0
 629 -1 553 -22 499 -22 c 0
 450 -22 377 -2 334 79 c 0
 293 155 289 245 289 320 c 0
EndSplineSet
EndChar
StartChar: uF269B
Encoding: 992923 992923 95
Width: 1000
Flags: MW
LayerCount: 2
Fore
SplineSet
644 78 m 2
 644 60 646 48 656 41 c 0
 664 36 677 32 701 32 c 3
 721 32 734 35 742 39 c 0
 755 46 756 59 756 78 c 2
 756 605 l 2
 756 624 755 637 742 644 c 0
 734 648 720 651 700 651 c 3
 674 651 662 647 654 640 c 0
 646 633 644 622 644 605 c 2
 644 78 l 2
444 78 m 2
 444 60 446 48 456 41 c 0
 464 36 477 32 501 32 c 3
 521 32 534 35 542 39 c 0
 555 46 556 59 556 78 c 2
 556 605 l 2
 556 624 555 637 542 644 c 0
 534 648 520 651 500 651 c 3
 474 651 462 647 454 640 c 0
 446 633 444 622 444 605 c 2
 444 78 l 2
244 78 m 2
 244 60 246 48 256 41 c 0
 264 36 277 32 301 32 c 3
 321 32 334 35 342 39 c 0
 355 46 356 59 356 78 c 2
 356 605 l 2
 356 624 355 637 342 644 c 0
 334 648 320 651 300 651 c 3
 274 651 262 647 254 640 c 0
 246 633 244 622 244 605 c 2
 244 78 l 2
48 0 m 1
 48 31 l 1
 74 31 l 2
 110 31 131 33 142 39 c 0
 155 46 156 59 156 78 c 2
 156 605 l 2
 156 624 155 637 142 644 c 0
 131 650 110 652 74 652 c 2
 48 652 l 1
 48 683 l 1
 83 680 161 680 200 680 c 0
 238 680 761 680 800 680 c 0
 838 680 917 680 952 683 c 1
 952 652 l 1
 926 652 l 2
 883 652 864 649 854 640 c 0
 846 633 844 622 844 605 c 2
 844 78 l 2
 844 60 846 48 856 41 c 0
 867 34 886 31 926 31 c 2
 952 31 l 1
 952 0 l 1
 917 3 839 3 800 3 c 0
 762 3 239 3 200 3 c 0
 162 3 83 3 48 0 c 1
EndSplineSet
EndChar
StartChar: uF2E46
Encoding: 994886 994886 96
Width: 1000
Flags: MW
LayerCount: 2
Fore
SplineSet
518 0 m 1
 518 32 l 1
 530 32 l 2
 543 32 544 32 555 35 c 0
 568 38 568 39 568 61 c 2
 568 654 l 1
 518 654 l 1
 518 686 l 1
 620 686 l 2
 630 686 650 686 655 661 c 2
 755 182 l 1
 846 661 l 2
 850 686 856 686 866 686 c 2
 982 686 l 1
 982 654 l 1
 938 654 l 1
 938 32 l 1
 982 32 l 1
 982 0 l 1
 965 3 923 3 904 3 c 0
 885 3 843 3 826 0 c 1
 826 32 l 1
 865 32 l 1
 865 654 l 1
 865 654 l 1
 747 24 l 2
 745 15 741 0 732 0 c 0
 727 0 721 5 717 25 c 2
 593 641 l 1
 592 641 l 1
 592 61 l 2
 592 39 593 38 606 35 c 0
 614 33 622 32 630 32 c 2
 642 32 l 1
 642 0 l 1
 623 3 599 3 580 3 c 0
 562 3 535 3 518 0 c 1
23 0 m 1
 23 29 l 1
 25 29 36 29 37 29 c 1
 77 30 82 41 87 61 c 2
 229 677 l 2
 233 694 235 702 250 702 c 0
 260 702 266 700 272 677 c 2
 419 37 l 1
 420 30 468 29 475 29 c 1
 477 29 l 1
 477 0 l 1
 455 3 408 3 384 3 c 0
 359 3 306 3 284 0 c 1
 284 29 l 1
 287 29 338 29 338 35 c 1
 338 36 338 37 338 38 c 1
 301 208 l 1
 149 208 l 1
 118 62 l 2
 118 61 116 50 116 49 c 0
 116 33 160 29 167 29 c 1
 167 0 l 1
 146 3 113 3 91 3 c 0
 72 3 44 1 23 0 c 1
156 237 m 1
 294 237 l 1
 225 531 l 1
 156 237 l 1
EndSplineSet
EndChar
StartChar: uF2E47
Encoding: 994887 994887 97
Width: 1000
Flags: MW
LayerCount: 2
Fore
SplineSet
522 0 m 1
 522 29 l 1
 524 29 l 1
 533 29 583 31 583 38 c 1
 583 647 l 1
 583 654 533 657 524 657 c 1
 522 657 l 1
 522 685 l 1
 543 682 596 682 620 682 c 0
 644 682 698 682 719 685 c 1
 719 657 l 1
 716 657 l 1
 707 657 658 654 658 647 c 1
 658 313 l 1
 863 635 l 1
 860 639 866 640 859 646 c 0
 848 652 838 657 827 657 c 1
 827 685 l 1
 847 682 887 682 908 682 c 0
 913 682 944 682 965 685 c 1
 965 657 l 1
 964 657 955 656 954 656 c 1
 933 654 908 646 898 630 c 2
 767 426 l 1
 917 54 l 2
 926 34 929 29 958 29 c 1
 959 29 973 29 974 29 c 1
 974 0 l 1
 952 3 916 3 894 3 c 0
 869 3 820 3 797 0 c 1
 797 29 l 1
 815 29 829 29 837 41 c 1
 836 48 834 52 832 59 c 2
 717 350 l 1
 658 256 l 1
 658 38 l 1
 658 31 707 29 716 29 c 1
 719 29 l 1
 719 0 l 1
 698 3 644 3 620 3 c 0
 596 3 543 3 522 0 c 1
22 0 m 1
 22 29 l 1
 24 29 l 1
 33 29 83 31 83 38 c 1
 83 647 l 1
 83 654 33 657 24 657 c 1
 22 657 l 1
 22 685 l 1
 43 682 96 682 120 682 c 0
 144 682 198 682 219 685 c 1
 219 657 l 1
 216 657 l 1
 207 657 158 654 158 647 c 1
 158 313 l 1
 363 635 l 1
 360 639 366 640 359 646 c 0
 348 652 338 657 327 657 c 1
 327 685 l 1
 347 682 387 682 408 682 c 0
 413 682 444 682 465 685 c 1
 465 657 l 1
 464 657 455 656 454 656 c 1
 433 654 408 646 398 630 c 2
 267 426 l 1
 417 54 l 2
 426 34 429 29 458 29 c 1
 459 29 473 29 474 29 c 1
 474 0 l 1
 452 3 416 3 394 3 c 0
 369 3 320 3 297 0 c 1
 297 29 l 1
 315 29 329 29 337 41 c 1
 336 48 334 52 332 59 c 2
 217 350 l 1
 158 256 l 1
 158 38 l 1
 158 31 207 29 216 29 c 1
 219 29 l 1
 219 0 l 1
 198 3 144 3 120 3 c 0
 96 3 43 3 22 0 c 1
EndSplineSet
EndChar
StartChar: uF2E48
Encoding: 994888 994888 98
Width: 1000
Flags: MW
LayerCount: 2
Fore
SplineSet
602 214 m 0
 602 339 682 448 786 448 c 0
 886 448 969 342 969 214 c 0
 969 87 885 -11 785 -11 c 0
 688 -11 602 85 602 214 c 0
671 222 m 0
 671 186 670 125 691 81 c 0
 713 35 750 14 786 14 c 0
 828 14 864 43 882 88 c 0
 900 132 901 186 901 222 c 0
 901 260 901 318 879 361 c 0
 857 404 822 426 785 426 c 0
 752 426 713 405 691 359 c 1
 671 315 671 261 671 222 c 0
27 0 m 1
 27 31 l 1
 39 31 50 32 59 34 c 0
 77 37 89 44 97 52 c 0
 113 68 113 90 113 105 c 2
 113 627 l 2
 113 646 112 647 93 650 c 0
 81 651 63 652 51 652 c 2
 27 652 l 1
 27 683 l 1
 168 683 l 2
 184 683 186 682 193 670 c 2
 486 151 l 1
 486 578 l 2
 486 594 486 616 469 632 c 0
 462 640 449 646 432 649 c 0
 423 651 412 652 400 652 c 1
 400 683 l 1
 429 682 470 680 497 680 c 0
 524 680 565 682 594 683 c 1
 594 652 l 1
 581 652 570 651 561 649 c 0
 546 646 535 640 528 634 c 0
 510 618 509 594 509 578 c 2
 509 26 l 2
 509 7 509 0 497 0 c 0
 491 0 490 1 483 13 c 2
 144 613 l 2
 141 619 140 620 136 625 c 1
 136 105 l 2
 136 90 136 70 150 54 c 0
 158 45 171 37 192 33 c 0
 200 32 210 31 222 31 c 1
 222 0 l 1
 193 1 151 3 124 3 c 0
 97 3 56 1 27 0 c 1
EndSplineSet
EndChar
StartChar: uF2E49
Encoding: 994889 994889 99
Width: 1000
Flags: MW
LayerCount: 2
Fore
SplineSet
522 0 m 1
 522 29 l 1
 525 29 l 1
 534 29 583 31 583 38 c 1
 583 647 l 1
 583 654 534 657 525 657 c 1
 522 657 l 1
 522 685 l 1
 544 682 597 682 621 682 c 0
 645 682 698 682 720 685 c 1
 720 657 l 1
 718 657 l 1
 709 657 659 654 659 647 c 1
 659 371 l 1
 841 371 l 1
 841 647 l 1
 841 654 791 657 782 657 c 1
 780 657 l 1
 780 685 l 1
 802 682 855 682 879 682 c 0
 903 682 956 682 978 685 c 1
 978 657 l 1
 976 657 l 1
 967 657 917 654 917 647 c 1
 917 38 l 1
 917 31 967 29 976 29 c 1
 978 29 l 1
 978 0 l 1
 956 3 903 3 879 3 c 0
 855 3 802 3 780 0 c 1
 780 29 l 1
 782 29 l 1
 791 29 841 31 841 38 c 1
 841 342 l 1
 659 342 l 1
 659 38 l 1
 659 31 709 29 718 29 c 1
 720 29 l 1
 720 0 l 1
 698 3 645 3 621 3 c 0
 597 3 544 3 522 0 c 1
25 0 m 1
 25 29 l 1
 28 29 l 1
 38 29 95 31 95 38 c 1
 95 647 l 1
 95 654 38 657 28 657 c 1
 25 657 l 1
 25 685 l 1
 290 685 l 2
 395 685 460 600 460 492 c 0
 460 378 385 320 296 320 c 2
 176 320 l 1
 176 38 l 1
 176 31 233 29 243 29 c 1
 246 29 l 1
 246 0 l 1
 221 3 161 3 133 3 c 0
 105 3 50 3 25 0 c 1
173 343 m 1
 266 343 l 2
 366 343 371 426 371 492 c 0
 371 559 366 657 267 657 c 2
 179 657 l 1
 173 657 173 656 173 649 c 1
 173 343 l 1
EndSplineSet
EndChar
StartChar: uF2E4A
Encoding: 994890 994890 100
Width: 1000
Flags: MW
LayerCount: 2
Fore
SplineSet
518 0 m 1
 518 32 l 1
 530 32 l 2
 543 32 544 32 555 35 c 0
 568 38 568 39 568 61 c 2
 568 654 l 1
 518 654 l 1
 518 686 l 1
 620 686 l 2
 630 686 650 686 655 661 c 2
 755 182 l 1
 846 661 l 2
 850 686 856 686 866 686 c 2
 982 686 l 1
 982 654 l 1
 938 654 l 1
 938 32 l 1
 982 32 l 1
 982 0 l 1
 965 3 923 3 904 3 c 0
 885 3 843 3 826 0 c 1
 826 32 l 1
 865 32 l 1
 865 654 l 1
 865 654 l 1
 747 24 l 2
 745 15 741 0 732 0 c 0
 727 0 721 5 717 25 c 2
 593 641 l 1
 592 641 l 1
 592 61 l 2
 592 39 593 38 606 35 c 0
 614 33 622 32 630 32 c 2
 642 32 l 1
 642 0 l 1
 623 3 599 3 580 3 c 0
 562 3 535 3 518 0 c 1
25 0 m 1
 25 29 l 1
 28 29 l 1
 38 29 95 31 95 38 c 1
 95 647 l 1
 95 654 38 657 28 657 c 1
 25 657 l 1
 25 685 l 1
 290 685 l 2
 395 685 460 600 460 492 c 0
 460 378 385 320 296 320 c 2
 176 320 l 1
 176 38 l 1
 176 31 233 29 243 29 c 1
 246 29 l 1
 246 0 l 1
 221 3 161 3 133 3 c 0
 105 3 50 3 25 0 c 1
173 343 m 1
 266 343 l 2
 366 343 371 426 371 492 c 0
 371 559 366 657 267 657 c 2
 179 657 l 1
 173 657 173 656 173 649 c 1
 173 343 l 1
EndSplineSet
EndChar
StartChar: uF2E4B
Encoding: 994891 994891 101
Width: 1000
Flags: MW
LayerCount: 2
Fore
SplineSet
523 0 m 1
 523 29 l 1
 526 29 l 1
 535 29 587 31 587 38 c 1
 587 647 l 1
 587 654 535 657 526 657 c 1
 523 657 l 1
 523 685 l 1
 743 685 l 2
 851 685 917 601 917 501 c 0
 917 433 883 369 816 340 c 1
 843 323 875 292 884 223 c 1
 884 219 890 148 891 139 c 1
 895 87 900 20 935 20 c 0
 952 20 970 41 973 93 c 0
 974 105 975 115 986 115 c 0
 992 115 999 113 999 94 c 0
 999 76 991 -13 930 -13 c 0
 907 -13 875 -9 849 16 c 1
 811 51 811 98 811 164 c 0
 811 236 806 265 786 300 c 0
 767 334 741 334 732 334 c 2
 662 334 l 1
 662 38 l 1
 662 31 715 29 724 29 c 1
 726 29 l 1
 726 0 l 1
 704 3 650 3 625 3 c 0
 600 3 545 3 523 0 c 1
662 352 m 1
 731 352 l 2
 828 352 836 442 836 501 c 0
 836 579 817 657 729 657 c 1
 727 657 666 656 665 656 c 1
 662 655 662 654 662 649 c 1
 662 352 l 1
25 0 m 1
 25 29 l 1
 28 29 l 1
 38 29 95 31 95 38 c 1
 95 647 l 1
 95 654 38 657 28 657 c 1
 25 657 l 1
 25 685 l 1
 290 685 l 2
 395 685 460 600 460 492 c 0
 460 378 385 320 296 320 c 2
 176 320 l 1
 176 38 l 1
 176 31 233 29 243 29 c 1
 246 29 l 1
 246 0 l 1
 221 3 161 3 133 3 c 0
 105 3 50 3 25 0 c 1
173 343 m 1
 266 343 l 2
 366 343 371 426 371 492 c 0
 371 559 366 657 267 657 c 2
 179 657 l 1
 173 657 173 656 173 649 c 1
 173 343 l 1
EndSplineSet
EndChar
StartChar: uF2E4C
Encoding: 994892 994892 102
Width: 1000
Flags: MW
LayerCount: 2
Fore
SplineSet
712 360 m 1
 712 376 l 1
 724 376 l 2
 744 376 747 376 753 380 c 0
 759 384 759 390 759 399 c 2
 759 662 l 2
 759 672 759 678 751 682 c 0
 744 685 742 686 724 686 c 2
 712 686 l 1
 712 702 l 1
 730 700 765 700 788 700 c 0
 813 700 854 700 872 702 c 1
 872 686 l 1
 856 686 l 2
 834 686 829 685 821 682 c 0
 812 678 812 671 812 662 c 2
 812 396 l 2
 812 380 808 376 832 376 c 2
 874 376 l 2
 962 376 968 438 974 489 c 1
 986 489 l 1
 972 360 l 1
 712 360 l 1
372 360 m 1
 372 376 l 1
 384 376 l 2
 402 376 403 376 410 380 c 0
 417 384 418 389 418 399 c 2
 418 661 l 2
 418 670 418 676 412 680 c 0
 406 684 404 684 384 684 c 2
 372 684 l 1
 372 700 l 1
 654 700 l 1
 668 588 l 1
 656 588 l 1
 648 658 634 684 558 684 c 2
 500 684 l 2
 472 684 471 680 471 664 c 2
 471 544 l 1
 514 544 l 2
 562 544 568 560 568 603 c 1
 580 603 l 1
 580 470 l 1
 568 470 l 1
 568 512 562 529 514 529 c 2
 471 529 l 1
 471 396 l 2
 471 380 472 376 500 376 c 2
 560 376 l 2
 646 376 658 412 670 489 c 1
 682 489 l 1
 661 360 l 1
 372 360 l 1
14 586 m 1
 23 698 l 1
 328 698 l 1
 338 586 l 1
 326 586 l 1
 319 666 312 683 236 683 c 0
 226 683 220 683 213 682 c 0
 202 680 203 673 203 663 c 2
 203 400 l 2
 203 391 203 384 212 380 c 0
 220 376 225 376 250 376 c 2
 270 376 l 1
 270 360 l 1
 250 362 204 362 176 362 c 0
 148 362 101 362 81 360 c 1
 81 376 l 1
 101 376 l 2
 129 376 136 378 143 382 c 0
 149 386 149 392 149 400 c 2
 149 663 l 2
 149 675 150 680 137 682 c 0
 131 683 125 683 116 683 c 0
 40 683 33 666 26 586 c 1
 14 586 l 1
EndSplineSet
EndChar
StartChar: uF2E4D
Encoding: 994893 994893 103
Width: 1000
Flags: MW
LayerCount: 2
Fore
SplineSet
470 360 m 1
 470 376 l 1
 479 376 486 377 492 378 c 0
 502 380 510 384 514 388 c 0
 522 396 522 405 522 412 c 2
 522 662 l 2
 522 672 522 678 516 682 c 0
 510 686 500 686 482 686 c 2
 470 686 l 1
 470 702 l 1
 554 702 l 2
 566 702 568 701 572 690 c 2
 680 410 l 1
 790 692 l 2
 794 701 793 702 806 702 c 2
 891 702 l 1
 891 686 l 1
 879 686 l 2
 859 686 849 685 844 681 c 0
 839 677 840 671 840 662 c 2
 840 399 l 2
 840 390 839 384 844 380 c 4
 849 376 859 376 879 376 c 2
 891 376 l 1
 891 360 l 1
 873 362 840 362 820 362 c 0
 800 362 766 362 748 360 c 1
 748 376 l 1
 760 376 l 2
 782 376 792 377 796 382 c 0
 800 386 799 391 799 399 c 2
 799 686 l 1
 798 686 l 1
 676 370 l 2
 674 364 672 360 666 360 c 0
 661 360 658 365 656 371 c 2
 536 682 l 1
 536 682 l 1
 536 412 l 2
 536 405 535 396 542 388 c 0
 546 384 553 380 564 378 c 0
 570 377 578 376 587 376 c 1
 587 360 l 1
 569 360 544 362 528 362 c 0
 512 362 488 360 470 360 c 1
109 586 m 1
 118 698 l 1
 424 698 l 1
 434 586 l 1
 421 586 l 1
 414 666 407 683 331 683 c 0
 321 683 308 683 302 682 c 0
 293 680 294 673 294 663 c 2
 294 400 l 2
 294 391 293 384 301 380 c 4
 308 376 321 376 346 376 c 2
 366 376 l 1
 366 360 l 1
 346 362 294 362 271 362 c 0
 248 362 196 362 176 360 c 1
 176 376 l 1
 196 376 l 2
 224 376 238 378 244 382 c 0
 249 386 249 392 249 400 c 2
 249 663 l 2
 249 675 248 680 238 682 c 0
 233 683 221 683 212 683 c 0
 136 683 129 666 122 586 c 1
 109 586 l 1
EndSplineSet
EndChar
StartChar: uF2E4E
Encoding: 994894 994894 104
Width: 1000
Flags: MW
LayerCount: 2
Fore
SplineSet
544 2 m 2
 544 202 l 2
 544 220 543 227 556 227 c 0
 559 227 567 227 568 217 c 0
 569 181 572 117 630 63 c 0
 683 14 729 9 758 9 c 0
 842 9 892 81 892 152 c 0
 892 185 883 218 862 244 c 1
 834 281 803 293 776 300 c 0
 706 317 685 329 674 333 c 0
 596 360 544 428 544 511 c 0
 544 617 627 705 738 705 c 0
 827 705 847 679 868 659 c 1
 900 692 l 2
 906 699 911 705 918 705 c 0
 929 705 930 698 930 681 c 2
 930 480 l 2
 930 461 929 456 916 456 c 0
 905 456 905 462 904 468 c 0
 898 513 907 677 740 677 c 0
 662 677 608 616 608 546 c 0
 608 488 647 432 708 414 c 2
 806 383 l 2
 888 357 956 286 956 186 c 0
 956 76 877 -22 760 -22 c 0
 671 -22 636 12 605 46 c 1
 572 -7 570 -8 570 -9 c 0
 563 -20 561 -22 554 -22 c 0
 543 -22 544 -15 544 2 c 2
15 657 m 1
 15 685 l 1
 36 682 80 682 104 682 c 0
 129 682 178 682 200 685 c 1
 200 657 l 1
 197 657 146 657 146 651 c 1
 146 651 146 650 147 647 c 1
 273 135 l 5
 393 623 l 2
 394 627 395 632 395 637 c 0
 395 651 355 657 345 657 c 1
 345 685 l 1
 367 682 397 682 420 682 c 0
 436 682 464 684 486 685 c 1
 486 657 l 1
 485 657 475 656 474 656 c 1
 433 655 428 643 424 626 c 2
 272 12 l 2
 266 -10 260 -11 250 -11 c 0
 235 -11 233 -4 228 14 c 2
 70 649 l 1
 68 657 23 657 15 657 c 1
EndSplineSet
EndChar
StartChar: uF2E4F
Encoding: 994895 994895 105
Width: 1000
Flags: MW
LayerCount: 2
Fore
SplineSet
567 157 m 0
 567 250 635 331 729 331 c 0
 769 331 808 318 829 292 c 0
 839 281 844 266 844 250 c 0
 844 228 830 215 810 215 c 0
 789 215 775 230 775 250 c 0
 775 260 779 282 810 284 c 1
 784 311 737 312 730 312 c 0
 690 312 629 280 629 158 c 0
 629 37 695 5 735 5 c 0
 763 5 811 14 833 84 c 0
 835 88 836 91 843 91 c 0
 845 91 852 92 852 84 c 0
 852 76 828 -14 728 -14 c 0
 641 -14 567 61 567 157 c 0
238 0 m 0
 238 3 241 6 248 16 c 2
 765 723 l 2
 769 729 778 748 789 748 c 0
 793 748 799 744 799 736 c 0
 799 732 792 726 790 723 c 2
 272 15 l 2
 258 -4 255 -12 247 -12 c 0
 241 -12 238 -6 238 0 c 0
182 487 m 0
 182 449 212 423 249 423 c 0
 283 423 337 449 337 520 c 2
 337 595 l 1
 213 591 182 528 182 487 c 0
124 486 m 0
 124 519 143 557 199 583 c 1
 246 605 299 608 337 610 c 1
 337 638 l 2
 337 705 294 734 257 734 c 0
 233 734 196 726 176 700 c 1
 210 699 215 674 215 665 c 0
 215 645 201 631 180 631 c 0
 160 631 146 644 146 666 c 0
 146 682 151 697 161 710 c 0
 181 735 218 751 259 751 c 0
 295 751 333 738 362 709 c 0
 389 681 389 653 389 621 c 2
 389 471 l 2
 389 467 391 433 416 433 c 0
 426 433 435 435 435 423 c 0
 435 410 426 410 411 410 c 2
 401 410 l 2
 366 410 345 442 342 472 c 1
 328 437 294 406 244 406 c 0
 197 406 124 425 124 486 c 0
EndSplineSet
EndChar
StartChar: uF2E50
Encoding: 994896 994896 106
Width: 1000
Flags: MW
LayerCount: 2
Fore
SplineSet
912 53 m 0
 912 80 924 105 941 105 c 0
 956 105 970 84 970 53 c 0
 970 22 955 0 941 0 c 0
 924 0 912 26 912 53 c 0
423 0 m 1
 423 31 l 1
 442 31 447 31 454 38 c 0
 461 44 462 55 462 76 c 2
 462 344 l 2
 462 393 462 400 423 400 c 1
 423 431 l 1
 504 442 l 1
 504 337 l 1
 515 399 543 442 583 442 c 0
 608 442 651 431 660 344 c 1
 664 382 690 442 736 442 c 0
 768 442 787 422 796 405 c 0
 817 369 816 338 816 252 c 2
 816 61 l 1
 817 31 826 31 855 31 c 1
 855 0 l 1
 836 1 811 3 794 3 c 0
 776 3 749 1 730 0 c 1
 730 31 l 1
 748 31 754 31 761 37 c 0
 768 43 770 53 770 76 c 2
 770 309 l 2
 770 366 768 420 733 420 c 0
 698 420 662 364 662 260 c 2
 662 76 l 2
 662 54 663 43 670 37 c 0
 677 31 682 31 701 31 c 1
 701 0 l 1
 682 1 656 3 639 3 c 0
 621 3 596 1 577 0 c 1
 577 31 l 1
 599 31 604 31 611 41 c 0
 615 47 616 58 616 76 c 2
 616 309 l 2
 616 366 614 420 579 420 c 0
 544 420 508 364 508 260 c 2
 508 76 l 2
 508 53 510 41 518 36 c 0
 525 31 530 31 548 31 c 1
 548 0 l 1
 529 1 503 3 486 3 c 0
 468 3 442 1 423 0 c 1
299 53 m 0
 299 80 312 105 329 105 c 0
 344 105 357 84 357 53 c 0
 357 22 343 0 329 0 c 0
 312 0 299 26 299 53 c 0
19 95 m 0
 19 139 37 191 78 225 c 1
 113 255 142 258 176 261 c 1
 176 298 l 2
 176 387 149 426 122 426 c 0
 104 426 79 415 61 380 c 1
 91 379 95 346 95 334 c 0
 95 308 84 288 65 288 c 0
 48 288 34 305 34 335 c 0
 34 357 39 377 48 394 c 0
 66 427 93 448 123 448 c 0
 150 448 172 438 198 399 c 0
 222 362 222 317 222 275 c 2
 222 75 l 2
 222 70 221 25 239 25 c 0
 246 25 252 27 252 11 c 0
 252 -6 246 -6 235 -6 c 2
 227 -6 l 2
 201 -6 184 36 181 76 c 1
 168 29 148 -11 112 -11 c 0
 77 -11 19 14 19 95 c 0
70 96 m 0
 70 46 88 11 115 11 c 0
 140 11 176 45 176 140 c 2
 176 240 l 5
 75 234 70 151 70 96 c 0
EndSplineSet
EndChar
StartChar: uF2E51
Encoding: 994897 994897 107
Width: 1000
Flags: MW
LayerCount: 2
Fore
SplineSet
567 157 m 0
 567 250 635 331 729 331 c 0
 769 331 808 318 829 292 c 0
 839 281 844 266 844 250 c 0
 844 228 830 215 810 215 c 0
 789 215 775 230 775 250 c 0
 775 260 779 282 810 284 c 1
 784 311 737 312 730 312 c 0
 690 312 629 280 629 158 c 0
 629 37 695 5 735 5 c 0
 763 5 811 14 833 84 c 0
 835 88 836 91 843 91 c 0
 845 91 852 92 852 84 c 0
 852 76 828 -14 728 -14 c 0
 641 -14 567 61 567 157 c 0
238 0 m 0
 238 3 241 6 248 16 c 2
 765 723 l 2
 769 729 778 748 789 748 c 0
 793 748 799 744 799 736 c 0
 799 732 792 726 790 723 c 2
 272 15 l 2
 258 -4 255 -12 247 -12 c 0
 241 -12 238 -6 238 0 c 0
147 577 m 0
 147 670 215 751 309 751 c 0
 349 751 388 738 409 712 c 0
 419 701 424 686 424 670 c 0
 424 648 410 635 390 635 c 0
 369 635 355 650 355 670 c 0
 355 680 359 702 390 704 c 1
 364 731 317 732 310 732 c 0
 270 732 209 700 209 578 c 0
 209 457 275 425 315 425 c 0
 343 425 391 434 413 504 c 0
 415 508 416 511 423 511 c 0
 425 511 432 512 432 504 c 0
 432 496 408 406 308 406 c 0
 221 406 147 481 147 577 c 0
EndSplineSet
EndChar
StartChar: uF2E52
Encoding: 994898 994898 108
Width: 1000
Flags: MW
LayerCount: 2
Fore
SplineSet
878 53 m 4
 878 80 896 105 921 105 c 4
 943 105 962 84 962 53 c 4
 962 22 942 0 921 0 c 4
 896 0 878 26 878 53 c 4
523 216 m 4
 523 340 597 448 697 448 c 4
 739 448 781 430 803 396 c 4
 813 381 819 362 819 341 c 4
 819 311 803 294 782 294 c 4
 760 294 746 314 746 340 c 4
 746 353 750 383 783 386 c 5
 755 422 705 423 698 423 c 4
 656 423 590 381 590 218 c 4
 590 57 660 14 702 14 c 4
 732 14 784 26 807 119 c 4
 809 125 811 129 818 129 c 4
 820 129 828 129 828 119 c 4
 828 109 802 -11 695 -11 c 4
 602 -11 523 88 523 216 c 4
382 53 m 4
 382 80 400 105 425 105 c 4
 447 105 466 84 466 53 c 4
 466 22 446 0 425 0 c 4
 400 0 382 26 382 53 c 4
27 216 m 4
 27 340 101 448 201 448 c 4
 243 448 285 430 307 396 c 4
 317 381 323 362 323 341 c 4
 323 311 307 294 286 294 c 4
 264 294 250 314 250 340 c 4
 250 353 254 383 287 386 c 5
 259 422 209 423 202 423 c 4
 160 423 94 381 94 218 c 4
 94 57 164 14 206 14 c 4
 236 14 288 26 311 119 c 4
 313 125 315 129 322 129 c 4
 324 129 332 129 332 119 c 4
 332 109 306 -11 199 -11 c 4
 106 -11 27 88 27 216 c 4
EndSplineSet
EndChar
StartChar: uF2E53
Encoding: 994899 994899 109
Width: 1000
Flags: MW
LayerCount: 2
Fore
SplineSet
616 161 m 4
 616 134 615 88 634 55 c 4
 654 21 688 5 720 5 c 4
 758 5 791 27 807 61 c 4
 823 94 823 134 823 161 c 4
 823 189 824 233 804 265 c 4
 784 297 752 314 719 314 c 4
 689 314 654 298 634 264 c 5
 616 231 616 190 616 161 c 4
553 155 m 0
 553 249 626 331 720 331 c 0
 811 331 886 251 886 155 c 0
 886 60 810 -14 719 -14 c 0
 631 -14 553 58 553 155 c 0
238 0 m 0
 238 3 241 6 248 16 c 2
 765 723 l 2
 769 729 778 748 789 748 c 0
 793 748 799 744 799 736 c 0
 799 732 792 726 790 723 c 2
 272 15 l 2
 258 -4 255 -12 247 -12 c 0
 241 -12 238 -6 238 0 c 0
147 577 m 0
 147 670 215 751 309 751 c 0
 349 751 388 738 409 712 c 0
 419 701 424 686 424 670 c 0
 424 648 410 635 390 635 c 0
 369 635 355 650 355 670 c 0
 355 680 359 702 390 704 c 1
 364 731 317 732 310 732 c 0
 270 732 209 700 209 578 c 0
 209 457 275 425 315 425 c 0
 343 425 391 434 413 504 c 0
 415 508 416 511 423 511 c 0
 425 511 432 512 432 504 c 0
 432 496 408 406 308 406 c 0
 221 406 147 481 147 577 c 0
EndSplineSet
EndChar
StartChar: uF2E54
Encoding: 994900 994900 110
Width: 1000
Flags: MW
LayerCount: 2
Fore
SplineSet
666 0 m 1
 666 31 l 1
 703 31 721 31 732 38 c 0
 741 44 744 56 744 76 c 2
 744 596 l 2
 744 645 736 652 666 652 c 1
 666 683 l 1
 810 694 l 1
 810 76 l 2
 810 54 812 43 822 37 c 4
 833 31 854 31 888 31 c 1
 888 0 l 1
 851 1 801 3 776 3 c 0
 751 3 699 1 666 0 c 1
112 215 m 0
 112 344 218 442 336 442 c 0
 390 442 433 416 462 380 c 1
 462 596 l 2
 462 645 454 652 384 652 c 1
 384 683 l 1
 528 694 l 1
 528 87 l 2
 528 38 536 31 606 31 c 1
 606 0 l 1
 458 -11 l 1
 458 55 l 1
 433 23 388 -11 324 -11 c 0
 210 -11 112 88 112 215 c 0
196 214 m 0
 196 173 198 116 224 75 c 0
 248 37 285 11 330 11 c 0
 373 11 418 33 448 81 c 0
 459 98 458 100 458 118 c 2
 458 323 l 2
 458 341 459 343 448 360 c 0
 417 405 375 420 340 420 c 0
 286 420 247 387 226 356 c 0
 197 311 196 251 196 214 c 0
EndSplineSet
EndChar
StartChar: uF2E55
Encoding: 994901 994901 111
Width: 1000
Flags: MW
LayerCount: 2
Fore
SplineSet
727 95 m 0
 727 139 747 191 793 225 c 1
 832 255 864 258 901 261 c 1
 901 298 l 2
 901 387 870 426 840 426 c 0
 820 426 794 415 774 380 c 1
 808 379 811 346 811 334 c 0
 811 308 798 288 777 288 c 0
 758 288 743 305 743 335 c 0
 743 357 749 377 759 394 c 0
 779 427 808 448 842 448 c 0
 871 448 896 438 925 399 c 0
 951 362 952 317 952 275 c 2
 952 75 l 2
 952 70 954 25 970 25 c 0
 978 25 986 24 986 11 c 0
 986 -6 978 -6 966 -6 c 2
 957 -6 l 2
 928 -6 909 36 906 76 c 1
 892 29 869 -11 829 -11 c 0
 790 -11 727 14 727 95 c 0
783 96 m 0
 783 46 804 11 834 11 c 0
 862 11 901 45 901 140 c 2
 901 240 l 1
 789 234 783 151 783 96 c 0
361 0 m 1
 361 31 l 1
 375 31 l 2
 399 31 402 33 409 41 c 0
 416 48 416 60 416 78 c 2
 416 605 l 2
 416 624 415 636 407 643 c 0
 399 650 398 652 375 652 c 2
 361 652 l 1
 361 683 l 1
 577 683 l 2
 661 683 728 595 728 497 c 0
 728 397 655 316 582 316 c 2
 482 316 l 1
 482 78 l 2
 482 62 482 51 487 44 c 0
 494 34 500 31 527 31 c 2
 541 31 l 1
 541 0 l 1
 520 3 477 3 449 3 c 0
 421 3 382 3 361 0 c 1
480 342 m 1
 561 342 l 2
 649 342 652 450 652 497 c 0
 652 546 649 652 561 652 c 2
 516 652 l 2
 481 652 480 645 480 612 c 2
 480 342 l 1
20 0 m 1
 20 31 l 1
 43 31 49 31 56 39 c 0
 62 45 63 56 63 76 c 2
 63 596 l 2
 63 645 63 652 20 652 c 1
 20 683 l 1
 112 694 l 1
 112 346 l 1
 112 346 l 1
 124 382 146 442 197 442 c 0
 233 442 252 422 262 405 c 0
 285 369 285 338 285 252 c 2
 285 61 l 1
 286 31 296 31 328 31 c 1
 328 0 l 1
 307 1 279 3 260 3 c 0
 240 3 211 1 190 0 c 1
 190 31 l 1
 213 31 220 31 227 39 c 0
 233 45 234 56 234 76 c 2
 234 309 l 2
 234 366 231 420 192 420 c 0
 153 420 114 364 114 260 c 2
 114 76 l 2
 114 56 115 44 122 38 c 0
 130 31 134 31 157 31 c 1
 157 0 l 1
 136 1 108 3 89 3 c 0
 69 3 41 1 20 0 c 1
EndSplineSet
EndChar
StartChar: uF2E56
Encoding: 994902 994902 112
Width: 1000
Flags: MW
LayerCount: 2
Fore
SplineSet
654 0 m 1
 654 31 l 1
 691 31 711 31 722 38 c 0
 731 44 732 56 732 76 c 2
 732 596 l 2
 732 645 724 652 654 652 c 1
 654 683 l 1
 798 694 l 1
 798 76 l 2
 798 54 802 43 812 37 c 4
 823 31 842 31 876 31 c 1
 876 0 l 1
 839 1 791 3 766 3 c 0
 741 3 687 1 654 0 c 1
124 0 m 1
 124 31 l 1
 159 31 179 31 190 38 c 0
 200 44 202 55 202 76 c 2
 202 596 l 2
 202 645 194 652 124 652 c 1
 124 683 l 1
 268 694 l 1
 268 214 l 1
 408 336 l 2
 416 343 430 355 430 375 c 0
 430 388 421 399 402 400 c 1
 402 431 l 1
 416 430 478 428 514 428 c 0
 542 428 555 428 584 431 c 1
 584 400 l 1
 563 399 521 397 458 346 c 0
 448 338 376 278 376 274 c 0
 376 271 381 265 382 263 c 2
 510 84 l 2
 541 41 562 33 588 31 c 2
 594 31 599 31 606 31 c 1
 606 0 l 1
 577 2 549 3 520 3 c 0
 499 3 440 1 412 0 c 1
 412 31 l 1
 431 31 448 35 448 54 c 0
 448 61 439 78 430 92 c 0
 392 149 375 169 328 234 c 1
 264 179 l 1
 264 76 l 2
 264 56 267 44 276 38 c 4
 287 31 305 31 342 31 c 1
 342 0 l 1
 302 2 262 3 232 3 c 0
 203 3 157 1 124 0 c 1
EndSplineSet
EndChar
StartChar: uF2E58
Encoding: 994904 994904 114
Width: 1000
Flags: MW
LayerCount: 2
Fore
SplineSet
527 -79 m 0
 527 -39 559 4 619 21 c 1
 588 41 575 79 575 110 c 0
 575 145 593 178 606 193 c 1
 581 214 559 252 559 296 c 0
 559 373 628 442 721 442 c 0
 743 442 785 439 827 406 c 1
 869 447 913 453 933 453 c 0
 972 453 984 421 984 404 c 0
 984 381 965 374 955 374 c 0
 939 374 926 386 926 403 c 0
 926 415 931 426 942 430 c 1
 939 431 934 431 932 431 c 0
 914 431 878 426 842 392 c 1
 867 369 883 332 883 295 c 0
 883 218 814 149 721 149 c 0
 702 149 661 152 622 180 c 1
 605 160 605 137 605 133 c 0
 605 101 626 70 658 66 c 0
 665 65 708 65 733 65 c 0
 794 65 852 65 905 37 c 0
 956 9 970 -42 970 -77 c 0
 970 -155 866 -206 748 -206 c 0
 626 -206 527 -151 527 -79 c 0
579 -79 m 0
 579 -132 648 -183 749 -183 c 0
 847 -183 918 -133 918 -79 c 0
 918 7 806 7 720 7 c 2
 661 7 l 1
 617 4 579 -33 579 -79 c 0
634 295 m 0
 634 272 634 172 721 172 c 0
 761 172 784 200 792 212 c 0
 807 237 808 269 808 296 c 0
 808 319 808 419 721 419 c 0
 681 419 658 391 650 379 c 0
 635 354 634 322 634 295 c 0
31 -164 m 1
 41 -164 l 2
 74 -164 91 -162 100 -154 c 0
 109 -146 109 -133 109 -113 c 2
 109 340 l 2
 109 396 93 397 45 400 c 1
 31 400 l 1
 31 430 l 1
 179 441 l 1
 179 118 l 2
 179 104 179 90 181 77 c 0
 186 40 203 12 266 12 c 0
 314 12 387 48 387 174 c 0
 387 182 386 190 386 199 c 2
 386 350 l 1
 385 393 369 400 314 400 c 2
 309 400 l 1
 309 430 l 1
 456 441 l 1
 456 83 l 2
 456 39 472 31 529 31 c 2
 534 31 l 1
 534 0 l 1
 389 -11 l 1
 389 32 l 1
 389 77 l 1
 360 12 315 -6 275 -10 c 0
 270 -10 265 -11 260 -11 c 0
 219 -11 194 -3 179 2 c 1
 179 -119 l 2
 179 -138 180 -149 190 -156 c 0
 200 -163 218 -164 251 -164 c 2
 256 -164 l 1
 256 -195 l 1
 218 -193 179 -192 140 -192 c 2
 136 -192 l 2
 122 -192 89 -192 31 -195 c 1
 31 -164 l 1
EndSplineSet
EndChar
StartChar: uF2E59
Encoding: 994905 994905 115
Width: 1000
Flags: MW
LayerCount: 2
Fore
SplineSet
423 0 m 1
 423 31 l 1
 448 31 453 31 463 38 c 0
 472 44 474 55 474 76 c 2
 474 344 l 2
 474 393 473 400 423 400 c 1
 423 431 l 1
 528 442 l 1
 528 337 l 1
 552 399 578 442 631 442 c 0
 663 442 719 431 731 344 c 1
 746 382 771 442 831 442 c 0
 873 442 896 422 908 405 c 0
 935 369 935 338 935 252 c 2
 935 61 l 1
 936 31 948 31 985 31 c 1
 985 0 l 1
 961 1 927 3 905 3 c 0
 882 3 848 1 823 0 c 1
 823 31 l 1
 847 31 853 31 863 37 c 0
 873 43 875 53 875 76 c 2
 875 309 l 2
 875 366 871 420 826 420 c 0
 780 420 733 364 733 260 c 2
 733 76 l 2
 733 54 735 43 744 37 c 0
 754 31 761 31 785 31 c 1
 785 0 l 1
 761 1 726 3 704 3 c 0
 681 3 648 1 623 0 c 1
 623 31 l 1
 652 31 658 31 667 41 c 0
 672 47 674 58 674 76 c 2
 674 309 l 2
 674 366 671 420 626 420 c 0
 580 420 533 364 533 260 c 2
 533 76 l 2
 533 53 536 41 546 36 c 0
 556 31 562 31 585 31 c 1
 585 0 l 1
 561 1 526 3 504 3 c 0
 481 3 448 1 423 0 c 1
22 -164 m 1
 30 -164 l 2
 54 -164 58 -162 66 -154 c 0
 74 -146 73 -133 73 -113 c 2
 73 340 l 2
 73 396 67 397 32 400 c 1
 22 400 l 1
 22 430 l 1
 134 441 l 1
 134 118 l 2
 134 104 134 90 136 77 c 0
 140 40 147 12 192 12 c 0
 227 12 274 48 274 174 c 0
 274 182 273 190 273 199 c 2
 273 350 l 1
 272 393 266 400 226 400 c 2
 222 400 l 1
 222 430 l 1
 333 441 l 1
 333 83 l 2
 333 39 340 31 381 31 c 2
 384 31 l 1
 384 0 l 1
 275 -11 l 1
 275 32 l 1
 275 77 l 1
 250 12 227 -6 198 -10 c 0
 194 -10 191 -11 187 -11 c 0
 157 -11 147 -3 134 2 c 1
 134 -119 l 2
 134 -138 134 -149 143 -156 c 0
 152 -163 157 -164 181 -164 c 2
 184 -164 l 1
 184 -195 l 1
 157 -193 134 -192 100 -192 c 2
 97 -192 l 2
 85 -192 64 -192 22 -195 c 1
 22 -164 l 1
EndSplineSet
EndChar
StartChar: uF2E5A
Encoding: 994906 994906 116
Width: 1000
Flags: MW
LayerCount: 2
Fore
SplineSet
778 0 m 5
 778 31 l 5
 811 31 829 31 839 38 c 4
 847 44 849 56 849 76 c 6
 849 596 l 6
 849 645 841 652 778 652 c 5
 778 683 l 5
 908 694 l 5
 908 76 l 6
 908 54 911 43 920 37 c 4
 930 31 947 31 978 31 c 5
 978 0 l 5
 945 1 900 3 878 3 c 4
 856 3 808 1 778 0 c 5
29 0 m 5
 29 31 l 5
 61 31 78 31 88 38 c 4
 97 44 99 55 99 76 c 6
 99 344 l 6
 99 393 92 400 29 400 c 5
 29 431 l 5
 156 442 l 5
 156 337 l 5
 181 399 223 442 289 442 c 4
 329 442 396 431 409 344 c 5
 424 382 463 442 539 442 c 4
 591 442 621 422 634 405 c 4
 662 369 662 338 662 252 c 6
 662 61 l 5
 663 31 685 31 732 31 c 5
 732 0 l 5
 701 1 654 3 631 3 c 4
 607 3 561 1 529 0 c 5
 529 31 l 5
 559 31 577 31 587 37 c 4
 597 43 599 53 599 76 c 6
 599 309 l 6
 599 366 590 420 533 420 c 4
 475 420 411 364 411 260 c 6
 411 76 l 6
 411 54 414 43 423 37 c 4
 433 31 451 31 482 31 c 5
 482 0 l 5
 451 1 404 3 381 3 c 4
 357 3 311 1 279 0 c 5
 279 31 l 5
 315 31 333 31 342 41 c 4
 347 47 349 58 349 76 c 6
 349 309 l 6
 349 366 340 420 283 420 c 4
 225 420 161 364 161 260 c 6
 161 76 l 6
 161 53 164 41 175 36 c 4
 185 31 202 31 231 31 c 5
 231 0 l 5
 200 1 153 3 130 3 c 4
 106 3 61 1 29 0 c 5
EndSplineSet
EndChar
StartChar: uF2E5B
Encoding: 994907 994907 117
Width: 1000
Flags: MW
LayerCount: 2
Fore
SplineSet
40 415 m 1
 40 438 l 1
 61 438 66 439 74 444 c 0
 81 448 82 456 82 472 c 2
 82 673 l 2
 82 710 82 715 40 715 c 1
 40 738 l 1
 128 747 l 1
 128 668 l 1
 148 714 169 747 213 747 c 0
 240 747 287 738 297 673 c 1
 309 701 330 747 380 747 c 0
 415 747 434 732 444 719 c 0
 466 692 467 668 467 604 c 2
 467 461 l 1
 468 439 478 438 509 438 c 1
 509 415 l 1
 489 416 461 418 442 418 c 0
 423 418 395 416 374 415 c 1
 374 438 l 1
 394 438 399 439 407 443 c 0
 415 447 417 455 417 472 c 2
 417 647 l 2
 417 690 414 730 376 730 c 0
 338 730 299 688 299 610 c 2
 299 472 l 2
 299 456 301 447 308 443 c 0
 316 439 322 438 342 438 c 1
 342 415 l 1
 322 416 293 418 274 418 c 0
 255 418 228 416 207 415 c 1
 207 438 l 1
 231 438 236 438 243 446 c 0
 247 450 249 458 249 472 c 2
 249 647 l 2
 249 690 247 730 209 730 c 0
 171 730 132 688 132 610 c 2
 132 472 l 2
 132 455 134 446 143 442 c 0
 151 438 156 438 175 438 c 1
 175 415 l 1
 155 416 127 418 108 418 c 0
 89 418 61 416 40 415 c 1
524 -5 m 1
 524 18 l 1
 545 18 550 19 558 24 c 0
 565 28 567 36 567 52 c 2
 567 253 l 2
 567 290 566 295 524 295 c 1
 524 318 l 1
 612 327 l 1
 612 248 l 1
 632 294 654 327 698 327 c 0
 725 327 771 318 781 253 c 1
 793 281 814 327 864 327 c 0
 899 327 919 312 929 299 c 0
 951 272 951 248 951 184 c 2
 951 41 l 1
 952 19 962 18 993 18 c 1
 993 -5 l 1
 973 -4 945 -2 926 -2 c 0
 907 -2 879 -4 858 -5 c 1
 858 18 l 1
 878 18 883 19 891 23 c 0
 899 27 901 35 901 52 c 2
 901 227 l 2
 901 270 898 310 860 310 c 0
 822 310 783 268 783 190 c 2
 783 52 l 2
 783 36 785 27 792 23 c 0
 800 19 806 18 826 18 c 1
 826 -5 l 1
 806 -4 778 -2 759 -2 c 0
 740 -2 712 -4 691 -5 c 1
 691 18 l 1
 715 18 721 18 728 26 c 0
 732 30 733 38 733 52 c 2
 733 227 l 2
 733 270 731 310 693 310 c 0
 655 310 616 268 616 190 c 2
 616 52 l 2
 616 35 618 26 627 22 c 0
 635 18 640 18 659 18 c 1
 659 -5 l 1
 639 -4 611 -2 592 -2 c 0
 573 -2 545 -4 524 -5 c 1
238 0 m 0
 238 3 241 6 248 16 c 2
 765 723 l 2
 769 729 778 748 789 748 c 0
 793 748 799 744 799 736 c 0
 799 732 792 726 790 723 c 2
 272 15 l 2
 258 -4 255 -12 247 -12 c 0
 241 -12 238 -6 238 0 c 0
EndSplineSet
EndChar
StartChar: uF2E5C
Encoding: 994908 994908 118
Width: 1000
Flags: MW
LayerCount: 2
Fore
SplineSet
95 415 m 1
 95 438 l 1
 123 438 138 438 146 444 c 0
 152 448 153 457 153 472 c 2
 153 673 l 2
 153 710 147 715 95 715 c 1
 95 738 l 1
 201 747 l 1
 201 668 l 1
 222 714 257 747 312 747 c 0
 356 747 380 732 390 719 c 0
 413 692 414 668 414 604 c 2
 414 461 l 1
 415 439 433 438 472 438 c 1
 472 415 l 1
 446 416 408 418 388 418 c 0
 368 418 329 416 303 415 c 1
 303 438 l 1
 333 438 348 438 356 446 c 0
 360 450 362 458 362 472 c 2
 362 647 l 2
 362 690 353 730 306 730 c 0
 258 730 205 688 205 610 c 2
 205 472 l 2
 205 457 206 448 213 444 c 0
 221 439 236 438 264 438 c 1
 264 415 l 1
 238 416 200 418 180 418 c 0
 160 418 121 416 95 415 c 1
524 -5 m 1
 524 18 l 1
 545 18 551 19 559 24 c 0
 566 28 568 36 568 52 c 2
 568 253 l 2
 568 290 566 295 524 295 c 1
 524 318 l 1
 613 327 l 1
 613 248 l 1
 633 294 654 327 698 327 c 0
 725 327 771 318 781 253 c 1
 793 281 814 327 864 327 c 0
 899 327 919 312 929 299 c 0
 951 272 951 248 951 184 c 2
 951 41 l 1
 952 19 962 18 993 18 c 1
 993 -5 l 1
 973 -4 945 -2 926 -2 c 0
 907 -2 879 -4 858 -5 c 1
 858 18 l 1
 878 18 883 19 891 23 c 0
 899 27 901 35 901 52 c 2
 901 227 l 2
 901 270 898 310 860 310 c 0
 822 310 783 268 783 190 c 2
 783 52 l 2
 783 36 785 27 792 23 c 0
 800 19 806 18 826 18 c 1
 826 -5 l 1
 806 -4 778 -2 759 -2 c 0
 740 -2 712 -4 691 -5 c 1
 691 18 l 1
 715 18 721 18 728 26 c 0
 732 30 733 38 733 52 c 2
 733 227 l 2
 733 270 731 310 693 310 c 0
 655 310 617 268 617 190 c 2
 617 52 l 2
 617 35 614 26 621 22 c 0
 628 18 640 18 659 18 c 1
 659 -5 l 1
 639 -4 612 -2 593 -2 c 0
 574 -2 545 -4 524 -5 c 1
238 0 m 0
 238 3 241 6 248 16 c 2
 765 723 l 2
 769 729 778 748 789 748 c 0
 793 748 799 744 799 736 c 0
 799 732 792 726 790 723 c 2
 272 15 l 2
 258 -4 255 -12 247 -12 c 0
 241 -12 238 -6 238 0 c 0
EndSplineSet
EndChar
StartChar: uF2E5D
Encoding: 994909 994909 119
Width: 1000
Flags: MW
LayerCount: 2
Fore
SplineSet
436 0 m 5
 436 31 l 5
 455 31 l 6
 485 31 500 33 509 40 c 4
 518 47 518 59 518 78 c 6
 518 605 l 6
 518 625 517 637 507 644 c 4
 498 650 483 652 455 652 c 6
 436 652 l 5
 436 683 l 5
 464 680 525 680 555 680 c 4
 585 680 644 680 672 683 c 5
 672 652 l 5
 653 652 l 6
 620 652 605 649 597 641 c 4
 590 634 590 622 590 605 c 6
 590 371 l 5
 830 371 l 5
 830 605 l 6
 830 626 829 638 817 645 c 4
 808 650 792 652 766 652 c 6
 747 652 l 5
 747 683 l 5
 775 680 836 680 866 680 c 4
 896 680 956 680 984 683 c 5
 984 652 l 5
 965 652 l 6
 935 652 918 649 910 642 c 4
 902 635 901 623 901 605 c 6
 901 78 l 6
 901 61 901 49 908 42 c 4
 916 34 932 31 965 31 c 6
 984 31 l 5
 984 0 l 5
 956 3 895 3 865 3 c 4
 835 3 775 3 747 0 c 5
 747 31 l 5
 766 31 l 6
 797 31 814 33 822 41 c 4
 830 48 830 60 830 78 c 6
 830 340 l 5
 590 340 l 5
 590 78 l 6
 590 59 590 46 600 39 c 4
 609 33 624 31 653 31 c 6
 672 31 l 5
 672 0 l 5
 644 3 584 3 554 3 c 4
 524 3 464 3 436 0 c 5
22 -163 m 5
 54 -163 71 -163 79 -153 c 4
 84 -147 85 -136 85 -118 c 6
 85 350 l 6
 85 394 79 400 22 400 c 5
 22 431 l 5
 138 442 l 5
 138 376 l 5
 154 398 187 442 250 442 c 4
 340 442 418 343 418 216 c 4
 418 87 334 -11 239 -11 c 4
 178 -11 144 43 140 59 c 5
 140 50 l 5
 140 -118 l 6
 140 -138 142 -150 149 -156 c 4
 158 -163 173 -163 203 -163 c 5
 203 -194 l 5
 175 -193 134 -191 112 -191 c 4
 91 -191 49 -193 22 -194 c 5
 22 -163 l 5
140 114 m 6
 140 94 141 93 152 72 c 4
 174 31 204 11 236 11 c 4
 295 11 351 95 351 216 c 4
 351 329 303 417 244 417 c 4
 203 417 163 388 140 337 c 5
 140 337 l 5
 140 114 l 6
EndSplineSet
EndChar
StartChar: uF2E5E
Encoding: 994910 994910 120
Width: 1000
Flags: MW
LayerCount: 2
Fore
SplineSet
918 53 m 0
 918 80 930 105 946 105 c 0
 960 105 973 84 973 53 c 0
 973 22 960 0 946 0 c 0
 930 0 918 26 918 53 c 0
453 0 m 1
 453 31 l 1
 471 31 476 31 483 38 c 0
 489 44 490 55 490 76 c 2
 490 344 l 2
 490 393 490 400 453 400 c 1
 453 431 l 1
 530 442 l 1
 530 337 l 5
 540 399 567 442 605 442 c 0
 629 442 669 431 678 344 c 5
 682 382 707 442 751 442 c 0
 781 442 798 422 807 405 c 0
 827 369 827 338 827 252 c 2
 827 61 l 1
 828 31 836 31 863 31 c 1
 863 0 l 1
 845 1 821 3 805 3 c 0
 788 3 763 1 745 0 c 1
 745 31 l 1
 762 31 767 31 774 37 c 0
 781 43 783 53 783 76 c 2
 783 309 l 2
 783 366 780 420 747 420 c 0
 713 420 680 364 680 260 c 2
 680 76 l 2
 680 54 682 43 688 37 c 0
 695 31 699 31 717 31 c 1
 717 0 l 1
 699 1 674 3 658 3 c 0
 641 3 617 1 599 0 c 1
 599 31 l 1
 620 31 625 31 631 41 c 0
 635 47 636 58 636 76 c 2
 636 309 l 2
 636 366 634 420 601 420 c 0
 567 420 534 364 534 260 c 2
 534 76 l 2
 534 53 535 41 543 36 c 0
 550 31 554 31 571 31 c 1
 571 0 l 1
 553 1 528 3 512 3 c 0
 495 3 471 1 453 0 c 1
335 53 m 0
 335 80 347 105 363 105 c 0
 377 105 391 84 391 53 c 0
 391 22 377 0 363 0 c 0
 347 0 335 26 335 53 c 0
15 -163 m 1
 36 -163 41 -163 47 -153 c 0
 51 -147 52 -136 52 -118 c 2
 52 350 l 2
 52 394 52 400 15 400 c 1
 15 431 l 1
 93 442 l 1
 93 376 l 1
 106 398 123 442 164 442 c 0
 223 442 278 343 278 216 c 0
 278 87 218 -11 156 -11 c 0
 116 -11 98 43 95 59 c 1
 95 50 l 1
 95 -118 l 2
 95 -138 96 -150 102 -156 c 0
 109 -163 114 -163 133 -163 c 1
 133 -194 l 1
 115 -193 90 -191 73 -191 c 0
 57 -191 33 -193 15 -194 c 1
 15 -163 l 1
95 114 m 2
 95 94 95 93 104 72 c 0
 121 31 133 11 154 11 c 0
 193 11 226 95 226 216 c 0
 226 329 198 417 160 417 c 0
 133 417 113 388 95 337 c 1
 95 337 l 1
 95 114 l 2
EndSplineSet
EndChar
StartChar: uF502B
Encoding: 1003563 1003563 121
Width: 1000
Flags: MW
LayerCount: 2
Fore
SplineSet
560 371 m 4
 560 383 572 390 577 390 c 6
 580 390 l 6
 592 390 607 372 609 370 c 6
 751 228 l 1
 751 228 l 1
 893 370 l 2
 901 378 910 390 922 390 c 0
 937 390 940 376 940 373 c 0
 940 366 939 362 931 353 c 0
 917 337 932 355 842 263 c 1
 779 200 l 1
 918 61 l 2
 927 52 940 41 940 29 c 0
 940 17 931 10 922 10 c 0
 916 10 912 10 892 30 c 2
 750 172 l 1
 750 172 l 1
 613 34 l 2
 603 24 591 10 579 10 c 0
 569 10 561 18 561 28 c 0
 561 33 562 37 565 42 c 0
 572 52 562 38 722 200 c 1
 584 339 l 6
 574 348 560 359 560 371 c 4
39 320 m 0
 39 400 44 478 76 547 c 1
 117 640 190 666 250 666 c 0
 292 666 374 650 420 554 c 0
 455 480 460 400 460 320 c 0
 460 241 455 163 423 94 c 0
 379 -1 303 -22 249 -22 c 0
 200 -22 127 -2 84 79 c 0
 43 155 39 245 39 320 c 0
122 332 m 0
 122 273 122 181 133 121 c 0
 151 25 210 0 249 0 c 0
 294 0 351 30 366 125 c 0
 377 189 377 257 377 332 c 0
 377 395 377 471 367 527 c 0
 348 626 282 644 249 644 c 0
 224 644 149 635 130 516 c 0
 122 462 122 396 122 332 c 0
EndSplineSet
EndChar
StartChar: uF502C
Encoding: 1003564 1003564 122
Width: 1000
Flags: MW
LayerCount: 2
Fore
SplineSet
560 371 m 4
 560 383 572 390 577 390 c 6
 580 390 l 6
 592 390 607 372 609 370 c 6
 751 228 l 1
 751 228 l 1
 893 370 l 2
 901 378 910 390 922 390 c 0
 937 390 940 376 940 373 c 0
 940 366 939 362 931 353 c 0
 917 337 932 355 842 263 c 1
 779 200 l 1
 918 61 l 2
 927 52 940 41 940 29 c 0
 940 17 931 10 922 10 c 0
 916 10 912 10 892 30 c 2
 750 172 l 1
 750 172 l 1
 613 34 l 2
 603 24 591 10 579 10 c 0
 569 10 561 18 561 28 c 0
 561 33 562 37 565 42 c 0
 572 52 562 38 722 200 c 1
 584 339 l 6
 574 348 560 359 560 371 c 4
89 571 m 1
 89 602 l 5
 89 602 l 1
 125 602 207 606 264 659 c 0
 266 661 269 664 271 666 c 1
 294 666 294 664 294 640 c 2
 294 79 l 2
 294 42 297 31 387 31 c 2
 419 31 l 1
 419 0 l 1
 384 3 297 3 257 3 c 0
 217 3 130 3 95 0 c 1
 95 31 l 1
 127 31 l 2
 217 31 220 43 220 79 c 2
 220 597 l 1
 173 574 113 571 89 571 c 1
 89 571 l 1
EndSplineSet
EndChar
StartChar: uF502D
Encoding: 1003565 1003565 123
Width: 1000
Flags: MW
LayerCount: 2
Fore
SplineSet
560 371 m 4
 560 383 572 390 577 390 c 6
 580 390 l 6
 592 390 607 372 609 370 c 6
 751 228 l 1
 751 228 l 1
 893 370 l 2
 901 378 910 390 922 390 c 0
 937 390 940 376 940 373 c 0
 940 366 939 362 931 353 c 0
 917 337 932 355 842 263 c 1
 779 200 l 1
 918 61 l 2
 927 52 940 41 940 29 c 0
 940 17 931 10 922 10 c 0
 916 10 912 10 892 30 c 2
 750 172 l 1
 750 172 l 1
 613 34 l 2
 603 24 591 10 579 10 c 0
 569 10 561 18 561 28 c 0
 561 33 562 37 565 42 c 0
 572 52 562 38 722 200 c 1
 584 339 l 6
 574 348 560 359 560 371 c 4
50 0 m 1
 50 7 50 12 50 16 c 6
 50 26 53 29 61 37 c 2
 253 251 l 2
 308 313 358 392 358 472 c 0
 358 554 315 635 224 635 c 0
 166 635 112 598 89 533 c 1
 92 534 94 534 102 534 c 0
 137 534 155 508 155 482 c 0
 155 441 120 429 103 429 c 0
 100 429 50 429 50 485 c 0
 50 574 124 666 237 666 c 0
 359 666 449 586 449 472 c 0
 449 372 389 318 233 180 c 1
 127 77 l 1
 307 77 l 2
 329 77 395 77 402 85 c 1
 412 100 419 144 424 174 c 1
 449 174 l 1
 421 0 l 1
 50 0 l 1
EndSplineSet
EndChar
StartChar: uF502E
Encoding: 1003566 1003566 124
Width: 1000
Flags: MW
LayerCount: 2
Fore
SplineSet
560 371 m 4
 560 383 572 390 577 390 c 6
 580 390 l 6
 592 390 607 372 609 370 c 6
 751 228 l 1
 751 228 l 1
 893 370 l 2
 901 378 910 390 922 390 c 0
 937 390 940 376 940 373 c 0
 940 366 939 362 931 353 c 0
 917 337 932 355 842 263 c 1
 779 200 l 1
 918 61 l 2
 927 52 940 41 940 29 c 0
 940 17 931 10 922 10 c 0
 916 10 912 10 892 30 c 2
 750 172 l 1
 750 172 l 1
 613 34 l 2
 603 24 591 10 579 10 c 0
 569 10 561 18 561 28 c 0
 561 33 562 37 565 42 c 0
 572 52 562 38 722 200 c 1
 584 339 l 6
 574 348 560 359 560 371 c 4
42 135 m 0
 42 179 74 193 98 193 c 0
 127 193 154 173 154 137 c 0
 154 99 123 77 88 82 c 1
 123 23 198 6 241 6 c 0
 285 6 354 35 354 171 c 0
 354 269 317 337 235 337 c 2
 191 337 l 2
 174 337 167 337 167 348 c 0
 167 358 174 359 182 360 c 0
 189 360 213 362 221 363 c 0
 246 364 280 367 310 415 c 1
 336 459 338 517 338 529 c 0
 338 619 283 641 242 641 c 0
 206 641 140 628 109 579 c 1
 124 579 171 579 171 529 c 0
 171 500 151 478 120 478 c 0
 91 478 69 497 69 530 c 0
 69 606 145 666 246 666 c 0
 342 666 430 610 430 528 c 0
 430 449 372 379 290 352 c 1
 394 331 457 253 457 171 c 0
 457 69 366 -22 244 -22 c 0
 135 -22 42 44 42 135 c 0
EndSplineSet
EndChar
StartChar: uF502F
Encoding: 1003567 1003567 125
Width: 1000
Flags: MW
LayerCount: 2
Fore
SplineSet
560 371 m 4
 560 383 572 390 577 390 c 6
 580 390 l 6
 592 390 607 372 609 370 c 6
 751 228 l 1
 751 228 l 1
 893 370 l 2
 901 378 910 390 922 390 c 0
 937 390 940 376 940 373 c 0
 940 366 939 362 931 353 c 0
 917 337 932 355 842 263 c 1
 779 200 l 1
 918 61 l 2
 927 52 940 41 940 29 c 0
 940 17 931 10 922 10 c 0
 916 10 912 10 892 30 c 2
 750 172 l 1
 750 172 l 1
 613 34 l 2
 603 24 591 10 579 10 c 0
 569 10 561 18 561 28 c 0
 561 33 562 37 565 42 c 0
 572 52 562 38 722 200 c 1
 584 339 l 6
 574 348 560 359 560 371 c 4
28 165 m 1
 28 196 l 1
 335 665 l 2
 343 677 346 677 355 677 c 0
 371 677 371 671 371 651 c 2
 371 196 l 1
 471 196 l 1
 471 165 l 1
 371 165 l 1
 371 78 l 2
 371 42 373 31 447 31 c 2
 468 31 l 1
 468 0 l 1
 427 3 374 3 332 3 c 0
 290 3 238 3 197 0 c 1
 197 31 l 1
 218 31 l 2
 292 31 294 42 294 78 c 2
 294 165 l 1
 28 165 l 1
56 196 m 1
 300 196 l 1
 300 569 l 1
 56 196 l 1
EndSplineSet
EndChar
StartChar: uF5030
Encoding: 1003568 1003568 126
Width: 1000
Flags: MW
LayerCount: 2
Fore
SplineSet
560 371 m 4
 560 383 572 390 577 390 c 6
 580 390 l 6
 592 390 607 372 609 370 c 6
 751 228 l 1
 751 228 l 1
 893 370 l 2
 901 378 910 390 922 390 c 0
 937 390 940 376 940 373 c 0
 940 366 939 362 931 353 c 0
 917 337 932 355 842 263 c 1
 779 200 l 1
 918 61 l 2
 927 52 940 41 940 29 c 0
 940 17 931 10 922 10 c 0
 916 10 912 10 892 30 c 2
 750 172 l 1
 750 172 l 1
 613 34 l 2
 603 24 591 10 579 10 c 0
 569 10 561 18 561 28 c 0
 561 33 562 37 565 42 c 0
 572 52 562 38 722 200 c 1
 584 339 l 6
 574 348 560 359 560 371 c 4
50 161 m 0
 50 207 85 214 99 214 c 0
 132 214 149 189 149 165 c 0
 149 141 132 116 99 116 c 0
 88 116 85 117 82 118 c 1
 99 59 156 6 229 6 c 0
 275 6 312 32 336 71 c 1
 360 113 360 173 360 208 c 0
 360 258 358 297 342 334 c 0
 334 352 309 398 257 398 c 0
 176 398 139 344 128 328 c 0
 124 322 122 319 115 319 c 0
 101 319 101 327 101 345 c 2
 101 641 l 2
 101 657 101 665 111 665 c 0
 113 665 115 665 123 662 c 0
 170 641 216 634 256 634 c 0
 323 634 372 654 392 663 c 0
 397 666 399 666 400 666 c 0
 407 666 410 661 410 655 c 0
 410 642 340 551 217 551 c 0
 185 551 152 558 132 564 c 1
 132 369 l 1
 168 404 211 420 259 420 c 0
 367 420 449 320 449 201 c 0
 449 74 347 -22 231 -22 c 0
 119 -22 50 75 50 161 c 0
EndSplineSet
EndChar
StartChar: uF5031
Encoding: 1003569 1003569 127
Width: 1000
Flags: MW
LayerCount: 2
Fore
SplineSet
560 371 m 4
 560 383 572 390 577 390 c 6
 580 390 l 6
 592 390 607 372 609 370 c 6
 751 228 l 1
 751 228 l 1
 893 370 l 2
 901 378 910 390 922 390 c 0
 937 390 940 376 940 373 c 0
 940 366 939 362 931 353 c 0
 917 337 932 355 842 263 c 1
 779 200 l 1
 918 61 l 2
 927 52 940 41 940 29 c 0
 940 17 931 10 922 10 c 0
 916 10 912 10 892 30 c 2
 750 172 l 1
 750 172 l 1
 613 34 l 2
 603 24 591 10 579 10 c 0
 569 10 561 18 561 28 c 0
 561 33 562 37 565 42 c 0
 572 52 562 38 722 200 c 1
 584 339 l 6
 574 348 560 359 560 371 c 4
42 316 m 0
 42 537 177 666 305 666 c 0
 388 666 432 618 432 558 c 0
 432 519 402 510 386 510 c 0
 364 510 340 525 340 556 c 0
 340 601 380 601 395 601 c 1
 373 635 331 641 307 641 c 0
 277 641 221 628 180 565 c 0
 152 522 132 455 132 352 c 2
 132 328 l 1
 152 376 189 427 257 427 c 0
 368 427 457 331 457 204 c 0
 457 72 362 -22 251 -22 c 0
 194 -22 129 4 87 85 c 5
 60 137 42 212 42 316 c 0
134 226 m 0
 134 208 134 128 152 81 c 0
 158 66 188 6 251 6 c 0
 274 6 320 11 350 71 c 0
 367 107 367 157 367 205 c 0
 367 254 367 305 349 342 c 0
 318 404 272 404 256 404 c 0
 166 404 134 304 134 226 c 0
EndSplineSet
EndChar
StartChar: uF5032
Encoding: 1003570 1003570 128
Width: 1000
Flags: MW
LayerCount: 2
Fore
SplineSet
560 371 m 4
 560 383 572 390 577 390 c 6
 580 390 l 6
 592 390 607 372 609 370 c 6
 751 228 l 1
 751 228 l 1
 893 370 l 2
 901 378 910 390 922 390 c 0
 937 390 940 376 940 373 c 0
 940 366 939 362 931 353 c 0
 917 337 932 355 842 263 c 1
 779 200 l 1
 918 61 l 2
 927 52 940 41 940 29 c 0
 940 17 931 10 922 10 c 0
 916 10 912 10 892 30 c 2
 750 172 l 1
 750 172 l 1
 613 34 l 2
 603 24 591 10 579 10 c 0
 569 10 561 18 561 28 c 0
 561 33 562 37 565 42 c 0
 572 52 562 38 722 200 c 1
 584 339 l 6
 574 348 560 359 560 371 c 4
56 470 m 1
 89 676 l 1
 114 676 l 1
 116 664 118 654 148 649 c 5
 167 646 196 644 242 644 c 2
 485 644 l 1
 485 623 485 621 476 609 c 2
 341 419 l 2
 297 357 283 271 279 248 c 0
 271 194 268 139 268 84 c 2
 268 33 l 2
 268 23 268 -22 222 -22 c 0
 176 -22 176 23 176 33 c 0
 176 135 209 274 299 409 c 0
 321 442 400 551 411 567 c 1
 204 567 l 2
 191 567 113 567 106 561 c 0
 93 549 84 486 81 470 c 1
 56 470 l 1
EndSplineSet
EndChar
StartChar: uF5033
Encoding: 1003571 1003571 129
Width: 1000
Flags: MW
LayerCount: 2
Fore
SplineSet
560 371 m 4
 560 383 572 390 577 390 c 6
 580 390 l 6
 592 390 607 372 609 370 c 6
 751 228 l 1
 751 228 l 1
 893 370 l 2
 901 378 910 390 922 390 c 0
 937 390 940 376 940 373 c 0
 940 366 939 362 931 353 c 0
 917 337 932 355 842 263 c 1
 779 200 l 1
 918 61 l 2
 927 52 940 41 940 29 c 0
 940 17 931 10 922 10 c 0
 916 10 912 10 892 30 c 2
 750 172 l 1
 750 172 l 1
 613 34 l 2
 603 24 591 10 579 10 c 0
 569 10 561 18 561 28 c 0
 561 33 562 37 565 42 c 0
 572 52 562 38 722 200 c 1
 584 339 l 6
 574 348 560 359 560 371 c 4
42 151 m 0
 42 250 128 306 186 335 c 1
 161 352 124 377 113 389 c 0
 71 436 69 481 69 499 c 0
 69 592 150 666 250 666 c 0
 341 666 430 609 430 517 c 0
 430 451 381 399 309 362 c 1
 373 322 389 312 408 291 c 0
 446 249 457 204 457 168 c 0
 457 61 362 -22 249 -22 c 0
 144 -22 42 45 42 151 c 0
92 151 m 0
 92 68 164 6 250 6 c 0
 332 6 407 58 407 132 c 0
 407 193 360 223 332 242 c 1
 209 320 l 1
 124 273 92 209 92 151 c 0
113 538 m 0
 113 521 117 487 163 457 c 2
 287 377 l 1
 347 412 386 460 386 517 c 0
 386 589 322 641 249 641 c 0
 178 641 113 599 113 538 c 0
EndSplineSet
EndChar
StartChar: uF5034
Encoding: 1003572 1003572 130
Width: 1000
Flags: MW
LayerCount: 2
Fore
SplineSet
560 371 m 4
 560 383 572 390 577 390 c 6
 580 390 l 6
 592 390 607 372 609 370 c 6
 751 228 l 1
 751 228 l 1
 893 370 l 2
 901 378 910 390 922 390 c 0
 937 390 940 376 940 373 c 0
 940 366 939 362 931 353 c 0
 917 337 932 355 842 263 c 1
 779 200 l 1
 918 61 l 2
 927 52 940 41 940 29 c 0
 940 17 931 10 922 10 c 0
 916 10 912 10 892 30 c 2
 750 172 l 1
 750 172 l 1
 613 34 l 2
 603 24 591 10 579 10 c 0
 569 10 561 18 561 28 c 0
 561 33 562 37 565 42 c 0
 572 52 562 38 722 200 c 1
 584 339 l 6
 574 348 560 359 560 371 c 4
42 441 m 0
 42 516 65 558 106 603 c 1
 149 648 198 666 253 666 c 0
 342 666 457 598 457 329 c 0
 457 114 335 -22 206 -22 c 0
 121 -22 67 19 67 86 c 0
 67 125 97 134 113 134 c 0
 135 134 159 119 159 88 c 0
 159 71 151 42 107 42 c 1
 134 8 188 6 205 6 c 0
 239 6 289 22 325 83 c 4
 350 125 367 190 367 286 c 2
 367 318 l 1
 344 260 303 218 242 218 c 0
 130 218 42 316 42 441 c 0
132 440 m 0
 132 391 132 341 150 304 c 0
 181 241 227 241 243 241 c 0
 331 241 365 338 365 421 c 0
 365 467 361 530 349 562 c 0
 332 607 299 641 253 641 c 0
 218 641 180 628 153 578 c 0
 132 541 132 494 132 440 c 0
EndSplineSet
EndChar
StartChar: uF5035
Encoding: 1003573 1003573 131
Width: 1000
Flags: MW
LayerCount: 2
Fore
SplineSet
539 320 m 0
 539 400 544 478 576 547 c 1
 617 640 690 666 750 666 c 0
 792 666 874 650 920 554 c 0
 955 480 960 400 960 320 c 0
 960 241 955 163 923 94 c 0
 879 -1 803 -22 749 -22 c 0
 700 -22 627 -2 584 79 c 0
 543 155 539 245 539 320 c 0
622 332 m 0
 622 273 622 181 633 121 c 0
 651 25 710 0 749 0 c 0
 794 0 851 30 866 125 c 0
 877 189 877 257 877 332 c 0
 877 395 877 471 867 527 c 0
 848 626 782 644 749 644 c 0
 724 644 649 635 630 516 c 0
 622 462 622 396 622 332 c 0
EndSplineSet
EndChar
StartChar: uF5036
Encoding: 1003574 1003574 132
Width: 1000
Flags: MW
LayerCount: 2
Fore
SplineSet
589 571 m 1
 589 602 l 5
 589 602 l 1
 625 602 707 606 764 659 c 0
 766 661 769 664 771 666 c 1
 794 666 794 664 794 640 c 2
 794 79 l 2
 794 42 797 31 887 31 c 2
 919 31 l 1
 919 0 l 1
 884 3 797 3 757 3 c 0
 717 3 630 3 595 0 c 1
 595 31 l 1
 627 31 l 2
 717 31 720 43 720 79 c 2
 720 597 l 1
 673 574 613 571 589 571 c 1
 589 571 l 1
EndSplineSet
EndChar
StartChar: uF503A
Encoding: 1003578 1003578 136
Width: 1000
Flags: MW
LayerCount: 2
Fore
SplineSet
550 161 m 0
 550 207 585 214 599 214 c 0
 632 214 649 189 649 165 c 0
 649 141 632 116 599 116 c 0
 588 116 585 117 582 118 c 1
 599 59 656 6 729 6 c 0
 775 6 812 32 836 71 c 1
 860 113 860 173 860 208 c 0
 860 258 858 297 842 334 c 0
 834 352 809 398 757 398 c 0
 676 398 639 344 628 328 c 0
 624 322 622 319 615 319 c 0
 601 319 601 327 601 345 c 2
 601 641 l 2
 601 657 601 665 611 665 c 0
 613 665 615 665 623 662 c 0
 670 641 716 634 756 634 c 0
 823 634 872 654 892 663 c 0
 897 666 899 666 900 666 c 0
 907 666 910 661 910 655 c 0
 910 642 840 551 717 551 c 0
 685 551 652 558 632 564 c 1
 632 369 l 1
 668 404 711 420 759 420 c 0
 867 420 949 320 949 201 c 0
 949 74 847 -22 731 -22 c 0
 619 -22 550 75 550 161 c 0
EndSplineSet
EndChar
StartChar: uF503F
Encoding: 1003583 1003583 141
Width: 1000
Flags: MW
LayerCount: 2
Fore
SplineSet
39 320 m 0
 39 400 44 478 76 547 c 1
 117 640 190 666 250 666 c 0
 292 666 374 650 420 554 c 0
 455 480 460 400 460 320 c 0
 460 241 455 163 423 94 c 0
 379 -1 303 -22 249 -22 c 0
 200 -22 127 -2 84 79 c 0
 43 155 39 245 39 320 c 0
122 332 m 0
 122 273 122 181 133 121 c 0
 151 25 210 0 249 0 c 0
 294 0 351 30 366 125 c 0
 377 189 377 257 377 332 c 0
 377 395 377 471 367 527 c 0
 348 626 282 644 249 644 c 0
 224 644 149 635 130 516 c 0
 122 462 122 396 122 332 c 0
EndSplineSet
EndChar
StartChar: uF506B
Encoding: 1003627 1003627 151
Width: 1000
Flags: MW
LayerCount: 2
Fore
SplineSet
848 53 m 0
 848 80 869 105 900 105 c 0
 927 105 952 84 952 53 c 0
 952 22 926 0 900 0 c 0
 869 0 848 26 848 53 c 0
389 320 m 0
 389 400 394 478 426 547 c 1
 467 640 540 666 600 666 c 0
 642 666 724 650 770 554 c 0
 805 480 810 400 810 320 c 0
 810 241 805 163 773 94 c 0
 729 -1 653 -22 599 -22 c 0
 550 -22 477 -2 434 79 c 0
 393 155 389 245 389 320 c 0
472 332 m 0
 472 273 472 181 483 121 c 0
 501 25 560 0 599 0 c 0
 644 0 701 30 716 125 c 0
 727 189 727 257 727 332 c 0
 727 395 727 471 717 527 c 0
 698 626 632 644 599 644 c 0
 574 644 499 635 480 516 c 0
 472 462 472 396 472 332 c 0
39 571 m 1
 39 602 l 1
 39 602 l 1
 75 602 157 606 214 659 c 0
 216 661 219 664 221 666 c 1
 244 666 244 664 244 640 c 2
 244 79 l 2
 244 42 247 31 337 31 c 2
 369 31 l 1
 369 0 l 1
 334 3 247 3 207 3 c 0
 167 3 80 3 45 0 c 1
 45 31 l 1
 77 31 l 2
 167 31 170 43 170 79 c 2
 170 597 l 1
 123 574 63 571 39 571 c 1
 39 571 l 1
EndSplineSet
EndChar
StartChar: uF506C
Encoding: 1003628 1003628 152
Width: 1000
Flags: MW
LayerCount: 2
Fore
SplineSet
848 53 m 0
 848 80 869 105 900 105 c 0
 927 105 952 84 952 53 c 0
 952 22 926 0 900 0 c 0
 869 0 848 26 848 53 c 0
439 571 m 1
 439 602 l 1
 439 602 l 1
 475 602 557 606 614 659 c 0
 616 661 619 664 621 666 c 1
 644 666 644 664 644 640 c 2
 644 79 l 2
 644 42 647 31 737 31 c 2
 769 31 l 1
 769 0 l 1
 734 3 647 3 607 3 c 0
 567 3 480 3 445 0 c 1
 445 31 l 1
 477 31 l 2
 567 31 570 43 570 79 c 2
 570 597 l 1
 523 574 463 571 439 571 c 1
 439 571 l 1
39 571 m 1
 39 602 l 1
 39 602 l 1
 75 602 157 606 214 659 c 0
 216 661 219 664 221 666 c 1
 244 666 244 664 244 640 c 2
 244 79 l 2
 244 42 247 31 337 31 c 2
 369 31 l 1
 369 0 l 1
 334 3 247 3 207 3 c 0
 167 3 80 3 45 0 c 1
 45 31 l 1
 77 31 l 2
 167 31 170 43 170 79 c 2
 170 597 l 1
 123 574 63 571 39 571 c 1
 39 571 l 1
EndSplineSet
EndChar
StartChar: uF506D
Encoding: 1003629 1003629 153
Width: 1000
Flags: MW
LayerCount: 2
Fore
SplineSet
536 148 m 0
 536 237 579 412 628 505 c 0
 650 548 676 581 702 606 c 0
 747 648 795 666 840 666 c 0
 969 666 974 536 974 496 c 0
 974 415 937 257 896 164 c 0
 884 138 871 116 858 96 c 4
 798 5 724 -22 670 -22 c 0
 536 -22 536 117 536 148 c 0
600 98 m 0
 600 20 644 0 676 0 c 0
 728 0 778 51 800 98 c 0
 843 193 912 476 912 550 c 0
 912 614 877 644 836 644 c 0
 802 644 747 622 710 547 c 0
 675 475 600 180 600 98 c 0
36 148 m 0
 36 237 79 412 128 505 c 0
 150 548 176 581 202 606 c 0
 247 648 295 666 340 666 c 0
 469 666 474 536 474 496 c 0
 474 415 437 257 396 164 c 0
 384 138 371 116 358 96 c 4
 298 5 224 -22 170 -22 c 0
 36 -22 36 117 36 148 c 0
100 98 m 0
 100 20 144 0 176 0 c 0
 228 0 278 51 300 98 c 0
 343 193 412 476 412 550 c 0
 412 614 377 644 336 644 c 0
 302 644 247 622 210 547 c 0
 175 475 100 180 100 98 c 0
EndSplineSet
EndChar
StartChar: uF506E
Encoding: 1003630 1003630 154
Width: 1000
Flags: MW
LayerCount: 2
Fore
SplineSet
584 12 m 0
 584 31 595 31 612 31 c 2
 620 31 l 2
 698 31 706 41 714 73 c 2
 832 547 l 1
 785 512 735 506 720 506 c 0
 716 506 704 506 704 518 c 0
 704 535 715 536 720 537 c 0
 729 538 741 539 756 543 c 4
 791 553 842 578 896 650 c 0
 908 665 910 666 916 666 c 0
 922 666 928 662 928 654 c 0
 928 652 925 644 924 641 c 2
 782 70 l 2
 781 66 778 57 778 51 c 0
 778 37 784 36 806 33 c 0
 819 32 837 31 850 31 c 2
 858 31 l 2
 874 31 884 31 884 19 c 0
 884 0 871 0 864 0 c 0
 820 0 774 3 730 3 c 0
 687 3 641 0 598 0 c 0
 594 0 584 0 584 12 c 0
84 148 m 0
 84 237 127 412 176 505 c 0
 198 548 224 581 250 606 c 0
 295 648 343 666 388 666 c 0
 517 666 522 536 522 496 c 0
 522 415 483 257 442 164 c 0
 430 138 419 116 406 96 c 4
 346 5 272 -22 218 -22 c 0
 84 -22 84 117 84 148 c 0
148 98 m 0
 148 20 190 0 222 0 c 0
 274 0 324 51 346 98 c 0
 389 193 460 476 460 550 c 0
 460 614 423 644 382 644 c 0
 348 644 295 622 258 547 c 0
 223 475 148 180 148 98 c 0
EndSplineSet
EndChar
StartChar: uF506F
Encoding: 1003631 1003631 155
Width: 1000
Flags: MW
LayerCount: 2
Fore
SplineSet
506 -12 m 0
 506 -12 506 -5 510 7 c 0
 518 34 538 85 586 143 c 1
 628 195 671 219 716 246 c 0
 800 296 875 364 896 473 c 0
 900 492 902 512 902 534 c 0
 902 617 855 644 814 644 c 0
 692 644 616 456 616 391 c 0
 616 363 626 358 638 358 c 0
 699 358 736 464 736 493 c 0
 736 505 732 518 726 530 c 0
 725 532 726 534 726 536 c 0
 726 542 730 547 736 547 c 0
 749 547 758 512 758 494 c 0
 758 456 717 336 638 336 c 0
 593 336 586 379 586 399 c 0
 586 464 668 666 816 666 c 0
 894 666 972 612 972 497 c 0
 972 368 882 306 728 219 c 0
 697 201 624 160 574 74 c 1
 576 75 585 77 596 77 c 0
 627 77 666 68 702 60 c 0
 718 56 756 48 784 48 c 0
 851 48 890 115 904 156 c 1
 908 172 910 173 922 173 c 0
 929 173 936 173 936 163 c 0
 936 152 891 -22 776 -22 c 0
 736 -22 704 0 678 18 c 0
 653 35 626 55 594 55 c 0
 580 55 569 48 560 37 c 4
 549 24 542 6 538 -9 c 0
 535 -20 532 -22 520 -22 c 0
 518 -22 516 -22 514 -22 c 0
 510 -21 506 -19 506 -12 c 0
38 148 m 0
 38 237 81 412 130 505 c 0
 152 548 178 581 204 606 c 0
 249 648 297 666 342 666 c 0
 471 666 476 536 476 496 c 0
 476 415 439 257 398 164 c 0
 386 138 373 116 360 96 c 4
 300 5 226 -22 172 -22 c 0
 38 -22 38 117 38 148 c 0
102 98 m 0
 102 20 146 0 178 0 c 0
 230 0 280 51 302 98 c 0
 345 193 414 476 414 550 c 0
 414 614 379 644 338 644 c 0
 304 644 249 622 212 547 c 0
 177 475 102 180 102 98 c 0
EndSplineSet
EndChar
StartChar: uF5070
Encoding: 1003632 1003632 156
Width: 1000
Flags: MW
LayerCount: 2
Fore
SplineSet
511 106 m 0
 511 124 513 184 564 184 c 0
 587 184 598 168 598 152 c 0
 598 137 585 100 542 104 c 1
 544 30 594 0 644 0 c 0
 689 0 735 25 763 59 c 1
 815 119 824 218 824 236 c 0
 824 317 766 319 747 319 c 2
 719 319 l 2
 702 319 694 319 694 329 c 0
 694 350 703 350 720 350 c 2
 743 350 l 2
 774 350 800 357 821 368 c 4
 911 415 918 541 918 554 c 0
 918 626 870 644 833 644 c 0
 736 644 645 550 645 471 c 0
 645 453 651 434 671 434 c 0
 700 434 732 462 732 496 c 0
 732 511 725 524 724 525 c 0
 721 531 720 533 720 536 c 0
 720 542 725 547 731 547 c 0
 743 547 754 516 754 497 c 0
 754 447 708 412 671 412 c 0
 634 412 615 441 615 476 c 0
 615 561 716 666 835 666 c 0
 913 666 978 617 978 532 c 0
 978 461 928 377 837 338 c 0
 830 335 823 332 816 330 c 1
 892 295 896 222 896 203 c 0
 896 83 770 -22 644 -22 c 0
 559 -22 511 38 511 106 c 0
33 148 m 0
 33 237 76 412 125 505 c 0
 147 548 173 581 199 606 c 0
 244 648 292 666 337 666 c 0
 466 666 471 536 471 496 c 0
 471 415 433 257 392 164 c 0
 380 138 368 116 355 96 c 4
 295 5 221 -22 167 -22 c 0
 33 -22 33 117 33 148 c 0
97 98 m 0
 97 20 140 0 172 0 c 0
 224 0 274 51 296 98 c 0
 339 193 409 476 409 550 c 0
 409 614 373 644 332 644 c 0
 298 644 244 622 207 547 c 0
 172 475 97 180 97 98 c 0
EndSplineSet
EndChar
StartChar: uF5071
Encoding: 1003633 1003633 157
Width: 1000
Flags: MW
LayerCount: 2
Fore
SplineSet
504 18 m 0
 504 34 536 51 543 54 c 1
 545 56 579 82 623 131 c 0
 651 163 684 204 715 255 c 0
 786 371 830 491 863 616 c 0
 870 643 876 666 905 666 c 0
 915 666 932 661 932 640 c 0
 932 640 922 585 892 503 c 0
 849 386 763 213 604 66 c 1
 617 67 619 67 631 67 c 0
 653 67 670 67 707 56 c 1
 736 46 695 59 768 33 c 1
 769 39 807 189 810 199 c 0
 813 211 817 227 829 236 c 4
 834 240 841 242 850 242 c 0
 853 242 877 241 877 215 c 0
 877 212 877 210 873 195 c 2
 829 17 l 1
 834 16 838 16 845 16 c 0
 862 16 887 20 905 27 c 0
 915 31 917 31 919 31 c 0
 928 31 934 19 934 14 c 0
 934 -2 869 -15 841 -15 c 0
 835 -15 827 -15 821 -14 c 1
 784 -160 l 2
 781 -170 777 -178 772 -184 c 0
 765 -191 757 -194 746 -194 c 0
 736 -194 719 -189 719 -168 c 0
 719 -164 719 -162 723 -147 c 2
 760 2 l 1
 738 10 714 20 701 25 c 0
 666 36 646 36 628 36 c 0
 569 36 560 29 551 21 c 1
 540 13 525 1 519 1 c 0
 511 1 504 14 504 18 c 0
77 148 m 0
 77 237 120 412 169 505 c 0
 191 548 217 581 243 606 c 0
 288 648 336 666 381 666 c 0
 510 666 515 536 515 496 c 0
 515 415 477 257 436 164 c 0
 424 138 412 116 399 96 c 4
 339 5 265 -22 211 -22 c 0
 77 -22 77 117 77 148 c 0
141 98 m 0
 141 20 184 0 216 0 c 0
 268 0 318 51 340 98 c 0
 383 193 453 476 453 550 c 0
 453 614 417 644 376 644 c 0
 342 644 288 622 251 547 c 0
 216 475 141 180 141 98 c 0
EndSplineSet
EndChar
StartChar: uF5072
Encoding: 1003634 1003634 158
Width: 1000
Flags: MW
LayerCount: 2
Fore
SplineSet
520 117 m 0
 520 149 526 208 578 208 c 0
 601 208 614 194 614 174 c 0
 614 151 596 122 562 122 c 0
 557 122 555 122 552 123 c 1
 553 26 614 6 650 6 c 0
 677 6 714 18 750 54 c 0
 764 68 778 86 790 109 c 0
 811 149 840 254 840 309 c 0
 840 363 819 398 778 398 c 0
 749 398 695 389 644 329 c 0
 637 322 635 319 628 319 c 0
 622 319 614 321 614 331 c 0
 614 333 615 341 616 344 c 2
 692 648 l 2
 695 659 697 665 704 665 c 0
 708 665 712 663 718 660 c 0
 747 644 786 634 830 634 c 0
 869 634 915 642 960 662 c 0
 965 664 969 665 972 665 c 0
 975 665 980 663 980 656 c 0
 980 652 976 645 966 635 c 4
 936 605 865 558 782 558 c 0
 762 558 739 560 720 567 c 0
 710 570 709 570 708 570 c 0
 707 570 705 569 702 558 c 2
 656 374 l 1
 693 403 734 420 780 420 c 0
 867 420 912 344 912 265 c 0
 912 113 778 -22 650 -22 c 0
 564 -22 520 44 520 117 c 0
30 148 m 0
 30 237 73 412 122 505 c 0
 144 548 170 581 196 606 c 0
 241 648 289 666 334 666 c 0
 463 666 468 536 468 496 c 0
 468 415 431 257 390 164 c 0
 378 138 365 116 352 96 c 4
 292 5 218 -22 164 -22 c 0
 30 -22 30 117 30 148 c 0
94 98 m 0
 94 20 138 0 170 0 c 0
 222 0 272 51 294 98 c 0
 337 193 406 476 406 550 c 0
 406 614 371 644 330 644 c 0
 296 644 241 622 204 547 c 0
 169 475 94 180 94 98 c 0
EndSplineSet
EndChar
StartChar: uF5073
Encoding: 1003635 1003635 159
Width: 1000
Flags: MW
LayerCount: 2
Fore
SplineSet
533 158 m 0
 533 204 542 288 573 375 c 0
 589 420 611 466 640 507 c 0
 712 609 802 666 884 666 c 0
 944 666 981 637 981 587 c 0
 981 549 963 521 929 521 c 0
 903 521 895 539 895 553 c 0
 895 560 900 601 948 601 c 1
 938 637 905 641 883 641 c 0
 822 641 769 593 738 554 c 0
 692 495 668 429 645 339 c 1
 675 383 719 426 780 426 c 0
 893 426 920 320 920 270 c 0
 920 220 906 170 882 127 c 4
 853 74 810 29 761 3 c 0
 731 -13 699 -22 667 -22 c 0
 533 -22 533 131 533 158 c 0
598 97 m 0
 598 68 610 6 669 6 c 0
 725 6 767 49 793 96 c 1
 804 117 819 167 831 215 c 0
 841 256 848 296 848 317 c 0
 848 348 839 368 830 380 c 0
 813 404 791 404 777 404 c 0
 644 404 598 176 598 97 c 0
30 148 m 0
 30 237 73 412 122 505 c 0
 144 548 170 581 196 606 c 0
 241 648 289 666 334 666 c 0
 463 666 468 536 468 496 c 0
 468 415 430 257 389 164 c 0
 377 138 365 116 352 96 c 4
 292 5 218 -22 164 -22 c 0
 30 -22 30 117 30 148 c 0
94 98 m 0
 94 20 137 0 169 0 c 0
 221 0 271 51 293 98 c 0
 336 193 406 476 406 550 c 0
 406 614 370 644 329 644 c 0
 295 644 241 622 204 547 c 0
 169 475 94 180 94 98 c 0
EndSplineSet
EndChar
StartChar: uF5074
Encoding: 1003636 1003636 160
Width: 1000
Flags: MW
LayerCount: 2
Fore
SplineSet
528 432 m 0
 528 433 528 435 534 447 c 2
 630 651 l 2
 636 663 637 665 644 666 c 0
 645 666 648 666 650 666 c 0
 655 666 664 666 664 656 c 0
 664 655 665 653 642 603 c 1
 700 658 749 666 776 666 c 0
 817 666 820 636 824 598 c 0
 827 564 830 549 852 549 c 0
 893 549 931 589 968 643 c 1
 982 663 l 1
 986 666 991 666 996 666 c 0
 999 666 1001 666 1004 665 c 0
 1007 664 1010 661 1010 656 c 0
 1010 654 1009 652 1000 639 c 0
 972 596 926 527 874 415 c 0
 816 291 775 164 744 44 c 0
 736 10 727 -22 688 -22 c 0
 671 -22 652 -11 652 11 c 0
 652 13 657 42 674 93 c 0
 690 143 717 214 762 304 c 0
 795 370 797 372 898 538 c 1
 884 531 868 527 852 527 c 0
 835 527 820 532 804 561 c 1
 787 589 781 596 762 596 c 0
 726 596 635 575 560 430 c 0
 556 423 555 422 544 422 c 0
 542 422 538 422 536 422 c 4
 532 423 528 425 528 432 c 0
2 148 m 0
 2 237 45 412 94 505 c 0
 116 548 142 581 168 606 c 0
 213 648 261 666 306 666 c 0
 435 666 440 536 440 496 c 0
 440 415 401 257 360 164 c 0
 348 138 337 116 324 96 c 4
 264 5 190 -22 136 -22 c 0
 2 -22 2 117 2 148 c 0
66 98 m 0
 66 20 108 0 140 0 c 0
 192 0 242 51 264 98 c 0
 307 193 378 476 378 550 c 0
 378 614 341 644 300 644 c 0
 266 644 213 622 176 547 c 0
 141 475 66 180 66 98 c 0
EndSplineSet
EndChar
StartChar: uF5075
Encoding: 1003637 1003637 161
Width: 1000
Flags: MW
LayerCount: 2
Fore
SplineSet
517 115 m 0
 517 160 536 258 706 337 c 1
 661 377 660 378 654 386 c 0
 644 399 630 427 630 463 c 0
 630 563 730 666 840 666 c 0
 910 666 974 624 974 548 c 0
 974 474 916 408 817 360 c 9
 817 360 l 21
 840 340 880 306 885 299 c 0
 905 272 914 240 914 208 c 0
 914 93 798 -22 672 -22 c 0
 587 -22 517 31 517 115 c 0
567 113 m 0
 567 49 611 6 675 6 c 0
 767 6 855 86 855 166 c 0
 855 211 832 230 807 252 c 2
 725 321 l 1
 626 274 567 186 567 113 c 0
685 509 m 0
 685 485 695 463 713 448 c 2
 789 384 l 2
 796 377 797 377 798 377 c 0
 804 377 929 445 929 550 c 0
 929 608 890 641 837 641 c 0
 760 641 685 575 685 509 c 0
37 148 m 0
 37 237 80 412 129 505 c 0
 151 548 177 581 203 606 c 0
 248 648 296 666 341 666 c 0
 470 666 475 536 475 496 c 0
 475 415 437 257 396 164 c 0
 384 138 372 116 359 96 c 4
 299 5 225 -22 171 -22 c 0
 37 -22 37 117 37 148 c 0
101 98 m 0
 101 20 144 0 176 0 c 0
 228 0 278 51 300 98 c 0
 343 193 413 476 413 550 c 0
 413 614 377 644 336 644 c 0
 302 644 248 622 211 547 c 0
 176 475 101 180 101 98 c 0
EndSplineSet
EndChar
StartChar: uF5076
Encoding: 1003638 1003638 162
Width: 1000
Flags: MW
LayerCount: 2
Fore
SplineSet
524 58 m 0
 524 94 542 123 576 123 c 0
 602 123 610 105 610 91 c 0
 610 86 608 46 560 42 c 1
 573 13 606 6 634 6 c 0
 696 6 745 58 766 84 c 0
 810 140 834 200 860 306 c 1
 829 259 786 219 726 219 c 0
 611 219 586 331 586 376 c 0
 586 441 611 506 650 557 c 0
 699 622 771 666 844 666 c 0
 974 666 974 515 974 488 c 0
 974 457 966 362 928 259 c 4
 912 214 890 169 860 126 c 0
 813 59 728 -22 632 -22 c 0
 570 -22 524 5 524 58 c 0
658 328 m 0
 658 314 657 241 728 241 c 0
 865 241 908 478 908 550 c 0
 908 593 893 641 842 641 c 0
 771 641 728 573 716 551 c 0
 696 515 674 435 664 379 c 0
 660 357 658 339 658 328 c 0
38 148 m 0
 38 237 81 412 130 505 c 0
 152 548 178 581 204 606 c 0
 249 648 297 666 342 666 c 0
 471 666 476 536 476 496 c 0
 476 415 437 257 396 164 c 0
 384 138 373 116 360 96 c 4
 300 5 226 -22 172 -22 c 0
 38 -22 38 117 38 148 c 0
102 98 m 0
 102 20 144 0 176 0 c 0
 228 0 278 51 300 98 c 0
 343 193 414 476 414 550 c 0
 414 614 377 644 336 644 c 0
 302 644 249 622 212 547 c 0
 177 475 102 180 102 98 c 0
EndSplineSet
EndChar
StartChar: uF5077
Encoding: 1003639 1003639 163
Width: 1000
Flags: MW
LayerCount: 2
Fore
SplineSet
536 148 m 0
 536 237 579 412 628 505 c 0
 650 548 676 581 702 606 c 0
 747 648 795 666 840 666 c 0
 969 666 974 536 974 496 c 0
 974 415 937 257 896 164 c 0
 884 138 871 116 858 96 c 4
 798 5 724 -22 670 -22 c 0
 536 -22 536 117 536 148 c 0
600 98 m 0
 600 20 644 0 676 0 c 0
 728 0 778 51 800 98 c 0
 843 193 912 476 912 550 c 0
 912 614 877 644 836 644 c 0
 802 644 747 622 710 547 c 0
 675 475 600 180 600 98 c 0
36 12 m 0
 36 31 47 31 64 31 c 2
 72 31 l 2
 150 31 158 41 166 73 c 2
 284 547 l 1
 237 512 189 506 174 506 c 0
 170 506 158 506 158 518 c 0
 158 535 169 536 174 537 c 0
 183 538 195 539 210 543 c 4
 245 553 296 578 350 650 c 0
 362 665 362 666 368 666 c 0
 374 666 380 662 380 654 c 0
 380 652 379 644 378 641 c 2
 234 70 l 2
 233 66 232 57 232 51 c 0
 232 37 238 36 260 33 c 0
 273 32 289 31 302 31 c 2
 310 31 l 2
 326 31 336 31 336 19 c 0
 336 0 323 0 316 0 c 0
 272 0 226 3 182 3 c 0
 139 3 95 0 52 0 c 0
 48 0 36 0 36 12 c 0
EndSplineSet
EndChar
StartChar: uF5078
Encoding: 1003640 1003640 164
Width: 1000
Flags: MW
LayerCount: 2
Fore
SplineSet
584 12 m 0
 584 31 595 31 612 31 c 2
 620 31 l 2
 698 31 706 41 714 73 c 2
 832 547 l 1
 785 512 735 506 720 506 c 0
 716 506 704 506 704 518 c 0
 704 535 715 536 720 537 c 0
 729 538 741 539 756 543 c 4
 791 553 842 578 896 650 c 0
 908 665 910 666 916 666 c 0
 922 666 928 662 928 654 c 0
 928 652 925 644 924 641 c 2
 782 70 l 2
 781 66 778 57 778 51 c 0
 778 37 784 36 806 33 c 0
 819 32 837 31 850 31 c 2
 858 31 l 2
 874 31 884 31 884 19 c 0
 884 0 871 0 864 0 c 0
 820 0 774 3 730 3 c 0
 687 3 641 0 598 0 c 0
 594 0 584 0 584 12 c 0
84 12 m 0
 84 31 95 31 112 31 c 2
 120 31 l 2
 198 31 206 41 214 73 c 2
 332 547 l 1
 285 512 235 506 220 506 c 0
 216 506 204 506 204 518 c 0
 204 535 215 536 220 537 c 0
 229 538 241 539 256 543 c 4
 291 553 342 578 396 650 c 0
 408 665 410 666 416 666 c 0
 422 666 428 662 428 654 c 0
 428 652 425 644 424 641 c 2
 282 70 l 2
 281 66 278 57 278 51 c 0
 278 37 284 36 306 33 c 0
 319 32 337 31 350 31 c 2
 358 31 l 2
 374 31 384 31 384 19 c 0
 384 0 371 0 364 0 c 0
 320 0 274 3 230 3 c 0
 187 3 141 0 98 0 c 0
 94 0 84 0 84 12 c 0
EndSplineSet
EndChar
StartChar: uF5079
Encoding: 1003641 1003641 165
Width: 1000
Flags: MW
LayerCount: 2
Fore
SplineSet
506 -12 m 0
 506 -12 506 -5 510 7 c 0
 518 34 538 85 586 143 c 1
 628 195 671 219 716 246 c 0
 800 296 875 364 896 473 c 0
 900 492 902 512 902 534 c 0
 902 617 855 644 814 644 c 0
 692 644 616 456 616 391 c 0
 616 363 626 358 638 358 c 0
 699 358 736 464 736 493 c 0
 736 505 732 518 726 530 c 0
 725 532 726 534 726 536 c 0
 726 542 730 547 736 547 c 0
 749 547 758 512 758 494 c 0
 758 456 717 336 638 336 c 0
 593 336 586 379 586 399 c 0
 586 464 668 666 816 666 c 0
 894 666 972 612 972 497 c 0
 972 368 882 306 728 219 c 0
 697 201 624 160 574 74 c 1
 576 75 585 77 596 77 c 0
 627 77 666 68 702 60 c 0
 718 56 756 48 784 48 c 0
 851 48 890 115 904 156 c 1
 908 172 910 173 922 173 c 0
 929 173 936 173 936 163 c 0
 936 152 891 -22 776 -22 c 0
 736 -22 704 0 678 18 c 0
 653 35 626 55 594 55 c 0
 580 55 569 48 560 37 c 4
 549 24 542 6 538 -9 c 0
 535 -20 532 -22 520 -22 c 0
 518 -22 516 -22 514 -22 c 0
 510 -21 506 -19 506 -12 c 0
38 12 m 0
 38 31 49 31 66 31 c 2
 74 31 l 2
 152 31 160 41 168 73 c 2
 286 547 l 1
 239 512 191 506 176 506 c 0
 172 506 160 506 160 518 c 0
 160 535 171 536 176 537 c 0
 185 538 197 539 212 543 c 4
 247 553 298 578 352 650 c 0
 364 665 364 666 370 666 c 0
 376 666 382 662 382 654 c 0
 382 652 381 644 380 641 c 2
 236 70 l 2
 235 66 234 57 234 51 c 0
 234 37 240 36 262 33 c 0
 275 32 291 31 304 31 c 2
 312 31 l 2
 328 31 338 31 338 19 c 0
 338 0 325 0 318 0 c 0
 274 0 228 3 184 3 c 0
 141 3 97 0 54 0 c 0
 50 0 38 0 38 12 c 0
EndSplineSet
EndChar
StartChar: uF507A
Encoding: 1003642 1003642 166
Width: 1000
Flags: MW
LayerCount: 2
Fore
SplineSet
511 106 m 0
 511 124 513 184 564 184 c 0
 587 184 598 168 598 152 c 0
 598 137 585 100 542 104 c 1
 544 30 594 0 644 0 c 0
 689 0 735 25 763 59 c 1
 815 119 824 218 824 236 c 0
 824 317 766 319 747 319 c 2
 719 319 l 2
 702 319 694 319 694 329 c 0
 694 350 703 350 720 350 c 2
 743 350 l 2
 774 350 800 357 821 368 c 4
 911 415 918 541 918 554 c 0
 918 626 870 644 833 644 c 0
 736 644 645 550 645 471 c 0
 645 453 651 434 671 434 c 0
 700 434 732 462 732 496 c 0
 732 511 725 524 724 525 c 0
 721 531 720 533 720 536 c 0
 720 542 725 547 731 547 c 0
 743 547 754 516 754 497 c 0
 754 447 708 412 671 412 c 0
 634 412 615 441 615 476 c 0
 615 561 716 666 835 666 c 0
 913 666 978 617 978 532 c 0
 978 461 928 377 837 338 c 0
 830 335 823 332 816 330 c 1
 892 295 896 222 896 203 c 0
 896 83 770 -22 644 -22 c 0
 559 -22 511 38 511 106 c 0
33 12 m 0
 33 31 44 31 61 31 c 2
 69 31 l 2
 147 31 155 41 163 73 c 2
 281 547 l 1
 234 512 185 506 170 506 c 0
 166 506 154 506 154 518 c 0
 154 535 165 536 170 537 c 0
 179 538 191 539 206 543 c 4
 241 553 292 578 346 650 c 0
 358 665 359 666 365 666 c 0
 371 666 377 662 377 654 c 0
 377 652 375 644 374 641 c 2
 231 70 l 2
 230 66 228 57 228 51 c 0
 228 37 234 36 256 33 c 0
 269 32 286 31 299 31 c 2
 307 31 l 2
 323 31 333 31 333 19 c 0
 333 0 320 0 313 0 c 0
 269 0 223 3 179 3 c 0
 136 3 91 0 48 0 c 0
 44 0 33 0 33 12 c 0
EndSplineSet
EndChar
StartChar: uF507B
Encoding: 1003643 1003643 167
Width: 1000
Flags: MW
LayerCount: 2
Fore
SplineSet
504 18 m 0
 504 34 536 51 543 54 c 1
 545 56 579 82 623 131 c 0
 651 163 684 204 715 255 c 0
 786 371 830 491 863 616 c 0
 870 643 876 666 905 666 c 0
 915 666 932 661 932 640 c 0
 932 640 922 585 892 503 c 0
 849 386 763 213 604 66 c 1
 617 67 619 67 631 67 c 0
 653 67 670 67 707 56 c 1
 736 46 695 59 768 33 c 1
 769 39 807 189 810 199 c 0
 813 211 817 227 829 236 c 4
 834 240 841 242 850 242 c 0
 853 242 877 241 877 215 c 0
 877 212 877 210 873 195 c 2
 829 17 l 1
 834 16 838 16 845 16 c 0
 862 16 887 20 905 27 c 0
 915 31 917 31 919 31 c 0
 928 31 934 19 934 14 c 0
 934 -2 869 -15 841 -15 c 0
 835 -15 827 -15 821 -14 c 1
 784 -160 l 2
 781 -170 777 -178 772 -184 c 0
 765 -191 757 -194 746 -194 c 0
 736 -194 719 -189 719 -168 c 0
 719 -164 719 -162 723 -147 c 2
 760 2 l 1
 738 10 714 20 701 25 c 0
 666 36 646 36 628 36 c 0
 569 36 560 29 551 21 c 1
 540 13 525 1 519 1 c 0
 511 1 504 14 504 18 c 0
77 12 m 0
 77 31 88 31 105 31 c 2
 113 31 l 2
 191 31 199 41 207 73 c 2
 325 547 l 1
 278 512 229 506 214 506 c 0
 210 506 198 506 198 518 c 0
 198 535 209 536 214 537 c 0
 223 538 235 539 250 543 c 4
 285 553 336 578 390 650 c 0
 402 665 403 666 409 666 c 0
 415 666 421 662 421 654 c 0
 421 652 419 644 418 641 c 2
 275 70 l 2
 274 66 272 57 272 51 c 0
 272 37 278 36 300 33 c 0
 313 32 330 31 343 31 c 2
 351 31 l 2
 367 31 377 31 377 19 c 0
 377 0 364 0 357 0 c 0
 313 0 267 3 223 3 c 0
 180 3 135 0 92 0 c 0
 88 0 77 0 77 12 c 0
EndSplineSet
EndChar
StartChar: uF507C
Encoding: 1003644 1003644 168
Width: 1000
Flags: MW
LayerCount: 2
Fore
SplineSet
520 117 m 0
 520 149 526 208 578 208 c 0
 601 208 614 194 614 174 c 0
 614 151 596 122 562 122 c 0
 557 122 555 122 552 123 c 1
 553 26 614 6 650 6 c 0
 677 6 714 18 750 54 c 0
 764 68 778 86 790 109 c 0
 811 149 840 254 840 309 c 0
 840 363 819 398 778 398 c 0
 749 398 695 389 644 329 c 0
 637 322 635 319 628 319 c 0
 622 319 614 321 614 331 c 0
 614 333 615 341 616 344 c 2
 692 648 l 2
 695 659 697 665 704 665 c 0
 708 665 712 663 718 660 c 0
 747 644 786 634 830 634 c 0
 869 634 915 642 960 662 c 0
 965 664 969 665 972 665 c 0
 975 665 980 663 980 656 c 0
 980 652 976 645 966 635 c 4
 936 605 865 558 782 558 c 0
 762 558 739 560 720 567 c 0
 710 570 709 570 708 570 c 0
 707 570 705 569 702 558 c 2
 656 374 l 1
 693 403 734 420 780 420 c 0
 867 420 912 344 912 265 c 0
 912 113 778 -22 650 -22 c 0
 564 -22 520 44 520 117 c 0
30 12 m 0
 30 31 41 31 58 31 c 2
 66 31 l 2
 144 31 152 41 160 73 c 2
 278 547 l 1
 231 512 183 506 168 506 c 0
 164 506 152 506 152 518 c 0
 152 535 163 536 168 537 c 0
 177 538 189 539 204 543 c 4
 239 553 290 578 344 650 c 0
 356 665 356 666 362 666 c 0
 368 666 374 662 374 654 c 0
 374 652 373 644 372 641 c 2
 228 70 l 2
 227 66 226 57 226 51 c 0
 226 37 232 36 254 33 c 0
 267 32 283 31 296 31 c 2
 304 31 l 2
 320 31 330 31 330 19 c 0
 330 0 317 0 310 0 c 0
 266 0 220 3 176 3 c 0
 133 3 89 0 46 0 c 0
 42 0 30 0 30 12 c 0
EndSplineSet
EndChar
StartChar: uF507D
Encoding: 1003645 1003645 169
Width: 1000
Flags: MW
LayerCount: 2
Fore
SplineSet
533 158 m 0
 533 204 542 288 573 375 c 0
 589 420 611 466 640 507 c 0
 712 609 802 666 884 666 c 0
 944 666 981 637 981 587 c 0
 981 549 963 521 929 521 c 0
 903 521 895 539 895 553 c 0
 895 560 900 601 948 601 c 1
 938 637 905 641 883 641 c 0
 822 641 769 593 738 554 c 0
 692 495 668 429 645 339 c 1
 675 383 719 426 780 426 c 0
 893 426 920 320 920 270 c 0
 920 220 906 170 882 127 c 4
 853 74 810 29 761 3 c 0
 731 -13 699 -22 667 -22 c 0
 533 -22 533 131 533 158 c 0
598 97 m 0
 598 68 610 6 669 6 c 0
 725 6 767 49 793 96 c 1
 804 117 819 167 831 215 c 0
 841 256 848 296 848 317 c 0
 848 348 839 368 830 380 c 0
 813 404 791 404 777 404 c 0
 644 404 598 176 598 97 c 0
30 12 m 0
 30 31 41 31 58 31 c 2
 66 31 l 2
 144 31 152 41 160 73 c 2
 278 547 l 1
 231 512 182 506 167 506 c 0
 163 506 151 506 151 518 c 0
 151 535 162 536 167 537 c 0
 176 538 188 539 203 543 c 4
 238 553 289 578 343 650 c 0
 355 665 356 666 362 666 c 0
 368 666 374 662 374 654 c 0
 374 652 372 644 371 641 c 2
 228 70 l 2
 227 66 225 57 225 51 c 0
 225 37 231 36 253 33 c 0
 266 32 283 31 296 31 c 2
 304 31 l 2
 320 31 330 31 330 19 c 0
 330 0 317 0 310 0 c 0
 266 0 220 3 176 3 c 0
 133 3 88 0 45 0 c 0
 41 0 30 0 30 12 c 0
EndSplineSet
EndChar
StartChar: uF507E
Encoding: 1003646 1003646 170
Width: 1000
Flags: MW
LayerCount: 2
Fore
SplineSet
528 432 m 0
 528 433 528 435 534 447 c 2
 630 651 l 2
 636 663 637 665 644 666 c 0
 645 666 648 666 650 666 c 0
 655 666 664 666 664 656 c 0
 664 655 665 653 642 603 c 1
 700 658 749 666 776 666 c 0
 817 666 820 636 824 598 c 0
 827 564 830 549 852 549 c 0
 893 549 931 589 968 643 c 1
 982 663 l 1
 986 666 991 666 996 666 c 0
 999 666 1001 666 1004 665 c 0
 1007 664 1010 661 1010 656 c 0
 1010 654 1009 652 1000 639 c 0
 972 596 926 527 874 415 c 0
 816 291 775 164 744 44 c 0
 736 10 727 -22 688 -22 c 0
 671 -22 652 -11 652 11 c 0
 652 13 657 42 674 93 c 0
 690 143 717 214 762 304 c 0
 795 370 797 372 898 538 c 1
 884 531 868 527 852 527 c 0
 835 527 820 532 804 561 c 1
 787 589 781 596 762 596 c 0
 726 596 635 575 560 430 c 0
 556 423 555 422 544 422 c 0
 542 422 538 422 536 422 c 4
 532 423 528 425 528 432 c 0
2 12 m 0
 2 31 13 31 30 31 c 2
 38 31 l 2
 116 31 124 41 132 73 c 2
 250 547 l 1
 203 512 153 506 138 506 c 0
 134 506 122 506 122 518 c 0
 122 535 133 536 138 537 c 0
 147 538 159 539 174 543 c 4
 209 553 260 578 314 650 c 0
 326 665 328 666 334 666 c 0
 340 666 346 662 346 654 c 0
 346 652 343 644 342 641 c 2
 200 70 l 2
 199 66 196 57 196 51 c 0
 196 37 202 36 224 33 c 0
 237 32 255 31 268 31 c 2
 276 31 l 2
 292 31 302 31 302 19 c 0
 302 0 289 0 282 0 c 0
 238 0 192 3 148 3 c 0
 105 3 59 0 16 0 c 0
 12 0 2 0 2 12 c 0
EndSplineSet
EndChar
StartChar: uF507F
Encoding: 1003647 1003647 171
Width: 1000
Flags: MW
LayerCount: 2
Fore
SplineSet
517 115 m 0
 517 160 536 258 706 337 c 1
 661 377 660 378 654 386 c 0
 644 399 630 427 630 463 c 0
 630 563 730 666 840 666 c 0
 910 666 974 624 974 548 c 0
 974 474 916 408 817 360 c 9
 817 360 l 21
 840 340 880 306 885 299 c 0
 905 272 914 240 914 208 c 0
 914 93 798 -22 672 -22 c 0
 587 -22 517 31 517 115 c 0
567 113 m 0
 567 49 611 6 675 6 c 0
 767 6 855 86 855 166 c 0
 855 211 832 230 807 252 c 2
 725 321 l 1
 626 274 567 186 567 113 c 0
685 509 m 0
 685 485 695 463 713 448 c 2
 789 384 l 2
 796 377 797 377 798 377 c 0
 804 377 929 445 929 550 c 0
 929 608 890 641 837 641 c 0
 760 641 685 575 685 509 c 0
37 12 m 0
 37 31 48 31 65 31 c 2
 73 31 l 2
 151 31 159 41 167 73 c 2
 285 547 l 1
 238 512 189 506 174 506 c 0
 170 506 158 506 158 518 c 0
 158 535 169 536 174 537 c 0
 183 538 195 539 210 543 c 4
 245 553 296 578 350 650 c 0
 362 665 363 666 369 666 c 0
 375 666 381 662 381 654 c 0
 381 652 379 644 378 641 c 2
 235 70 l 2
 234 66 232 57 232 51 c 0
 232 37 238 36 260 33 c 0
 273 32 290 31 303 31 c 2
 311 31 l 2
 327 31 337 31 337 19 c 0
 337 0 324 0 317 0 c 0
 273 0 227 3 183 3 c 0
 140 3 95 0 52 0 c 0
 48 0 37 0 37 12 c 0
EndSplineSet
EndChar
StartChar: uF5080
Encoding: 1003648 1003648 172
Width: 1000
Flags: MW
LayerCount: 2
Fore
SplineSet
524 58 m 0
 524 94 542 123 576 123 c 0
 602 123 610 105 610 91 c 0
 610 86 608 46 560 42 c 1
 573 13 606 6 634 6 c 0
 696 6 745 58 766 84 c 0
 810 140 834 200 860 306 c 1
 829 259 786 219 726 219 c 0
 611 219 586 331 586 376 c 0
 586 441 611 506 650 557 c 0
 699 622 771 666 844 666 c 0
 974 666 974 515 974 488 c 0
 974 457 966 362 928 259 c 4
 912 214 890 169 860 126 c 0
 813 59 728 -22 632 -22 c 0
 570 -22 524 5 524 58 c 0
658 328 m 0
 658 314 657 241 728 241 c 0
 865 241 908 478 908 550 c 0
 908 593 893 641 842 641 c 0
 771 641 728 573 716 551 c 0
 696 515 674 435 664 379 c 0
 660 357 658 339 658 328 c 0
38 12 m 0
 38 31 49 31 66 31 c 2
 74 31 l 2
 152 31 160 41 168 73 c 2
 286 547 l 1
 239 512 189 506 174 506 c 0
 170 506 158 506 158 518 c 0
 158 535 169 536 174 537 c 0
 183 538 195 539 210 543 c 4
 245 553 296 578 350 650 c 0
 362 665 364 666 370 666 c 0
 376 666 382 662 382 654 c 0
 382 652 379 644 378 641 c 2
 236 70 l 2
 235 66 232 57 232 51 c 0
 232 37 238 36 260 33 c 0
 273 32 291 31 304 31 c 2
 312 31 l 2
 328 31 338 31 338 19 c 0
 338 0 325 0 318 0 c 0
 274 0 228 3 184 3 c 0
 141 3 95 0 52 0 c 0
 48 0 38 0 38 12 c 0
EndSplineSet
EndChar
StartChar: uF5081
Encoding: 1003649 1003649 173
Width: 1000
Flags: MW
LayerCount: 2
Fore
SplineSet
553 148 m 0
 553 237 596 412 645 505 c 0
 667 548 693 581 719 606 c 0
 764 648 812 666 857 666 c 0
 986 666 991 536 991 496 c 0
 991 415 953 257 912 164 c 0
 900 138 888 116 875 96 c 4
 815 5 741 -22 687 -22 c 0
 553 -22 553 117 553 148 c 0
617 98 m 0
 617 20 660 0 692 0 c 0
 744 0 794 51 816 98 c 0
 859 193 929 476 929 550 c 0
 929 614 893 644 852 644 c 0
 818 644 764 622 727 547 c 0
 692 475 617 180 617 98 c 0
20 -12 m 0
 20 -12 21 -5 25 7 c 0
 33 34 53 85 101 143 c 1
 143 195 185 219 230 246 c 0
 314 296 389 364 410 473 c 0
 414 492 416 512 416 534 c 0
 416 617 369 644 328 644 c 0
 206 644 131 456 131 391 c 0
 131 363 141 358 153 358 c 0
 214 358 251 464 251 493 c 0
 251 505 247 518 241 530 c 0
 240 532 240 534 240 536 c 0
 240 542 245 547 251 547 c 0
 264 547 273 512 273 494 c 0
 273 456 231 336 152 336 c 0
 107 336 101 379 101 399 c 0
 101 464 183 666 331 666 c 0
 409 666 487 612 487 497 c 0
 487 368 396 306 242 219 c 0
 211 201 138 160 88 74 c 1
 90 75 99 77 110 77 c 0
 141 77 180 68 216 60 c 0
 232 56 271 48 299 48 c 0
 366 48 405 115 419 156 c 1
 423 172 424 173 436 173 c 0
 443 173 451 173 451 163 c 0
 451 152 405 -22 290 -22 c 0
 250 -22 219 0 193 18 c 0
 168 35 140 55 108 55 c 0
 94 55 83 48 74 37 c 4
 63 24 56 6 52 -9 c 0
 49 -20 47 -22 35 -22 c 0
 33 -22 31 -22 29 -22 c 0
 25 -21 20 -19 20 -12 c 0
EndSplineSet
EndChar
StartChar: uF5082
Encoding: 1003650 1003650 174
Width: 1000
Flags: MW
LayerCount: 2
Fore
SplineSet
600 12 m 0
 600 31 611 31 628 31 c 2
 636 31 l 2
 714 31 722 41 730 73 c 2
 848 547 l 1
 801 512 752 506 737 506 c 0
 733 506 721 506 721 518 c 0
 721 535 732 536 737 537 c 0
 746 538 758 539 773 543 c 4
 808 553 859 578 913 650 c 0
 925 665 926 666 932 666 c 0
 938 666 944 662 944 654 c 0
 944 652 942 644 941 641 c 2
 798 70 l 2
 797 66 795 57 795 51 c 0
 795 37 801 36 823 33 c 0
 836 32 853 31 866 31 c 2
 874 31 l 2
 890 31 900 31 900 19 c 0
 900 0 887 0 880 0 c 0
 836 0 790 3 746 3 c 0
 703 3 658 0 615 0 c 0
 611 0 600 0 600 12 c 0
67 -12 m 0
 67 -12 68 -5 72 7 c 0
 80 34 100 85 148 143 c 1
 190 195 232 219 277 246 c 0
 361 296 436 364 457 473 c 0
 461 492 463 512 463 534 c 0
 463 617 416 644 375 644 c 0
 253 644 178 456 178 391 c 0
 178 363 188 358 200 358 c 0
 261 358 298 464 298 493 c 0
 298 505 294 518 288 530 c 0
 287 532 287 534 287 536 c 0
 287 542 292 547 298 547 c 0
 311 547 320 512 320 494 c 0
 320 456 278 336 199 336 c 0
 154 336 148 379 148 399 c 0
 148 464 230 666 378 666 c 0
 456 666 534 612 534 497 c 0
 534 368 443 306 289 219 c 0
 258 201 185 160 135 74 c 1
 137 75 146 77 157 77 c 0
 188 77 227 68 263 60 c 0
 279 56 318 48 346 48 c 0
 413 48 452 115 466 156 c 1
 470 172 471 173 483 173 c 0
 490 173 498 173 498 163 c 0
 498 152 452 -22 337 -22 c 0
 297 -22 266 0 240 18 c 0
 215 35 187 55 155 55 c 0
 141 55 130 48 121 37 c 4
 110 24 103 6 99 -9 c 0
 96 -20 94 -22 82 -22 c 0
 80 -22 78 -22 76 -22 c 0
 72 -21 67 -19 67 -12 c 0
EndSplineSet
EndChar
StartChar: uF5083
Encoding: 1003651 1003651 175
Width: 1000
Flags: MW
LayerCount: 2
Fore
SplineSet
522 -12 m 0
 522 -12 523 -5 527 7 c 0
 535 34 555 85 603 143 c 1
 645 195 687 219 732 246 c 0
 816 296 891 364 912 473 c 0
 916 492 918 512 918 534 c 0
 918 617 871 644 830 644 c 0
 708 644 633 456 633 391 c 0
 633 363 643 358 655 358 c 0
 716 358 753 464 753 493 c 0
 753 505 749 518 743 530 c 0
 742 532 742 534 742 536 c 0
 742 542 747 547 753 547 c 0
 766 547 775 512 775 494 c 0
 775 456 733 336 654 336 c 0
 609 336 603 379 603 399 c 0
 603 464 685 666 833 666 c 0
 911 666 989 612 989 497 c 0
 989 368 898 306 744 219 c 0
 713 201 640 160 590 74 c 1
 592 75 601 77 612 77 c 0
 643 77 682 68 718 60 c 0
 734 56 773 48 801 48 c 0
 868 48 907 115 921 156 c 1
 925 172 926 173 938 173 c 0
 945 173 953 173 953 163 c 0
 953 152 907 -22 792 -22 c 0
 752 -22 721 0 695 18 c 0
 670 35 642 55 610 55 c 0
 596 55 585 48 576 37 c 4
 565 24 558 6 554 -9 c 0
 551 -20 549 -22 537 -22 c 0
 535 -22 533 -22 531 -22 c 0
 527 -21 522 -19 522 -12 c 0
22 -12 m 0
 22 -12 23 -5 27 7 c 0
 35 34 55 85 103 143 c 1
 145 195 187 219 232 246 c 0
 316 296 391 364 412 473 c 0
 416 492 418 512 418 534 c 0
 418 617 371 644 330 644 c 0
 208 644 133 456 133 391 c 0
 133 363 143 358 155 358 c 0
 216 358 253 464 253 493 c 0
 253 505 249 518 243 530 c 0
 242 532 242 534 242 536 c 0
 242 542 247 547 253 547 c 0
 266 547 275 512 275 494 c 0
 275 456 233 336 154 336 c 0
 109 336 103 379 103 399 c 0
 103 464 185 666 333 666 c 0
 411 666 489 612 489 497 c 0
 489 368 398 306 244 219 c 0
 213 201 140 160 90 74 c 1
 92 75 101 77 112 77 c 0
 143 77 182 68 218 60 c 0
 234 56 273 48 301 48 c 0
 368 48 407 115 421 156 c 1
 425 172 426 173 438 173 c 0
 445 173 453 173 453 163 c 0
 453 152 407 -22 292 -22 c 0
 252 -22 221 0 195 18 c 0
 170 35 142 55 110 55 c 0
 96 55 85 48 76 37 c 4
 65 24 58 6 54 -9 c 0
 51 -20 49 -22 37 -22 c 0
 35 -22 33 -22 31 -22 c 0
 27 -21 22 -19 22 -12 c 0
EndSplineSet
EndChar
StartChar: uF5084
Encoding: 1003652 1003652 176
Width: 1000
Flags: MW
LayerCount: 2
Fore
SplineSet
528 106 m 0
 528 124 529 184 580 184 c 0
 603 184 614 168 614 152 c 0
 614 137 601 100 558 104 c 1
 560 30 610 0 660 0 c 0
 705 0 752 25 780 59 c 1
 832 119 840 218 840 236 c 0
 840 317 783 319 764 319 c 2
 736 319 l 2
 719 319 710 319 710 329 c 0
 710 350 719 350 736 350 c 2
 760 350 l 2
 791 350 817 357 838 368 c 4
 928 415 934 541 934 554 c 0
 934 626 887 644 850 644 c 0
 753 644 662 550 662 471 c 0
 662 453 668 434 688 434 c 0
 717 434 748 462 748 496 c 0
 748 511 741 524 740 525 c 0
 737 531 736 533 736 536 c 0
 736 542 742 547 748 547 c 0
 760 547 770 516 770 497 c 0
 770 447 725 412 688 412 c 0
 651 412 632 441 632 476 c 0
 632 561 733 666 852 666 c 0
 930 666 994 617 994 532 c 0
 994 461 945 377 854 338 c 0
 847 335 839 332 832 330 c 1
 908 295 912 222 912 203 c 0
 912 83 786 -22 660 -22 c 0
 575 -22 528 38 528 106 c 0
16 -12 m 0
 16 -12 18 -5 22 7 c 0
 30 34 50 85 98 143 c 1
 140 195 181 219 226 246 c 0
 310 296 385 364 406 473 c 0
 410 492 412 512 412 534 c 0
 412 617 365 644 324 644 c 0
 202 644 128 456 128 391 c 0
 128 363 138 358 150 358 c 0
 211 358 248 464 248 493 c 0
 248 505 244 518 238 530 c 0
 237 532 236 534 236 536 c 0
 236 542 242 547 248 547 c 0
 261 547 270 512 270 494 c 0
 270 456 227 336 148 336 c 0
 103 336 98 379 98 399 c 0
 98 464 180 666 328 666 c 0
 406 666 484 612 484 497 c 0
 484 368 392 306 238 219 c 0
 207 201 134 160 84 74 c 1
 86 75 95 77 106 77 c 0
 137 77 176 68 212 60 c 0
 228 56 268 48 296 48 c 0
 363 48 402 115 416 156 c 1
 420 172 420 173 432 173 c 0
 439 173 448 173 448 163 c 0
 448 152 401 -22 286 -22 c 0
 246 -22 216 0 190 18 c 0
 165 35 136 55 104 55 c 0
 90 55 79 48 70 37 c 4
 59 24 52 6 48 -9 c 0
 45 -20 44 -22 32 -22 c 0
 30 -22 28 -22 26 -22 c 0
 22 -21 16 -19 16 -12 c 0
EndSplineSet
EndChar
StartChar: uF5085
Encoding: 1003653 1003653 177
Width: 1000
Flags: MW
LayerCount: 2
Fore
SplineSet
520 18 m 0
 520 34 553 51 560 54 c 1
 562 56 596 82 640 131 c 0
 668 163 701 204 732 255 c 0
 803 371 847 491 880 616 c 0
 887 643 893 666 922 666 c 0
 932 666 948 661 948 640 c 0
 948 640 938 585 908 503 c 0
 865 386 779 213 620 66 c 1
 633 67 636 67 648 67 c 0
 670 67 687 67 724 56 c 1
 753 46 711 59 784 33 c 1
 785 39 823 189 826 199 c 0
 829 211 834 227 846 236 c 4
 851 240 857 242 866 242 c 0
 869 242 894 241 894 215 c 0
 894 212 894 210 890 195 c 2
 846 17 l 1
 851 16 855 16 862 16 c 0
 879 16 904 20 922 27 c 0
 932 31 934 31 936 31 c 0
 945 31 950 19 950 14 c 0
 950 -2 886 -15 858 -15 c 0
 852 -15 844 -15 838 -14 c 1
 800 -160 l 2
 797 -170 793 -178 788 -184 c 0
 781 -191 773 -194 762 -194 c 0
 752 -194 736 -189 736 -168 c 0
 736 -164 736 -162 740 -147 c 2
 776 2 l 1
 754 10 731 20 718 25 c 0
 683 36 662 36 644 36 c 0
 585 36 577 29 568 21 c 1
 557 13 542 1 536 1 c 0
 528 1 520 14 520 18 c 0
60 -12 m 0
 60 -12 62 -5 66 7 c 0
 74 34 94 85 142 143 c 1
 184 195 225 219 270 246 c 0
 354 296 429 364 450 473 c 0
 454 492 456 512 456 534 c 0
 456 617 409 644 368 644 c 0
 246 644 172 456 172 391 c 0
 172 363 182 358 194 358 c 0
 255 358 292 464 292 493 c 0
 292 505 288 518 282 530 c 0
 281 532 280 534 280 536 c 0
 280 542 286 547 292 547 c 0
 305 547 314 512 314 494 c 0
 314 456 271 336 192 336 c 0
 147 336 142 379 142 399 c 0
 142 464 224 666 372 666 c 0
 450 666 528 612 528 497 c 0
 528 368 436 306 282 219 c 0
 251 201 178 160 128 74 c 1
 130 75 139 77 150 77 c 0
 181 77 220 68 256 60 c 0
 272 56 312 48 340 48 c 0
 407 48 446 115 460 156 c 1
 464 172 464 173 476 173 c 0
 483 173 492 173 492 163 c 0
 492 152 445 -22 330 -22 c 0
 290 -22 260 0 234 18 c 0
 209 35 180 55 148 55 c 0
 134 55 123 48 114 37 c 4
 103 24 96 6 92 -9 c 0
 89 -20 88 -22 76 -22 c 0
 74 -22 72 -22 70 -22 c 0
 66 -21 60 -19 60 -12 c 0
EndSplineSet
EndChar
